<svg viewBox="0 0 330 200" xmlns="http://www.w3.org/2000/svg"><g><g><g><g><g><line x1="72.34375" y1="177" x2="67.34375" y2="177" style="visibility: inherit;" fill="rgb(0, 0, 0)" stroke="rgb(204, 204, 204)" stroke-width="1px"></line><line x1="72.34375" y1="163.3846153846154" x2="67.34375" y2="163.3846153846154" style="visibility: inherit;" fill="rgb(0, 0, 0)" stroke="rgb(204, 204, 204)" stroke-width="1px"></line><line x1="72.34375" y1="149.76923076923077" x2="67.34375" y2="149.76923076923077" style="visibility: inherit;" fill="rgb(0, 0, 0)" stroke="rgb(204, 204, 204)" stroke-width="1px"></line><line x1="72.34375" y1="136.15384615384616" x2="67.34375" y2="136.15384615384616" style="visibility: inherit;" fill="rgb(0, 0, 0)" stroke="rgb(204, 204, 204)" stroke-width="1px"></line><line x1="72.34375" y1="122.53846153846153" x2="67.34375" y2="122.53846153846153" style="visibility: inherit;" fill="rgb(0, 0, 0)" stroke="rgb(204, 204, 204)" stroke-width="1px"></line><line x1="72.34375" y1="108.92307692307693" x2="67.34375" y2="108.92307692307693" style="visibility: inherit;" fill="rgb(0, 0, 0)" stroke="rgb(204, 204, 204)" stroke-width="1px"></line><line x1="72.34375" y1="95.30769230769232" x2="67.34375" y2="95.30769230769232" style="visibility: inherit;" fill="rgb(0, 0, 0)" stroke="rgb(204, 204, 204)" stroke-width="1px"></line><line x1="72.34375" y1="81.6923076923077" x2="67.34375" y2="81.6923076923077" style="visibility: inherit;" fill="rgb(0, 0, 0)" stroke="rgb(204, 204, 204)" stroke-width="1px"></line><line x1="72.34375" y1="68.07692307692307" x2="67.34375" y2="68.07692307692307" style="visibility: inherit;" fill="rgb(0, 0, 0)" stroke="rgb(204, 204, 204)" stroke-width="1px"></line><line x1="72.34375" y1="54.46153846153847" x2="67.34375" y2="54.46153846153847" style="visibility: inherit;" fill="rgb(0, 0, 0)" stroke="rgb(204, 204, 204)" stroke-width="1px"></line><line x1="72.34375" y1="40.84615384615384" x2="67.34375" y2="40.84615384615384" style="visibility: inherit;" fill="rgb(0, 0, 0)" stroke="rgb(204, 204, 204)" stroke-width="1px"></line><line x1="72.34375" y1="27.230769230769212" x2="67.34375" y2="27.230769230769212" style="visibility: inherit;" fill="rgb(0, 0, 0)" stroke="rgb(204, 204, 204)" stroke-width="1px"></line><line x1="72.34375" y1="13.615384615384626" x2="67.34375" y2="13.615384615384626" style="visibility: inherit;" fill="rgb(0, 0, 0)" stroke="rgb(204, 204, 204)" stroke-width="1px"></line><line x1="72.34375" y1="0" x2="67.34375" y2="0" style="visibility: inherit;" fill="rgb(0, 0, 0)" stroke="rgb(204, 204, 204)" stroke-width="1px"></line></g><g transform="translate(62.34375, 0)"><text x="0" y="177" dx="0em" dy="0.3em" style="text-anchor: end; visibility: hidden; font-family: Roboto, sans-serif; font-size: 12px; font-weight: 200;" fill="rgb(33, 33, 33)" stroke="none" stroke-width="1px">0</text><text x="0" y="163.3846153846154" dx="0em" dy="0.3em" style="text-anchor: end; visibility: inherit; font-family: Roboto, sans-serif; font-size: 12px; font-weight: 200;" fill="rgb(33, 33, 33)" stroke="none" stroke-width="1px">2e-4</text><text x="0" y="149.76923076923077" dx="0em" dy="0.3em" style="text-anchor: end; visibility: hidden; font-family: Roboto, sans-serif; font-size: 12px; font-weight: 200;" fill="rgb(33, 33, 33)" stroke="none" stroke-width="1px">4e-4</text><text x="0" y="136.15384615384616" dx="0em" dy="0.3em" style="text-anchor: end; visibility: inherit; font-family: Roboto, sans-serif; font-size: 12px; font-weight: 200;" fill="rgb(33, 33, 33)" stroke="none" stroke-width="1px">6e-4</text><text x="0" y="122.53846153846153" dx="0em" dy="0.3em" style="text-anchor: end; visibility: hidden; font-family: Roboto, sans-serif; font-size: 12px; font-weight: 200;" fill="rgb(33, 33, 33)" stroke="none" stroke-width="1px">8e-4</text><text x="0" y="108.92307692307693" dx="0em" dy="0.3em" style="text-anchor: end; visibility: inherit; font-family: Roboto, sans-serif; font-size: 12px; font-weight: 200;" fill="rgb(33, 33, 33)" stroke="none" stroke-width="1px">1e-3</text><text x="0" y="95.30769230769232" dx="0em" dy="0.3em" style="text-anchor: end; visibility: hidden; font-family: Roboto, sans-serif; font-size: 12px; font-weight: 200;" fill="rgb(33, 33, 33)" stroke="none" stroke-width="1px">1.2e-3</text><text x="0" y="81.6923076923077" dx="0em" dy="0.3em" style="text-anchor: end; visibility: inherit; font-family: Roboto, sans-serif; font-size: 12px; font-weight: 200;" fill="rgb(33, 33, 33)" stroke="none" stroke-width="1px">1.4e-3</text><text x="0" y="68.07692307692307" dx="0em" dy="0.3em" style="text-anchor: end; visibility: hidden; font-family: Roboto, sans-serif; font-size: 12px; font-weight: 200;" fill="rgb(33, 33, 33)" stroke="none" stroke-width="1px">1.6e-3</text><text x="0" y="54.46153846153847" dx="0em" dy="0.3em" style="text-anchor: end; visibility: inherit; font-family: Roboto, sans-serif; font-size: 12px; font-weight: 200;" fill="rgb(33, 33, 33)" stroke="none" stroke-width="1px">1.8e-3</text><text x="0" y="40.84615384615384" dx="0em" dy="0.3em" style="text-anchor: end; visibility: hidden; font-family: Roboto, sans-serif; font-size: 12px; font-weight: 200;" fill="rgb(33, 33, 33)" stroke="none" stroke-width="1px">2e-3</text><text x="0" y="27.230769230769212" dx="0em" dy="0.3em" style="text-anchor: end; visibility: inherit; font-family: Roboto, sans-serif; font-size: 12px; font-weight: 200;" fill="rgb(33, 33, 33)" stroke="none" stroke-width="1px">2.2e-3</text><text x="0" y="13.615384615384626" dx="0em" dy="0.3em" style="text-anchor: end; visibility: hidden; font-family: Roboto, sans-serif; font-size: 12px; font-weight: 200;" fill="rgb(33, 33, 33)" stroke="none" stroke-width="1px">2.4e-3</text><text x="0" y="0" dx="0em" dy="0.3em" style="text-anchor: end; visibility: hidden; font-family: Roboto, sans-serif; font-size: 12px; font-weight: 200;" fill="rgb(33, 33, 33)" stroke="none" stroke-width="1px">2.6e-3</text></g><line x1="72.34375" y1="0" x2="72.34375" y2="177" fill="rgb(0, 0, 0)" stroke="rgb(204, 204, 204)" stroke-width="1px"></line></g></g><g transform="translate(72, 0)" clip-path="url(#clip_0)"><clipPath id="clip_0"><rect width="257" height="177"></rect></clipPath><g><g><g><line x1="0" y1="0" x2="0" y2="177" fill="rgb(0, 0, 0)" stroke="rgb(66, 66, 66)" stroke-width="1px" opacity="0.25"></line><line x1="21.471354166666664" y1="0" x2="21.471354166666664" y2="177" fill="rgb(0, 0, 0)" stroke="rgb(66, 66, 66)" stroke-width="1px" opacity="0.25"></line><line x1="42.94270833333333" y1="0" x2="42.94270833333333" y2="177" fill="rgb(0, 0, 0)" stroke="rgb(66, 66, 66)" stroke-width="1px" opacity="0.25"></line><line x1="64.4140625" y1="0" x2="64.4140625" y2="177" fill="rgb(0, 0, 0)" stroke="rgb(66, 66, 66)" stroke-width="1px" opacity="0.25"></line><line x1="85.88541666666666" y1="0" x2="85.88541666666666" y2="177" fill="rgb(0, 0, 0)" stroke="rgb(66, 66, 66)" stroke-width="1px" opacity="0.25"></line><line x1="107.35677083333334" y1="0" x2="107.35677083333334" y2="177" fill="rgb(0, 0, 0)" stroke="rgb(66, 66, 66)" stroke-width="1px" opacity="0.25"></line><line x1="128.828125" y1="0" x2="128.828125" y2="177" fill="rgb(0, 0, 0)" stroke="rgb(66, 66, 66)" stroke-width="1px" opacity="0.25"></line><line x1="150.29947916666669" y1="0" x2="150.29947916666669" y2="177" fill="rgb(0, 0, 0)" stroke="rgb(66, 66, 66)" stroke-width="1px" opacity="0.25"></line><line x1="171.77083333333331" y1="0" x2="171.77083333333331" y2="177" fill="rgb(0, 0, 0)" stroke="rgb(66, 66, 66)" stroke-width="1px" opacity="0.25"></line><line x1="193.2421875" y1="0" x2="193.2421875" y2="177" fill="rgb(0, 0, 0)" stroke="rgb(66, 66, 66)" stroke-width="1px" opacity="0.25"></line><line x1="214.71354166666669" y1="0" x2="214.71354166666669" y2="177" fill="rgb(0, 0, 0)" stroke="rgb(66, 66, 66)" stroke-width="1px" opacity="0.25"></line><line x1="236.18489583333331" y1="0" x2="236.18489583333331" y2="177" fill="rgb(0, 0, 0)" stroke="rgb(66, 66, 66)" stroke-width="1px" opacity="0.25"></line><line x1="257.65625" y1="0" x2="257.65625" y2="177" fill="rgb(0, 0, 0)" stroke="rgb(66, 66, 66)" stroke-width="1px" opacity="0.25"></line></g><g><line x1="0" y1="177" x2="257.65625" y2="177" fill="rgb(0, 0, 0)" stroke="rgb(66, 66, 66)" stroke-width="1px" opacity="0.25"></line><line x1="0" y1="163.3846153846154" x2="257.65625" y2="163.3846153846154" fill="rgb(0, 0, 0)" stroke="rgb(66, 66, 66)" stroke-width="1px" opacity="0.25"></line><line x1="0" y1="149.76923076923077" x2="257.65625" y2="149.76923076923077" fill="rgb(0, 0, 0)" stroke="rgb(66, 66, 66)" stroke-width="1px" opacity="0.25"></line><line x1="0" y1="136.15384615384616" x2="257.65625" y2="136.15384615384616" fill="rgb(0, 0, 0)" stroke="rgb(66, 66, 66)" stroke-width="1px" opacity="0.25"></line><line x1="0" y1="122.53846153846153" x2="257.65625" y2="122.53846153846153" fill="rgb(0, 0, 0)" stroke="rgb(66, 66, 66)" stroke-width="1px" opacity="0.25"></line><line x1="0" y1="108.92307692307693" x2="257.65625" y2="108.92307692307693" fill="rgb(0, 0, 0)" stroke="rgb(66, 66, 66)" stroke-width="1px" opacity="0.25"></line><line x1="0" y1="95.30769230769232" x2="257.65625" y2="95.30769230769232" fill="rgb(0, 0, 0)" stroke="rgb(66, 66, 66)" stroke-width="1px" opacity="0.25"></line><line x1="0" y1="81.6923076923077" x2="257.65625" y2="81.6923076923077" fill="rgb(0, 0, 0)" stroke="rgb(66, 66, 66)" stroke-width="1px" opacity="0.25"></line><line x1="0" y1="68.07692307692307" x2="257.65625" y2="68.07692307692307" fill="rgb(0, 0, 0)" stroke="rgb(66, 66, 66)" stroke-width="1px" opacity="0.25"></line><line x1="0" y1="54.46153846153847" x2="257.65625" y2="54.46153846153847" fill="rgb(0, 0, 0)" stroke="rgb(66, 66, 66)" stroke-width="1px" opacity="0.25"></line><line x1="0" y1="40.84615384615384" x2="257.65625" y2="40.84615384615384" fill="rgb(0, 0, 0)" stroke="rgb(66, 66, 66)" stroke-width="1px" opacity="0.25"></line><line x1="0" y1="27.230769230769212" x2="257.65625" y2="27.230769230769212" fill="rgb(0, 0, 0)" stroke="rgb(66, 66, 66)" stroke-width="1px" opacity="0.25"></line><line x1="0" y1="13.615384615384626" x2="257.65625" y2="13.615384615384626" fill="rgb(0, 0, 0)" stroke="rgb(66, 66, 66)" stroke-width="1px" opacity="0.25"></line><line x1="0" y1="0" x2="257.65625" y2="0" fill="rgb(0, 0, 0)" stroke="rgb(66, 66, 66)" stroke-width="1px" opacity="0.25"></line></g></g></g><g><g><line x1="0" y1="177" x2="257.65625" y2="177" fill="rgb(0, 0, 0)" stroke="rgb(153, 153, 153)" stroke-width="1.5px"></line></g></g><g><g><line x1="-4272.799479166666" y1="0" x2="-4272.799479166666" y2="177" fill="rgb(0, 0, 0)" stroke="rgb(153, 153, 153)" stroke-width="1.5px"></line></g></g><g><g><g><g><g><path stroke="rgb(255, 112, 67)" stroke-width="2px" d="M21.578710937500002,160.25248379842378L21.793424479166667,160.69299541175283L22.008138020833332,161.35703294536964L22.222851562499997,162.43187146997656L22.437565104166666,162.10495529097122L22.652278645833334,160.09040823284292L22.8669921875,160.13479573947L23.081705729166668,160.0291606635741L23.296419270833336,160.4853574012959L23.511132812499998,159.9082611803603L23.725846354166666,160.97702203315893L23.94055989583333,160.342373303091L24.1552734375,160.69837821880765L24.36998697916667,160.70957169697115L24.584700520833334,159.94028678336653L24.799414062500002,159.0141517521229L25.014127604166664,159.26956512379212L25.228841145833332,160.22475765405795L25.4435546875,159.83684863293357L25.658268229166666,159.61266961432577L25.872981770833334,159.4319342191246L26.087695312500003,159.19721147800954L26.302408854166668,159.04747468861032L26.517122395833333,160.01625717712878L26.731835937499998,160.60913921824368L26.946549479166666,159.90384573960668L27.161263020833335,160.96788219176983L27.3759765625,161.09316614673975L27.59069010416667,160.39133990928454L27.805403645833334,160.39956818303523L28.0201171875,161.0439455874077L28.234830729166667,159.30413240496787L28.449544270833332,157.79059745551126L28.6642578125,157.30025250543338L28.878971354166666,157.76046722018464L29.093684895833334,158.3768926966131L29.3083984375,157.85787076752172L29.523111979166664,158.3735558999274L29.737825520833333,159.03009724294958L29.9525390625,157.5951245394258L30.167252604166666,157.0365006501641L30.381966145833335,157.21753223572136L30.5966796875,158.33987779873195L30.811393229166665,159.72346414443666L31.026106770833334,159.28788246846202L31.2408203125,159.31217559997532L31.455533854166667,158.08085919189048L31.670247395833332,158.81867815104638L31.8849609375,158.48923864443506L32.099674479166666,157.81042549697847L32.314388020833334,159.0651684925183L32.5291015625,157.25858036190888L32.743815104166664,157.51941116100417L32.95852864583333,157.75512476181052L33.1732421875,155.77913661916529L33.38795572916666,154.8246135151291L33.60266927083333,154.1993052867068L33.8173828125,154.82822115408948L34.03209635416667,156.64163714040575L34.24680989583333,155.4009995829978L34.4615234375,154.9235268132669L34.67623697916667,153.26683114894902L34.89095052083333,155.53319192141666L35.105664062500004,154.20961140060712L35.320377604166666,152.64938401695127L35.535091145833334,151.73776107190696L35.7498046875,153.06909475080158L35.964518229166664,154.0721952018387L36.17923177083333,156.01174531151966L36.393945312499994,154.7920425055079L36.60865885416667,154.21500813720698L36.82337239583333,155.5433846546282L37.0380859375,155.53164994168728L37.25279947916667,153.90078698407652L37.46751302083333,151.78772217039662L37.6822265625,153.1109106221956L37.89694010416667,151.3667304373791L38.111653645833336,151.51789937221233L38.3263671875,151.54824991216603L38.54108072916667,150.6395634669625L38.755794270833334,149.24765858572886L38.970507812499996,148.07593521114572L39.185221354166664,146.0559960067199L39.39993489583333,146.6611377647332L39.6146484375,146.41655625523651L39.82936197916666,148.4976622322201L40.04407552083334,148.10718641409986L40.2587890625,147.28622764501438L40.47350260416666,146.48090915436833L40.68821614583334,146.17209466250583L40.9029296875,147.39289851045646L41.11764322916667,149.08219074920538L41.332356770833336,147.58801997747457L41.547070312500004,148.11448390420776L41.761783854166666,145.88510939349425L41.97649739583333,147.17086340294793L42.1912109375,149.135400268557L42.405924479166664,146.9078286560711L42.62063802083333,148.1206061953444L42.8353515625,147.06832946660185L43.05006510416667,144.75907545369893L43.26477864583333,144.86997928600172L43.4794921875,140.47076993570948L43.69420572916667,139.74240637099683L43.90891927083333,140.07374353669726L44.123632812500006,138.63379433135592L44.33834635416667,139.84870374179735L44.553059895833336,136.77920801452345L44.7677734375,136.48545298579236L44.982486979166666,135.78124322744134L45.197200520833334,140.75111535379966L45.411914062499996,144.25837179163952L45.62662760416667,141.4055086818836L45.84134114583333,140.4619519662048L46.0560546875,139.3659236966517L46.27076822916667,139.1157154923413L46.48548177083333,139.32943203471132L46.7001953125,137.94097536809545L46.91490885416667,138.08266615076104L47.12962239583334,138.61275416107776L47.3443359375,133.88127554734595L47.55904947916667,136.1034786942914L47.773763020833336,134.63513088292174L47.9884765625,136.08806910443718L48.203190104166666,136.85597153621276L48.417903645833334,134.1927522180289L48.6326171875,133.32832761969448L48.847330729166664,130.91051838023205L49.06204427083333,132.4795099724382L49.2767578125,131.41533493181038L49.49147135416666,132.20531031183708L49.70618489583333,132.51635501191075L49.9208984375,131.6963773187918L50.13561197916667,133.04274371453403L50.35032552083333,131.69516087776802L50.5650390625,134.3582690051098L50.77975260416667,134.87428868028297L50.99446614583333,134.9154293283035L51.209179687500004,136.38003817856483L51.423893229166666,136.67940121256066L51.638606770833334,134.27588998438986L51.8533203125,136.97390945944193L52.068033854166664,136.97096494220463L52.28274739583333,137.45584330170212L52.497460937499994,137.95245512278103L52.71217447916667,141.49845820115206L52.92688802083333,137.70789598197635L53.1416015625,136.0501492774294L53.35631510416667,141.181889160455L53.57102864583333,140.27388134860885L53.7857421875,138.28845216502035L54.00045572916667,134.90204410603698L54.215169270833336,135.24746924206354L54.4298828125,138.50048002407348L54.64459635416667,139.3653716494338L54.859309895833334,132.72517411401705L55.074023437499996,124.28846440825208L55.288736979166664,128.19658166515117L55.50345052083333,126.85086109803882L55.7181640625,129.80292455720502L55.93287760416666,128.6783913645114L56.14759114583334,128.1293675964132L56.3623046875,132.67691666663825L56.57701822916666,135.12449901854433L56.79173177083334,134.09035925589956L57.0064453125,133.24294993894225L57.22115885416667,133.73688568892226L57.435872395833336,128.08286859418266L57.650585937500004,129.8231020871398L57.865299479166666,129.01021379433647L58.08001302083333,130.4796468596241L58.2947265625,126.8674820016538L58.509440104166664,127.88800343670714L58.72415364583333,131.62368192404946L58.9388671875,132.9414870078702L59.15358072916667,133.00722205698844L59.36829427083333,129.4918238388013L59.5830078125,133.0697500359064L59.79772135416667,133.40990896510056L60.01243489583333,132.77356365410142L60.227148437500006,133.23693997430283L60.44186197916667,136.169417738971L60.656575520833336,138.64318463688653L60.8712890625,132.43860733369115L61.086002604166666,129.77840080265327L61.300716145833334,130.0053901188575L61.515429687499996,130.1864180903207L61.73014322916667,130.30867822441104L61.94485677083333,130.7491750161067L62.1595703125,127.85205864472975L62.37428385416667,126.81913586145767L62.58899739583333,127.05002286509738L62.8037109375,126.618198114632L63.01842447916667,127.04101482781384L63.23313802083334,130.82299489724522L63.4478515625,134.1457762144364L63.66256510416667,133.38594507461139L63.877278645833336,137.2202318859481L64.0919921875,132.8548509660877L64.30670572916667,125.01729787090805L64.52141927083333,126.86698418707984L64.73613281249999,125.45992161946145L64.95084635416667,124.7957438935817L65.16555989583334,127.01708016826879L65.3802734375,123.96160583142364L65.59498697916666,123.54528979859526L65.80970052083333,126.39736726989707L66.0244140625,117.97097711028981L66.23912760416667,113.14620612590603L66.45384114583334,119.1808407603711L66.66855468749999,122.87861431116394L66.88326822916666,125.36052644000902L67.09798177083334,125.03765233861664L67.3126953125,119.60625685705148L67.52740885416667,121.72974642041144L67.74212239583333,111.52393177993486L67.9568359375,105.40835716380549L68.17154947916667,111.79439339326427L68.38626302083334,109.20709615182092L68.6009765625,108.15400406067154L68.81569010416666,102.1591252913908L69.03040364583335,101.5207203429245L69.2451171875,106.09860998555295L69.45983072916667,101.76241988933884L69.67454427083334,103.01190656142585L69.88925781249999,106.623409384548L70.10397135416667,103.29948075695236L70.31868489583333,108.25059853397585L70.5333984375,111.37570941476974L70.74811197916667,116.33095517259606L70.96282552083333,107.98162831025982L71.1775390625,108.09938788875533L71.39225260416667,114.14485574122081L71.60696614583333,117.47698960892218L71.8216796875,113.34940336230689L72.03639322916668,112.26898579403853L72.25110677083333,115.6136532835346L72.4658203125,112.48550008458349L72.68053385416667,111.09099455015001L72.89524739583332,109.81432317574308L73.1099609375,113.49412491294324L73.32467447916667,111.41595367856596L73.53938802083333,111.31446333173936L73.7541015625,109.25042799867336L73.96881510416667,105.27518804495956L74.18352864583333,109.61177510094856L74.3982421875,111.91234448828028L74.61295572916667,110.14887772779976L74.82766927083333,113.1926157834515L75.04238281250001,112.68216479320408L75.25709635416666,116.81026596367964L75.47180989583333,117.05904252039639L75.6865234375,118.04495022670562L75.90123697916665,109.54154706754117L76.11595052083334,112.34291814546808L76.3306640625,109.4837791051411L76.54537760416666,113.35805724087527L76.76009114583333,113.21472376013345L76.9748046875,111.73890836901985L77.18951822916667,113.14593428943382L77.40423177083333,111.14499351839723L77.6189453125,118.0361028623828L77.83365885416666,118.41537588308121L78.04837239583334,112.50487644149352L78.26308593750001,118.47287502281742L78.47779947916666,124.24277530704768L78.69251302083333,125.24710801363562L78.9072265625,113.27051259622951L79.12194010416667,110.66710902413072L79.33665364583334,115.02377746169817L79.5513671875,111.32163938971497L79.76608072916666,111.79459118704965L79.98079427083333,112.6701842341054L80.19550781250001,110.84068775973796L80.41022135416667,111.72112369245615L80.62493489583333,119.1449382113416L80.83964843749999,126.93370661315703L81.05436197916667,124.04750427625773L81.26907552083334,125.06667495732857L81.4837890625,118.81732930349685L81.69850260416666,117.0148550229657L81.91321614583333,110.52904411479325L82.1279296875,109.87328942728041L82.34264322916667,103.02057603442118L82.55735677083334,108.27844275898751L82.77207031249999,113.0140029787741L82.98678385416666,103.78676475010607L83.20149739583334,99.74077196821236L83.4162109375,100.26366738073031L83.63092447916667,97.994167444416L83.84563802083333,100.98480870845785L84.0603515625,105.70410801839013L84.27506510416667,107.12461562333459L84.48977864583334,107.09805691483365L84.7044921875,112.12329875030403L84.91920572916666,120.40834381418826L85.13391927083335,119.12118257350807L85.3486328125,120.28549045387813L85.56334635416667,115.22388304260555L85.77805989583334,112.22126518904244L85.99277343749999,116.88694313915512L86.20748697916667,111.56949788627254L86.42220052083333,97.4433125141272L86.6369140625,96.75126262949193L86.85162760416667,96.25186910958632L87.06634114583333,99.70000727722703L87.2810546875,101.48542250886958L87.49576822916667,103.5813740743164L87.71048177083333,96.64513039094763L87.9251953125,108.63867530269096L88.13990885416668,107.999199628467L88.35462239583333,106.29287029442783L88.5693359375,102.90051926732617L88.78404947916667,91.75128551635018L88.99876302083332,103.29089617490085L89.2134765625,107.56653151017827L89.42819010416667,102.85299253282923L89.64290364583333,100.17476069761067L89.8576171875,106.74450586550269L90.07233072916667,113.00838466908044L90.28704427083333,108.59334647807862L90.5017578125,114.17773967141828L90.71647135416667,114.93314430021987L90.93118489583333,111.22056094063605L91.14589843750001,110.1689371584913L91.36061197916666,111.26835163413175L91.57532552083333,113.32648679816108L91.7900390625,113.46998846827232L92.00475260416665,113.20396427989216L92.21946614583334,114.98686880732897L92.4341796875,115.1789674362951L92.64889322916666,114.20901271423142L92.86360677083333,112.94791751803311L93.0783203125,111.24881060164064L93.29303385416667,110.04033998066531L93.50774739583333,113.75845408190791L93.7224609375,114.3490619830724L93.93717447916666,115.57308442412729L94.15188802083334,115.94110326615316L94.36660156250001,114.9438420093579L94.58131510416666,112.0155284720284L94.79602864583333,113.3122453556861L95.0107421875,115.87450599987055L95.22545572916667,120.09209996589098L95.44016927083334,112.24876267152104L95.6548828125,107.35660381081341L95.86959635416666,99.2741106103238L96.08430989583333,95.81812168635938L96.29902343750001,98.90343669358934L96.51373697916667,94.21767051104806L96.72845052083333,89.19082950123394L96.94316406249999,88.54362974037707L97.15787760416667,85.1821048106666L97.37259114583334,91.33534406613195L97.5873046875,85.74694494003683L97.80201822916666,81.7881362980636L98.01673177083333,71.67880392685903L98.2314453125,72.14721101362437L98.44615885416667,80.84158728509797L98.66087239583334,79.74472606124682L98.87558593749999,83.02324204202658L99.09029947916666,84.6875418864929L99.30501302083334,89.78448849463007L99.5197265625,92.2546462487833L99.73444010416667,91.08191419575442L99.94915364583333,96.52975078007299L100.1638671875,95.10876674653204L100.37858072916667,103.83655057176541L100.59329427083334,110.94725616912248L100.8080078125,112.0693412085221L101.02272135416666,112.67242016069846L101.23743489583335,119.37484810582752L101.4521484375,118.3132891864868L101.66686197916667,118.78352393478536L101.88157552083334,108.81981273138715L102.09628906249999,108.6590238799553L102.31100260416667,108.29896278371295L102.52571614583333,107.3303946835775L102.7404296875,106.32788733721911L102.95514322916667,100.58210875743958L103.16985677083333,94.17404741171943L103.3845703125,95.81578148203327L103.59928385416667,100.06199325957405L103.81399739583333,93.62584356599358L104.0287109375,85.79059589678002L104.24342447916668,80.71536972692216L104.45813802083333,81.55982370131333L104.6728515625,79.99409522882252L104.88756510416667,83.40751968217772L105.10227864583332,87.38168142885807L105.3169921875,86.44419279497788L105.53170572916667,92.33128325741644L105.74641927083333,92.32336645941764L105.9611328125,90.75892821343598L106.17584635416667,94.15023693286669L106.39055989583333,97.16091784840708L106.6052734375,98.72815379272953L106.81998697916667,98.50903202233708L107.03470052083333,104.51689873756423L107.24941406250001,111.4941151458751L107.46412760416666,111.93802829004959L107.67884114583333,107.46517005945792L107.8935546875,103.42341320462886L108.10826822916665,99.92073330538895L108.32298177083334,105.89675938790499L108.5376953125,108.11158932195443L108.75240885416666,98.87704045199293L108.96712239583333,104.5979480852233L109.1818359375,106.45153690789495L109.39654947916667,90.59096886693995L109.61126302083333,92.06783069481064L109.8259765625,94.49058034738665L110.04069010416666,90.65264771099442L110.25540364583334,92.68876908687865L110.47011718750001,86.54857346715426L110.68483072916666,90.72021426688094L110.89954427083333,83.5329177178265L111.1142578125,85.23975242662614L111.32897135416667,83.41028167240675L111.54368489583334,90.48260734906934L111.7583984375,94.31705364345368L111.97311197916666,103.07075797415044L112.18782552083333,103.34668512164967L112.40253906250001,108.31098529283011L112.61725260416667,102.08222308113237L112.83196614583333,103.21722122944776L113.04667968749999,99.56699360967508L113.26139322916667,89.43151570303135L113.47610677083334,83.43056845392734L113.6908203125,89.96818460973257L113.90553385416666,76.02272232213267L114.12024739583333,80.07099334068647L114.3349609375,74.80287339263623L114.54967447916667,78.22598321271082L114.76438802083334,80.21395016637119L114.97910156249999,70.43488696492625L115.19381510416666,68.96633191217015L115.40852864583334,67.62421390888605L115.6232421875,64.63481713382758L115.83795572916667,76.62501823113354L116.05266927083333,84.22802125647651L116.2673828125,78.46407392302488L116.48209635416667,80.73156693782855L116.69680989583334,83.30861515846262L116.9115234375,85.94477344945372L117.12623697916666,87.67446355975773L117.34095052083335,94.10657400422288L117.5556640625,94.3532892101893L117.77037760416667,98.731452388156L117.98509114583334,93.31799613193316L118.19980468749999,92.6290081003365L118.41451822916667,92.16322435206858L118.62923177083333,93.87868702401035L118.8439453125,98.70626469695183L119.05865885416667,97.57791672636192L119.27337239583333,96.35357045774802L119.4880859375,98.31933437014389L119.70279947916667,101.09376594792246L119.91751302083333,102.07644395651252L120.1322265625,95.26558612375271L120.34694010416668,96.21044309615316L120.56165364583333,100.08528199240865L120.7763671875,91.43807754224777L120.99108072916667,89.68576395259255L121.20579427083332,86.97217252943793L121.4205078125,88.06042091186046L121.63522135416667,82.15076798105551L121.84993489583333,81.17278281216618L122.0646484375,80.28043574002128L122.27936197916667,74.56847400519527L122.49407552083333,74.9656096698031L122.7087890625,81.60040231039852L122.92350260416667,77.5577340608299L123.13821614583333,85.80324242872526L123.35292968750001,85.90008735530292L123.56764322916666,84.1880348140431L123.78235677083333,82.79004910680996L123.9970703125,89.09918757743381L124.21178385416665,98.94344251853227L124.42649739583334,94.11322230070222L124.6412109375,95.20725536782037L124.85592447916666,98.72204077134506L125.07063802083333,100.6758452732542L125.2853515625,104.11138228114521L125.50006510416667,100.60667539988776L125.71477864583333,95.06623954472738L125.9294921875,96.55276711065866L126.14420572916666,90.51275927137273L126.35891927083334,89.67458941057419L126.57363281250001,95.60401960931394L126.78834635416666,86.80613010362221L127.00305989583333,84.80346166936997L127.2177734375,79.33188598706082L127.43248697916667,78.13027561823549L127.64720052083334,80.021793508834L127.8619140625,86.95729361061424L128.07662760416667,91.45573269726785L128.29134114583334,94.22276466674074L128.5060546875,98.79859424600416L128.72076822916665,99.2114591172925L128.93548177083332,103.46717712523504L129.1501953125,101.91524145242411L129.36490885416666,99.40325531895584L129.57962239583333,93.7530782183359L129.7943359375,93.26013485737826L130.0090494791667,92.3862692997126L130.22376302083333,95.14019148698345L130.4384765625,91.8479723394781L130.65319010416667,95.66434122388644L130.86790364583334,89.57132083505249L131.0826171875,82.7345211567208L131.29733072916667,90.99765735534903L131.51204427083331,92.02070991113057L131.72675781249998,99.95636552963572L131.94147135416668,103.62482618572753L132.15618489583335,101.5321905750064L132.37089843750002,103.29385466143768L132.58561197916666,102.47026328651486L132.80032552083333,99.05334716539804L133.0150390625,87.85780097680802L133.22975260416666,90.45105622392543L133.44446614583333,93.25405258920932L133.6591796875,84.48363885277075L133.87389322916667,77.96078292947305L134.08860677083334,77.82214522445351L134.3033203125,83.7327711411777L134.51803385416667,77.04871569884139L134.73274739583334,83.186317996813L134.9474609375,86.67957117274669L135.16217447916665,91.44860813517793L135.37688802083332,94.97132185729097L135.5916015625,96.06566581987434L135.80631510416666,89.7597174707045L136.02102864583335,97.60741551660836L136.23574218750002,89.34452410724167L136.45045572916666,88.6547134802136L136.66516927083333,89.88241880828342L136.8798828125,91.16214409892352L137.09459635416667,96.38912700896807L137.30930989583334,93.8235351320013L137.52402343749998,94.061990375712L137.73873697916665,94.32472011373231L137.95345052083334,103.69211150610299L138.1681640625,86.14855788803831L138.38287760416668,89.1428518785441L138.59759114583335,80.8732449779251L138.8123046875,88.47076055030838L139.02701822916666,95.90102161860635L139.24173177083333,92.20100921847704L139.4564453125,88.40678990165479L139.67115885416666,87.53770203665407L139.88587239583333,72.4453367602579L140.1005859375,65.16234336353821L140.31529947916667,77.79170815190372L140.53001302083334,78.16226407362922L140.7447265625,76.01084214645499L140.95944010416667,85.10088653622128L141.17415364583334,88.40702908918553L141.38886718749998,80.35085724299117L141.60358072916665,74.89574832925936L141.81829427083332,80.19837099179057L142.03300781250002,67.25159038292105L142.24772135416669,54.84485896886314L142.46243489583333,61.45659706303123L142.6771484375,64.97927411270535L142.89186197916666,58.17218643954963L143.10657552083333,57.677730763615386L143.3212890625,64.1881812243203L143.53600260416667,78.78340872094607L143.7507161458333,68.04889880098175L143.9654296875,65.1673930134967L144.18014322916667,64.37070523403176L144.39485677083334,64.90038780648965L144.6095703125,54.80023794334199L144.82428385416668,48.20079210156629L145.03899739583332,52.33037473708092L145.2537109375,59.750115493247044L145.46842447916666,53.14607508420869L145.68313802083333,51.28314217754106L145.8978515625,49.32870266137418L146.1125651041667,55.489750128386014L146.32727864583333,62.467668368326144L146.5419921875,57.36298588126536L146.75670572916667,53.601988780617106L146.97141927083334,54.54469903403782L147.1861328125,50.69918597835786L147.40084635416667,42.85588054581464L147.61555989583331,54.98692589648977L147.83027343749998,57.83033274834815L148.04498697916668,65.96979270469096L148.25970052083335,68.35287833373006L148.47441406250002,76.62872932027292L148.68912760416666,70.60067220969142L148.90384114583333,69.61892593702342L149.1185546875,69.934216721515L149.33326822916666,64.18563765828544L149.54798177083333,72.99977074623891L149.7626953125,74.14792297217016L149.97740885416667,66.93067060693774L150.19212239583334,78.08276247453661L150.4068359375,88.27307295909752L150.62154947916667,74.41603510528367L150.83626302083334,76.58901039978572L151.0509765625,69.4470822807557L151.26569010416665,60.69909601191588L151.48040364583332,55.20291539062753L151.6951171875,61.388575088373216L151.90983072916666,71.55309021269247L152.12454427083335,70.98940292423839L152.33925781250002,79.51917210790427L152.55397135416666,88.61965322324396L152.76868489583333,78.59160857376887L152.9833984375,66.82446342335321L153.19811197916667,48.51082091596053L153.41282552083334,58.787643743164864L153.62753906249998,54.127509139611426L153.84225260416665,63.30103714506843L154.05696614583334,69.05266768415605L154.2716796875,77.269014229555L154.48639322916668,77.56316718008173L154.70110677083335,72.69774404767344L154.9158203125,59.98392592377057L155.13053385416666,51.99059824232377L155.34524739583333,64.93253289564045L155.5599609375,68.5215042285171L155.77467447916666,70.37120266521902L155.98938802083333,76.77688815887367L156.2041015625,78.81156553803955L156.41881510416667,81.90402965377625L156.63352864583334,75.98239921972704L156.8482421875,75.11758225308682L157.06295572916667,65.1228060298925L157.27766927083334,65.71332566206297L157.49238281249998,61.404817196231825L157.70709635416665,68.10856299861354L157.92180989583332,62.02798582914085L158.13652343750002,61.155517103391894L158.35123697916669,65.74812936741971L158.56595052083333,68.75807341231437L158.7806640625,60.737193879000074L158.99537760416666,65.56803590322225L159.21009114583333,73.71224452668103L159.4248046875,53.01972886995986L159.63951822916667,56.264337064976885L159.8542317708333,56.35461685679784L160.0689453125,54.64261891958292L160.28365885416667,59.469331017984686L160.49837239583334,64.48255198553711L160.7130859375,64.84589449560588L160.92779947916668,61.12232154091127L161.14251302083332,69.78118529233126L161.3572265625,76.54850432378207L161.57194010416666,70.59727688775129L161.78665364583333,70.53649939493675L162.0013671875,65.70525248186095L162.2160807291667,69.38023656935077L162.43079427083333,72.93468971632655L162.6455078125,80.48167748994106L162.86022135416667,80.6458678236763L163.07493489583334,85.47666055769255L163.2896484375,78.86230140443854L163.50436197916667,92.76392083141393L163.71907552083331,79.31901790888735L163.93378906249998,77.41859330405441L164.14850260416668,66.53492511946564L164.36321614583335,77.04647182057654L164.57792968750002,75.57386120013753L164.79264322916666,60.177975789220326L165.00735677083333,61.20987315917752L165.2220703125,52.5620386307727L165.43678385416666,50.00999974111734L165.65149739583333,60.55839667050707L165.8662109375,61.13019286294254L166.08092447916667,66.3267707653149L166.29563802083334,54.414783371556716L166.5103515625,51.097698252087724L166.72506510416667,56.1243479912486L166.93977864583334,54.5872041273084L167.1544921875,47.0000577497834L167.36920572916665,62.3203107917338L167.58391927083332,64.97247905901249L167.7986328125,70.00806448020536L168.01334635416666,82.65236942574147L168.22805989583335,83.86325392499722L168.44277343750002,87.76540183349134L168.65748697916666,81.95280634383842L168.87220052083333,75.99450660307384L169.0869140625,90.97946694133525L169.30162760416667,87.66160426039714L169.51634114583334,68.75432821989203L169.73105468749998,76.42699107730503L169.94576822916665,86.4982674084563L170.16048177083334,76.88417814548447L170.3751953125,79.09400264216757L170.58990885416668,73.06763713464449L170.80462239583335,80.68728504304576L171.0193359375,83.20618527284967L171.23404947916666,81.48863757004072L171.44876302083333,86.67960428152783L171.6634765625,86.63914487089657L171.87819010416666,63.50456206607689L172.09290364583333,64.26795837493516L172.3076171875,55.69377004939009L172.52233072916667,66.50809351804696L172.73704427083334,61.81643083054253L172.9517578125,58.03764811814608L173.16647135416667,63.7663645885242L173.38118489583334,68.08132979591606L173.59589843749998,46.57322874028305L173.81061197916665,47.99717715635263L174.02532552083332,55.430785635745394L174.24003906250002,66.21752835504236L174.45475260416669,58.64790247055737L174.66946614583333,47.26201547946695L174.8841796875,41.155021767055075L175.09889322916666,38.325213365080636L175.31360677083333,28.86764955881933L175.5283203125,39.41947200445505L175.74303385416667,17.072368945143932L175.9577473958333,15.606032093045663L176.1724609375,24.786157716258323L176.38717447916667,41.9053530012724L176.60188802083334,30.994413627675605L176.8166015625,22.536120568593038L177.03131510416668,25.68568903873544L177.24602864583332,28.167321890158824L177.4607421875,21.66797893218955L177.67545572916666,23.464421415962615L177.89016927083333,11.487456856561673L178.1048828125,15.14246666438395L178.3195963541667,15.551695408584557L178.53430989583333,10.912522345178271L178.7490234375,30.68708965391965L178.96373697916667,35.09521918583466L179.17845052083334,21.264297324769363L179.3931640625,39.413392943637604L179.60787760416667,45.410931070609855L179.82259114583331,26.086518262345844L180.03730468749998,36.73724189460375L180.25201822916668,29.958711604621197L180.46673177083335,46.54166988454428L180.68144531250002,34.18307651469761L180.89615885416666,34.502387691128654L181.11087239583333,38.73648044042915L181.3255859375,40.81432666089716L181.54029947916666,58.04310739173028L181.75501302083333,50.903732599662845L181.9697265625,53.002016617450195L182.18444010416667,53.351413955710846L182.39915364583334,41.32609041093589L182.6138671875,30.02519529812347L182.82858072916667,27.267616528342746L183.04329427083334,38.05095600146677L183.2580078125,30.735683472337783L183.47272135416665,32.97016836079098L183.68743489583332,18.39616506239752L183.9021484375,19.742676552909476L184.11686197916666,40.03156955271211L184.33157552083335,53.37694381862052L184.54628906250002,58.11489001736413L184.76100260416666,46.38715983485669L184.97571614583333,51.95417793087153L185.1904296875,50.70332284976023L185.40514322916667,59.34983832863726L185.61985677083334,47.42606798976367L185.83457031249998,44.435521461568136L186.04928385416665,49.49346675078795L186.26399739583334,43.24266535957657L186.4787109375,41.06888492262556L186.69342447916668,32.159944439740094L186.90813802083335,39.33428380247476L187.1228515625,32.656441067786055L187.33756510416666,35.7492899786194L187.55227864583333,50.58516127269544L187.7669921875,53.465947969851925L187.98170572916666,44.9355635364464L188.19641927083333,57.59410991959239L188.4111328125,63.1485189348233L188.62584635416667,68.99658916920333L188.84055989583334,67.93241122054924L189.0552734375,69.7136195598295L189.26998697916667,75.99081022933264L189.48470052083334,63.97520111062546L189.69941406249998,51.037402635169L189.91412760416665,39.18979934137112L190.12884114583332,49.52684561188816L190.34355468750002,53.28914259419001L190.55826822916669,49.218493553667216L190.77298177083333,44.1059566067394L190.9876953125,39.91540385160351L191.20240885416666,38.0472020348463L191.41712239583333,52.44798770132263L191.6318359375,50.52953490286036L191.84654947916667,31.86166036576584L192.0612630208333,53.079881262040004L192.2759765625,51.943652971537716L192.49069010416667,42.838781989564396L192.70540364583334,51.67657119247041L192.9201171875,66.10940875568627L193.13483072916668,55.87806509091865L193.34954427083332,64.14432154293979L193.5642578125,57.68824745596388L193.77897135416666,55.364747217626544L193.99368489583333,55.48667564002608L194.2083984375,42.42190394283681L194.4231119791667,52.69854846825948L194.63782552083333,46.5792789282419L194.8525390625,46.658311266076545L195.06725260416667,46.39434855203549L195.28196614583334,39.56346745784503L195.4966796875,45.89889734296359L195.71139322916667,58.24651242141208L195.92610677083331,54.834345670163266L196.14082031249998,50.919823861979445L196.35553385416668,42.77986871856148L196.57024739583335,41.26286773839441L196.78496093750002,34.55009011202862L196.99967447916666,27.29919025372437L197.21438802083333,34.76063594308562L197.4291015625,42.337770566305466L197.64381510416666,28.82918880759287L197.85852864583333,39.44956574565614L198.0732421875,37.24791503039882L198.28795572916667,27.322275337988774L198.50266927083334,21.71248791310362L198.7173828125,23.61751488975149L198.93209635416667,15.965607176457242L199.14680989583334,29.18812669687071L199.3615234375,25.739092207919736L199.57623697916665,9.976537556841217L199.79095052083332,11.871151177862163L200.0056640625,1.5609234785842954L200.22037760416666,2.552674504011532L200.43509114583335,-0.3516028179455728L200.64980468750002,-4.308490180501413L200.86451822916666,13.992105855089562L201.07923177083333,7.788595205045898L201.2939453125,27.077505806832196L201.50865885416667,31.28801370136623L201.72337239583334,33.236162914367L201.93808593749998,49.448285777358834L202.15279947916665,50.39295599459508L202.36751302083334,63.17674132660302L202.5822265625,75.95607450163064L202.79694010416668,72.67536689771713L203.01165364583335,80.71600141154815L203.2263671875,86.33894064812361L203.44108072916666,78.09317597780787L203.65579427083333,80.33679963053633L203.8705078125,75.70736275404062L204.08522135416666,71.02217141802734L204.29993489583333,63.985751124118025L204.5146484375,47.361764141559995L204.72936197916667,54.25030500870562L204.94407552083334,59.69587687595538L205.1587890625,34.98383273043201L205.37350260416667,38.10055727219664L205.58821614583334,30.940915512192916L205.80292968749998,27.37803621153391L206.01764322916665,32.90431561010306L206.23235677083332,27.400645155581632L206.44707031250002,33.19661140831346L206.66178385416669,31.791152470550994L206.87649739583333,31.904875431856848L207.0912109375,28.250646667700096L207.30592447916666,24.508670067645358L207.52063802083333,38.82500905888703L207.7353515625,28.16625781280928L207.95006510416667,17.028630382472578L208.1647786458333,32.75867255580958L208.3794921875,31.176984263762733L208.59420572916667,43.416151727606724L208.80891927083334,44.381669412957095L209.0236328125,44.72401958089242L209.23834635416668,53.662175127330244L209.45305989583332,56.79612259383965L209.6677734375,51.52126185045684L209.88248697916666,41.37184237096658L210.09720052083333,34.871132868634284L210.3119140625,27.886631973264212L210.5266276041667,14.95586080897673L210.74134114583333,23.79380575637808L210.9560546875,5.491231699936449L211.17076822916667,32.074732777688546L211.38548177083334,26.23671827020339L211.6001953125,32.93575610890356L211.81490885416667,30.60290755291468L212.02962239583331,45.31527362518354L212.24433593749998,43.27504011239156L212.45904947916668,53.56342886509416L212.67376302083335,45.94751051781302L212.88847656250002,60.713805342237805L213.10319010416666,58.26672215067825L213.31790364583333,63.39183102066218L213.5326171875,46.21340477192819L213.74733072916666,46.42404441783555L213.96204427083333,46.35916067063112L214.1767578125,41.486335787618565L214.39147135416667,38.404615258899014L214.60618489583334,15.604115570617978L214.8208984375,25.78292509703556L215.03561197916667,30.6325921560252L215.25032552083334,44.101194312693494L215.4650390625,39.728471246508995L215.67975260416665,36.51296237675362L215.89446614583332,39.75964220664904L216.1091796875,52.863077244303646L216.32389322916666,44.82827142334725L216.53860677083335,34.63776834978709L216.75332031250002,23.80919807902713L216.96803385416666,20.867725375585536L217.18274739583333,19.210778931365535L217.3974609375,27.2821721320787L217.61217447916667,31.226674339426932L217.82688802083334,38.40607451536985L218.04160156249998,30.80720231180987L218.25631510416665,21.862622803366925L218.47102864583334,20.294923604855487L218.6857421875,3.5073719642733288L218.90045572916668,6.638446618344275L219.11516927083335,-2.12482421572399L219.3298828125,-6.0192724788373L219.54459635416666,9.442832210228023L219.75930989583333,10.978793977445758L219.9740234375,-1.3117130079454975L220.18873697916666,14.883771881214296L220.40345052083333,26.91379620616564L220.6181640625,16.020707689239625L220.83287760416667,8.842739181546916L221.04759114583334,13.636612508409048L221.2623046875,-1.7990105993481509L223.40944010416666,-2.023242330143817L223.62415364583333,2.0828882763297454L223.8388671875,-2.890233886947528L226.20071614583333,-3.239881151951226L226.4154296875,5.091874542814525L226.6301432291667,3.954738877160636L226.84485677083333,19.273780988244496L227.0595703125,20.455084729883787L227.27428385416667,27.66583753566154L227.48899739583334,10.540297378735781L227.7037109375,16.674486973067896L227.91842447916667,23.326580258283474L228.13313802083331,20.789927618907747L228.34785156249998,24.799003237090556L228.56256510416668,15.831966159738151L228.77727864583335,22.714373803352245L228.99199218750002,1.783913091293907L229.20670572916666,17.368578366966446L229.42141927083333,19.055709613311482L229.6361328125,31.743418458780305L229.85084635416666,24.093896020091425L230.06555989583333,41.45688694669254L230.2802734375,37.5201927671951L230.49498697916667,36.61683505752545L230.70970052083334,28.251729346672423L230.9244140625,36.26987538753536L231.13912760416667,28.905739976622947L231.35384114583334,28.69368798436996L231.5685546875,23.45247513259921L231.78326822916665,23.015880171868243L231.99798177083332,42.350338099205956L232.2126953125,39.09811541527254L232.42740885416666,40.708218036273585L232.64212239583335,46.80223622608674L232.85683593750002,33.500604312053326L233.07154947916666,32.94648306642835L233.28626302083333,43.47264765654129L233.5009765625,37.95864537206246L233.71569010416667,35.995267412970705L233.93040364583334,31.642605365286773L234.14511718749998,26.889708443728654L234.35983072916665,29.395727183043167L234.57454427083334,34.98541464903051L234.7892578125,31.09727541749306L235.00397135416668,11.824640519070027L235.21868489583335,6.087309618361682L235.4333984375,22.233954025910528L235.64811197916666,25.05391248359548L235.86282552083333,19.274300198207587L236.0775390625,35.27059691289932" style="fill: none;" fill="none"></path></g></g></g></g><g opacity="0.2"><g><g><g><path stroke="rgb(255, 112, 67)" stroke-width="2px" d="M21.578710937500002,160.25248379842378L21.793424479166667,161.04540470241605L22.008138020833332,162.31324699377785L22.222851562499997,164.52995627000928L22.437565104166666,161.33291004263222L22.652278645833334,154.67272712035964L22.8669921875,160.26580209182933L23.081705729166668,159.69523348426446L23.296419270833336,162.003995903893L23.511132812499998,157.9097024710634L23.725846354166666,164.79303615335195L23.94055989583333,158.02184202602635L24.1552734375,162.02453999558034L24.36998697916667,160.75188413774595L24.584700520833334,156.99848116216106L24.799414062500002,155.43995354532336L25.014127604166664,160.2624616213322L25.228841145833332,163.95949168065383L25.4435546875,158.3131643392038L25.658268229166666,158.7288765804663L25.872981770833334,158.7173275872707L26.087695312500003,158.2669802542167L26.302408854166668,158.4529469809853L26.517122395833333,163.8685124014379L26.731835937499998,162.96946815758622L26.946549479166666,157.09332991876784L27.161263020833335,165.21116458902208L27.3759765625,161.59309029455582L27.59069010416667,157.58946507696348L27.805403645833334,160.4324303474904L28.0201171875,163.61826440254046L28.234830729166667,152.35177178528662L28.449544270833332,151.74125424140277L28.6642578125,155.34011587726238L28.878971354166666,159.6003926528546L29.093684895833334,160.84159439480683L29.3083984375,155.78245678013909L29.523111979166664,160.43576091149143L29.737825520833333,161.65571718182989L29.9525390625,151.85618742827612L30.167252604166666,154.80230210852235L30.381966145833335,157.9415815756298L30.5966796875,162.8288781363696L30.811393229166665,165.25743287922634L31.026106770833334,157.54565062585215L31.2408203125,159.4093438935681L31.455533854166667,153.15576518001035L31.670247395833332,161.76987171810694L31.8849609375,157.17151000497577L32.099674479166666,155.095221348877L32.314388020833334,164.08406884151583L32.5291015625,150.03231034983094L32.743815104166664,158.56272482726936L32.95852864583333,158.6979722751197L33.1732421875,147.87523025514272L33.38795572916666,151.00653895545895L33.60266927083333,151.69808173124105L33.8173828125,157.34387709384856L34.03209635416667,163.89528371659645L34.24680989583333,150.43845885972348L34.4615234375,153.01363866124302L34.67623697916667,146.64005661608937L34.89095052083333,164.59862611992642L35.105664062500004,148.9152934714937L35.320377604166666,146.40847839981032L35.535091145833334,148.09127112288172L35.7498046875,158.39442732700934L35.964518229166664,158.08459571645093L36.17923177083333,163.76994375553195L36.393945312499994,149.91323228497416L36.60865885416667,151.90687104380834L36.82337239583333,160.8568900248412L37.0380859375,155.48471109486687L37.25279947916667,147.37733570323326L37.46751302083333,143.33546348535813L37.6822265625,158.40366414400677L37.89694010416667,144.39000999906028L38.111653645833336,152.12257509067868L38.3263671875,151.6696520686293L38.54108072916667,147.004817766424L38.755794270833334,143.68003915916555L38.970507812499996,143.38904177906136L39.185221354166664,137.97623928038118L39.39993489583333,149.08170477488937L39.6146484375,145.43823022432983L39.82936197916666,156.82208609195928L40.04407552083334,146.54528314885323L40.2587890625,144.00239258084017L40.47350260416666,143.25963520133294L40.68821614583334,144.93683669798506L40.9029296875,152.27611389299494L41.11764322916667,155.8393596939456L41.332356770833336,141.61133689780792L41.547070312500004,150.2203396090951L41.761783854166666,136.9676113575697L41.97649739583333,152.31387943756553L42.1912109375,156.99354772708523L42.405924479166664,137.99754220967253L42.62063802083333,152.9717163508937L42.8353515625,142.85922255270327L43.05006510416667,135.52205940396883L43.26477864583333,145.31359461514066L43.4794921875,122.87393253683472L43.69420572916667,136.82895211245005L43.90891927083333,141.39909219938832L44.123632812500006,132.87399751037503L44.33834635416667,144.70834138330358L44.553059895833336,124.50122510595247L44.7677734375,135.31043287090813L44.982486979166666,132.9644041941143L45.197200520833334,160.63060385879808L45.411914062499996,158.28739754275347L45.62662760416667,129.9940562430196L45.84134114583333,136.6877251035319L46.0560546875,134.98181061847853L46.27076822916667,138.114882675107L46.48548177083333,140.18429820418643L46.7001953125,132.38714870165748L46.91490885416667,138.64942928142128L47.12962239583334,140.73310620233846L47.3443359375,114.95536109246314L47.55904947916667,144.99229128205647L47.773763020833336,128.76173963745197L47.9884765625,141.89982199049194L48.203190104166666,139.92758126331208L48.417903645833334,123.53987494530156L48.6326171875,129.87062922635903L48.847330729166664,121.23928142238694L49.06204427083333,138.75547634126045L49.2767578125,127.15863476930043L49.49147135416666,135.36521183194307L49.70618489583333,133.7605338122051L49.9208984375,128.41646654631657L50.13561197916667,138.42820929750226L50.35032552083333,126.30482953070447L50.5650390625,145.01070151447604L50.77975260416667,136.93836738097554L50.99446614583333,135.0799919203855L51.209179687500004,142.2384735796099L51.423893229166666,137.876853348544L51.638606770833334,124.66184507170692L51.8533203125,147.76598735965L52.068033854166664,136.95918687325542L52.28274739583333,139.39535673969212L52.497460937499994,139.93890240709655L52.71217447916667,155.68247051463607L52.92688802083333,122.54564710527373L53.1416015625,129.41916245924165L53.35631510416667,161.70884869255735L53.57102864583333,136.6418501012242L53.7857421875,130.34673543066646L54.00045572916667,121.35641187010333L54.215169270833336,136.62916978616985L54.4298828125,151.51252315211323L54.64459635416667,142.824938150875L54.859309895833334,106.16438397235021L55.074023437499996,90.54162558519208L55.288736979166664,143.82905069274756L55.50345052083333,121.46797882958961L55.7181640625,141.61117839386972L55.93287760416666,124.18025859373694L56.14759114583334,125.93327252402042L56.3623046875,150.86711294753835L56.57701822916666,144.9148284261688L56.79173177083334,129.9538002053204L57.0064453125,129.8533126711129L57.22115885416667,135.71262868884233L57.435872395833336,105.46680021522424L57.650585937500004,136.78403605896835L57.865299479166666,125.75866062312315L58.08001302083333,136.35737912077457L58.2947265625,112.4188225697726L58.509440104166664,131.97008917692045L58.72415364583333,146.5663958734188L58.9388671875,138.21270734315308L59.15358072916667,133.2701622534615L59.36829427083333,115.43023096605276L59.5830078125,147.38145482432668L59.79772135416667,134.77054468187717L60.01243489583333,130.22818241010492L60.227148437500006,135.09044525510845L60.44186197916667,147.89932879764373L60.656575520833336,148.5382522285486L60.8712890625,107.62029812090958L61.086002604166666,119.13757467850184L61.300716145833334,130.9133473836745L61.515429687499996,130.91052997617336L61.73014322916667,130.7977187607724L61.94485677083333,132.5111621828893L62.1595703125,116.26359315922198L62.37428385416667,122.68744472836933L62.58899739583333,127.97357087965625L62.8037109375,124.89089911277047L63.01842447916667,128.73228168054123L63.23313802083334,145.95091517497067L63.4478515625,147.4369014832012L63.66256510416667,130.34662051531126L63.877278645833336,152.5573791312949L64.0919921875,115.39332728664606L64.30670572916667,93.66708549018949L64.52141927083333,134.26572945176696L64.73613281249999,119.83167134898787L64.95084635416667,122.13903299006274L65.16555989583334,135.90242526701724L65.3802734375,111.739708484043L65.59498697916666,121.88002566728169L65.80970052083333,137.8056771551044L66.0244140625,84.26541647186072L66.23912760416667,93.84712218837096L66.45384114583334,143.31937929823135L66.66855468749999,137.66970851433535L66.88326822916666,135.28817495538925L67.09798177083334,123.74615593304715L67.3126953125,97.88067493079087L67.52740885416667,130.22370467385133L67.74212239583333,70.70067321802847L67.9568359375,80.94605869928805L68.17154947916667,137.33853831109948L68.38626302083334,98.85790718604737L68.6009765625,103.94163569607413L68.81569010416666,78.17961021426777L69.03040364583335,98.96710054905942L69.2451171875,124.41016855606667L69.45983072916667,84.41765950448237L69.67454427083334,108.00985324977395L69.88925781249999,121.06942067703662L70.10397135416667,90.00376624656984L70.31868489583333,128.0550696420698L70.5333984375,123.87615293794526L70.74811197916667,136.15193820390132L70.96282552083333,74.58432086091489L71.1775390625,108.57042620273737L71.39225260416667,138.32672715108268L71.60696614583333,130.80552507972774L71.8216796875,96.83905837584572L72.03639322916668,107.94731552096513L72.25110677083333,128.99232324151893L72.4658203125,99.97288728877902L72.68053385416667,105.51297241241599L72.89524739583332,104.70763767811542L73.1099609375,128.21333186174382L73.32467447916667,103.1032687410569L73.53938802083333,110.90850194443303L73.7541015625,100.99428666640931L73.96881510416667,89.37422823010442L74.18352864583333,126.95812332490459L74.3982421875,121.11462203760703L74.61295572916667,103.09501068587772L74.82766927083333,125.36756800605843L75.04238281250001,110.64036083221436L75.25709635416666,133.32267064558198L75.47180989583333,118.05414874726333L75.6865234375,121.98858105194253L75.90123697916665,75.52793443088348L76.11595052083334,123.54840245717564L76.3306640625,98.04722294383323L76.54537760416666,128.85516978381202L76.76009114583333,112.64138983716614L76.9748046875,105.83564680456541L77.18951822916667,118.77403797108965L77.40423177083333,103.14123043425096L77.6189453125,145.60054023832512L77.83365885416666,119.93246796587482L78.04837239583334,88.86287867514274L78.26308593750001,142.34486934811306L78.47779947916666,147.32237644396866L78.69251302083333,129.2644388399875L78.9072265625,65.36413092660503L79.12194010416667,100.25349473573553L79.33665364583334,132.45045121196802L79.5513671875,96.51308710178218L79.76608072916666,113.68639837638833L79.98079427083333,116.17255642232843L80.19550781250001,103.52270186226815L80.41022135416667,115.24286742332893L80.62493489583333,148.84019628688333L80.83964843749999,158.0887802204189L81.05436197916667,112.50269492866042L81.26907552083334,129.14335768161197L81.4837890625,93.81994668817005L81.69850260416666,109.80495790084107L81.91321614583333,84.58580048210345L82.1279296875,107.25027067722895L82.34264322916667,75.60972246298424L82.55735677083334,129.30990965725283L82.77207031249999,131.95624385792044L82.98678385416666,66.877811835434L83.20149739583334,83.55680084063744L83.4162109375,102.3552490308021L83.63092447916667,88.91616769915876L83.84563802083333,112.94737376462525L84.0603515625,124.58130525811934L84.27506510416667,112.80664604311235L84.48977864583334,106.99182208082996L84.7044921875,132.2242660921855L84.91920572916666,153.54852406972518L85.13391927083335,113.97253761078733L85.3486328125,124.94272197535834L85.56334635416667,94.97745339751529L85.77805989583334,100.21079377478992L85.99277343749999,135.54965493960592L86.20748697916667,90.29971687474215L86.42220052083333,40.93857102554578L86.6369140625,93.98306309095082L86.85162760416667,94.254295029964L87.06634114583333,113.49255994778986L87.2810546875,108.62708343543972L87.49576822916667,111.96518033610371L87.71048177083333,68.90015565747252L87.9251953125,156.61285494966432L88.13990885416668,105.44129693157112L88.35462239583333,99.46755295827126L88.5693359375,89.33111515891953L88.78404947916667,47.15435051244612L88.99876302083332,149.4493388091035L89.2134765625,124.66907285128792L89.42819010416667,83.9988366234331L89.64290364583333,89.46183335673636L89.8576171875,133.0234865370708L90.07233072916667,138.06389988339146L90.28704427083333,90.93319371407135L90.5017578125,136.51531244477687L90.71647135416667,117.95476281542616L90.93118489583333,96.37022750230076L91.14589843750001,105.96244202991231L91.36061197916666,115.6660095366936L91.57532552083333,121.55902745427849L91.7900390625,114.04399514871722L92.00475260416665,112.1398675263716L92.21946614583334,122.1184869170762L92.4341796875,115.94736195215955L92.64889322916666,110.32919382597677L92.86360677083333,107.90353673323989L93.0783203125,104.45238293607073L93.29303385416667,105.20645749676399L93.50774739583333,128.6309104868784L93.7224609375,116.7114935877303L93.93717447916666,120.46917418834681L94.15188802083334,117.4131786342567L94.36660156250001,110.95479698217689L94.58131510416666,100.30227432271036L94.79602864583333,118.4991128903169L95.0107421875,126.1235485766083L95.22545572916667,136.96247582997268L95.44016927083334,80.87541349404133L95.6548828125,87.78796836798294L95.86959635416666,66.94413780836531L96.08430989583333,81.99416599050164L96.29902343750001,111.24469672250919L96.51373697916667,75.4746057808829L96.72845052083333,69.0834654619774L96.94316406249999,85.95483069694959L97.15787760416667,71.73600509182478L97.37259114583334,115.94830108799326L97.5873046875,63.393348435656385L97.80201822916666,65.95290173017061L98.01673177083333,31.24147444204068L98.2314453125,74.02083936068587L98.44615885416667,115.61909237099238L98.66087239583334,75.35728116584225L98.87558593749999,96.13730596514561L99.09029947916666,91.34474126435816L99.30501302083334,110.17227492717883L99.5197265625,102.13527726539625L99.73444010416667,86.39098598363881L99.94915364583333,118.32109711734721L100.1638671875,89.42483061236831L100.37858072916667,138.74768587269892L100.59329427083334,139.39007855855073L100.8080078125,116.55768136612068L101.02272135416666,115.0847359694039L101.23743489583335,146.18455988634378L101.4521484375,114.06705350912391L101.66686197916667,120.66446292797963L101.88157552083334,68.96496791779421L102.09628906249999,108.01586847422787L102.31100260416667,106.85871839874352L102.52571614583333,103.45612228303574L102.7404296875,102.3178579517855L102.95514322916667,77.59899443832154L103.16985677083333,68.54180202883883L103.3845703125,102.38271776328867L103.59928385416667,117.04684036973721L103.81399739583333,67.88124479167163L104.0287109375,54.44960521992582L104.24342447916668,60.4144650474907L104.45813802083333,84.93763959887795L104.6728515625,73.73118133885929L104.88756510416667,97.06121749559847L105.10227864583332,103.27832841557952L105.3169921875,82.69423825945705L105.53170572916667,115.8796451071707L105.74641927083333,92.29169926742235L105.9611328125,84.50117522950927L106.17584635416667,107.7154718105896L106.39055989583333,109.20364151056856L106.6052734375,104.99709757001928L106.81998697916667,97.63254494076737L107.03470052083333,128.54836559847283L107.24941406250001,139.40298077911856L107.46412760416666,113.71368086674752L107.67884114583333,89.57373713709129L107.8935546875,87.2563857853126L108.10826822916665,85.91001370842926L108.32298177083334,129.8008637179692L108.5376953125,116.9709090581522L108.75240885416666,61.9388449721468L108.96712239583333,127.48157861814475L109.1818359375,113.86589219858153L109.39654947916667,27.148696703119917L109.61126302083333,97.97527800629345L109.8259765625,104.18157895769065L110.04069010416666,75.30091716542552L110.25540364583334,100.83325459041559L110.47011718750001,61.98779098825672L110.68483072916666,107.40677746578766L110.89954427083333,54.78373152160874L111.1142578125,92.06709126182473L111.32897135416667,76.0923986555292L111.54368489583334,118.7719100557196L111.7583984375,109.65483882099105L111.97311197916666,138.08557529693755L112.18782552083333,104.45039371164658L112.40253906250001,128.1681859775518L112.61725260416667,77.16717423434154L112.83196614583333,107.75721382270925L113.04667968749999,84.96608313058431L113.26139322916667,48.889604076456564L113.47610677083334,59.42677945751123L113.6908203125,116.11864923295349L113.90553385416666,20.24087317173298L114.12024739583333,96.26407741490178L114.3349609375,53.730393600435214L114.54967447916667,91.91842249300903L114.76438802083334,88.16581798101274L114.97910156249999,31.31863415914659L115.19381510416666,63.09211170114577L115.40852864583334,62.25574189574958L115.6232421875,52.67723003359369L115.83795572916667,124.58582262035745L116.05266927083333,114.64003335784835L116.2673828125,55.40828458921841L116.48209635416667,89.80153899704321L116.69680989583334,93.61680804099888L116.9115234375,96.4894066134181L117.12623697916666,94.59322400097376L117.34095052083335,119.83501578208345L117.5556640625,95.34015003405511L117.77037760416667,116.24410510002276L117.98509114583334,71.66417110704171L118.19980468749999,89.8730559739499L118.41451822916667,90.30008935899689L118.62923177083333,100.74053771177736L118.8439453125,118.01657538871783L119.05865885416667,93.06452484400226L119.27337239583333,91.45618538329235L119.4880859375,106.18239001972744L119.70279947916667,112.19149225903675L119.91751302083333,106.00715599087282L120.1322265625,68.02215479271344L120.34694010416668,99.98987098575496L120.56165364583333,115.58463757743056L120.7763671875,56.84925974160433L120.99108072916667,82.67650959397164L121.20579427083332,76.11780683681941L121.4205078125,92.41341444155059L121.63522135416667,58.51215625783571L121.84993489583333,77.26084213660887L122.0646484375,76.71104745144167L122.27936197916667,51.72062706589125L122.49407552083333,76.55415232823445L122.7087890625,108.13957287278026L122.92350260416667,61.38706106255546L123.13821614583333,118.78527590030662L123.35292968750001,86.2874670616136L123.56764322916666,77.33982464900383L123.78235677083333,77.19810627787732L123.9970703125,114.33574145992932L124.21178385416665,138.32046228292612L124.42649739583334,74.79234142938198L124.6412109375,99.58338763629301L124.85592447916666,112.78118238544377L125.07063802083333,108.49106328089076L125.2853515625,117.85353031270921L125.50006510416667,86.58784787485806L125.71477864583333,72.90449612408588L125.9294921875,102.49887737438368L126.14420572916666,66.35272791422904L126.35891927083334,86.32190996738008L126.57363281250001,119.32174040427289L126.78834635416666,51.614572080855176L127.00305989583333,76.79278793236098L127.2177734375,57.44558325782418L127.43248697916667,73.32383414293425L127.64720052083334,87.58786507122791L127.8619140625,114.6992940177353L128.07662760416667,109.44948904388225L128.29134114583334,105.29089254463234L128.5060546875,117.10191256305775L128.72076822916665,100.86291860244594L128.93548177083332,120.49004915700509L129.1501953125,95.70749876118049L129.36490885416666,89.35531078508266L129.57962239583333,71.15236981585622L129.7943359375,91.28836141354762L130.0090494791667,88.89080706905L130.22376302083333,106.15588023606688L130.4384765625,78.67909574945672L130.65319010416667,110.92981676151976L130.86790364583334,65.19923927971662L131.0826171875,55.38732244339412L131.29733072916667,124.05020214986199L131.51204427083331,96.11292013425665L131.72675781249998,131.69898800365627L131.94147135416668,118.29866881009477L132.15618489583335,93.16164813212191L132.37089843750002,110.3405110071628L132.58561197916666,99.1758977868236L132.80032552083333,85.38568268093066L133.0150390625,43.07561622244806L133.22975260416666,100.824077212395L133.44446614583333,104.46603805034493L133.6591796875,49.40198390701643L133.87389322916667,51.869359236282214L134.08860677083334,77.26759440437532L134.3033203125,107.37527480807441L134.51803385416667,50.31249392949616L134.73274739583334,107.73672718869952L134.9474609375,100.65258387648142L135.16217447916665,110.52475598490295L135.37688802083332,109.06217674574313L135.5916015625,100.4430416702078L135.80631510416666,64.5359240740251L136.02102864583335,128.99820770022387L136.23574218750002,56.29295846977486L136.45045572916666,85.89547097210126L136.66516927083333,94.79324012056279L136.8798828125,96.28104526148392L137.09459635416667,117.29705864914621L137.30930989583334,83.56116762413428L137.52402343749998,95.0158113505548L137.73873697916665,95.37563906581356L137.95345052083334,141.16167707558577L138.1681640625,15.97434341577956L138.38287760416668,101.12002784056732L138.59759114583335,47.79481737544903L138.8123046875,118.86082283984153L139.02701822916666,125.62206589179829L139.24173177083333,77.40095961795977L139.4564453125,73.22991263436583L139.67115885416666,84.0613505766512L139.88587239583333,12.075875654673336L140.1005859375,36.03036977665928L140.31529947916667,128.30916730536578L140.53001302083334,79.64448776053122L140.7447265625,67.40515443775803L140.95944010416667,121.46106409528652L141.17415364583334,101.63159930104247L141.38886718749998,48.1261698582138L141.60358072916665,53.07531267433211L141.81829427083332,101.40886164191537L142.03300781250002,15.46446794744293L142.24772135416669,5.21793331263156L142.46243489583333,87.90354943970361L142.6771484375,79.0699823114018L142.89186197916666,30.943835746926755L143.10657552083333,55.6999080598784L143.3212890625,90.22998306713998L143.53600260416667,137.1643187074492L143.7507161458333,25.110859121124324L143.9654296875,53.64136986355655L144.18014322916667,61.18395411617194L144.39485677083334,67.01911809632124L144.6095703125,14.399638490751386L144.82428385416668,21.803008734463496L145.03899739583332,68.84870527913937L145.2537109375,89.42907851791152L145.46842447916666,26.72991344805519L145.68313802083333,43.831410550870565L145.8978515625,41.51094459670667L146.1125651041667,80.13393999643336L146.32727864583333,90.37934132808677L146.5419921875,36.944255933022255L146.75670572916667,38.55800037802412L146.97141927083334,58.31554004772064L147.1861328125,35.31713375563805L147.40084635416667,11.482658815641802L147.61555989583331,103.5111072991903L147.83027343749998,69.20396015578164L148.04498697916668,98.52763253006225L148.25970052083335,77.88522084988654L148.47441406250002,109.73213326644438L148.68912760416666,46.488443767365354L148.90384114583333,65.69194084635147L149.1185546875,71.19537985948129L149.33326822916666,41.19132140536721L149.54798177083333,108.25630309805274L149.7626953125,78.74053187589519L149.97740885416667,38.06166114600804L150.19212239583334,122.691129944932L150.4068359375,129.03431489734123L150.62154947916667,18.987883690028234L150.83626302083334,85.28091157779383L151.0509765625,40.879369804635644L151.26569010416665,25.70715093655655L151.48040364583332,33.218192905474154L151.6951171875,86.13121387935601L151.90983072916666,112.21115070996949L152.12454427083335,68.73465377042213L152.33925781250002,113.63824884256778L152.55397135416666,125.02157768460276L152.76868489583333,38.47942997586842L152.9833984375,19.755882821690573L153.19811197916667,-24.743749113610185L153.41282552083334,99.89493505198223L153.62753906249998,35.48697072539765L153.84225260416665,99.99514916689637L154.05696614583334,92.05918984050646L154.2716796875,110.13440041115078L154.48639322916668,78.73977898218884L154.70110677083335,53.23605151804021L154.9158203125,9.12865342815907L155.13053385416666,20.017287516536605L155.34524739583333,116.70027150890718L155.5599609375,82.87738956002376L155.77467447916666,77.76999641202676L155.98938802083333,102.39963013349244L156.2041015625,86.95027505470297L156.41881510416667,94.27388611672303L156.63352864583334,52.2958774835301L156.8482421875,71.65831438652597L157.06295572916667,25.143701137115162L157.27766927083334,68.07540419074492L157.49238281249998,44.17078333290723L157.70709635416665,94.92354620814038L157.92180989583332,37.70567715125016L158.13652343750002,57.66564220039603L158.35123697916669,84.118578423531L158.56595052083333,80.79784959189305L158.7806640625,28.65367574574281L158.99537760416666,84.89140400011092L159.21009114583333,106.28907902051623L159.4248046875,-29.750333756924842L159.63951822916667,69.24276984504496L159.8542317708333,56.71573602408171L160.0689453125,47.79462717072322L160.28365885416667,78.77617941159181L160.49837239583334,84.53543585574684L160.7130859375,66.299264535881L160.92779947916668,46.22802972213294L161.14251302083332,104.41664029801122L161.3572265625,103.61778044958527L161.57194010416666,46.792367143628105L161.78665364583333,70.29338942367869L162.0013671875,46.380264829557674L162.2160807291667,84.08017291931004L162.43079427083333,87.1525023042296L162.6455078125,110.66962858439925L162.86022135416667,81.30262915861721L163.07493489583334,104.79983149375767L163.2896484375,52.4048647914225L163.50436197916667,148.3703985393155L163.71907552083331,25.53940621878092L163.93378906249998,69.81689488472274L164.14850260416668,23.000252381110414L164.36321614583335,119.09265862502015L164.57792968750002,69.68341871838157L164.79264322916666,-1.4055658544485627L165.00735677083333,65.33746263900629L165.2220703125,17.9707005171535L165.43678385416666,39.80184418249588L165.65149739583333,102.75198438806602L165.8662109375,63.41737763268442L166.08092447916667,87.11308237480429L166.29563802083334,6.766833796524075L166.5103515625,37.82935777421181L166.72506510416667,76.23094694789211L166.93977864583334,48.43862867154753L167.1544921875,16.651472239683446L167.36920572916665,123.6013229595354L167.58391927083332,75.58115212812731L167.7986328125,90.15040616497683L168.01334635416666,133.2295892078859L168.22805989583335,88.70679192202023L168.44277343750002,103.3739934674679L168.65748697916666,58.70242438522668L168.87220052083333,52.161307640015494L169.0869140625,150.91930829438095L169.30162760416667,74.39015353664468L169.51634114583334,-6.874775942128453L169.73105468749998,107.11764250695705L169.94576822916665,126.78337273306141L170.16048177083334,38.42782109359708L170.3751953125,87.93330062889994L170.58990885416668,48.962175104552166L170.80462239583335,111.16587667665085L171.0193359375,93.28178619206524L171.23404947916666,74.61844675880498L171.44876302083333,107.44347112747624L171.6634765625,86.4773072283715L171.87819010416666,-29.03376915320182L172.09290364583333,67.32154361036821L172.3076171875,21.39701674720987L172.52233072916667,109.76538739267451L172.73704427083334,43.04978008052477L172.9517578125,42.92251726856024L173.16647135416667,86.68123047003665L173.38118489583334,85.3411906254836L173.59589843749998,-39.45917548224906L173.81061197916665,53.69297082063097L174.02532552083332,85.16521955331645L174.24003906250002,109.36449923223027L174.45475260416669,28.36939893261744L174.66946614583333,1.7184675151052309L174.8841796875,16.727046917407556L175.09889322916666,27.005979757182864L175.31360677083333,-8.962605666225947L175.5283203125,81.62676178699789L175.74303385416667,-72.3160432921006L175.9577473958333,9.740684684652534L176.1724609375,61.50666020910899L176.38717447916667,110.3821341413288L176.60188802083334,-12.649343866711654L176.8166015625,-11.297051667737277L177.03131510416668,38.28396291930515L177.24602864583332,38.09385329585235L177.4607421875,-4.329392899687468L177.67545572916666,30.65019135105495L177.89016927083333,-36.420401381042154L178.1048828125,29.76250589567308L178.3195963541667,17.188610385386987L178.53430989583333,-7.6441699084467585L178.7490234375,109.78535888888514L178.96373697916667,52.72773731349465L179.17845052083334,-34.05939011949188L179.3931640625,112.00977541911057L179.60787760416667,69.40108357849888L179.82259114583331,-51.21113297071022L180.03730468749998,79.34013642363536L180.25201822916668,2.8445904446908954L180.46673177083335,112.87350300423658L180.68144531250002,-15.251296964688962L180.89615885416666,35.779632396852726L181.11087239583333,55.67285143763113L181.3255859375,49.12571154276912L181.54029947916666,126.95823031506285L181.75501302083333,22.34623343139313L181.9697265625,61.39515268859954L182.18444010416667,54.74900330875355L182.39915364583334,-6.7752037681639194L182.6138671875,-15.178385153126273L182.82858072916667,16.23730144921976L183.04329427083334,81.18431389396294L183.2580078125,1.4745933558218587L183.47272135416665,41.90810791460366L183.68743489583332,-39.899848131176384L183.9021484375,25.12872251495719L184.11686197916666,121.1871415519227L184.33157552083335,106.75844088225409L184.54628906250002,77.06667481233866L184.76100260416666,-0.523760895173131L184.97571614583333,74.22225031493089L185.1904296875,45.69990252531491L185.40514322916667,93.93590024414544L185.61985677083334,-0.2690133657306433L185.83457031249998,32.47333534878607L186.04928385416665,69.72524790766721L186.26399739583334,18.239459794731097L186.4787109375,32.37376317482154L186.69342447916668,-3.4758174918018883L186.90813802083335,68.03164125341348L187.1228515625,5.945070129031165L187.33756510416666,48.12068562195277L187.55227864583333,109.92864644899964L187.7669921875,64.9890947584779L187.98170572916666,10.814025802824345L188.19641927083333,108.22829545217638L188.4111328125,85.36615499574691L188.62584635416667,92.38887010672345L188.84055989583334,63.67569942593287L189.0552734375,76.83845291695056L189.26998697916667,101.09957290734522L189.48470052083334,15.912764635796725L189.69941406249998,-0.713791266656848L189.91412760416665,-8.200613833820618L190.12884114583332,90.87503069395629L190.34355468750002,68.33833052339749L190.55826822916669,32.93589739157602L190.77298177083333,23.65580881902803L190.9876953125,23.15319283106005L191.20240885416666,30.57439476781739L191.41712239583333,110.05113036722804L191.6318359375,42.8557237090113L191.84654947916667,-42.80983778261224L192.0612630208333,137.95276484713676L192.2759765625,47.39873980952856L192.49069010416667,6.419298061671149L192.70540364583334,87.0277280040945L192.9201171875,123.84075900854972L193.13483072916668,14.952690431848168L193.34954427083332,97.20934735102436L193.5642578125,31.863951108060192L193.77897135416666,46.070746264277155L193.99368489583333,55.97438932962428L194.2083984375,-9.837182845920324L194.4231119791667,93.80512656995022L194.63782552083333,22.102200768171592L194.8525390625,46.97444061741519L195.06725260416667,45.33849769587126L195.28196614583334,12.23994308108319L195.4966796875,71.2406168834378L195.71139322916667,107.6369727352061L195.92610677083331,41.185678665168L196.14082031249998,35.261736629244226L196.35553385416668,10.220048144889562L196.57024739583335,35.19486381772618L196.78496093750002,7.69897960656537L196.99967447916666,-1.7044091794926568L197.21438802083333,64.60641870053054L197.4291015625,72.64630905918489L197.64381510416666,-25.205138227257613L197.85852864583333,81.93107349790918L198.0732421875,28.441312169369592L198.28795572916667,-12.380283431651504L198.50266927083334,-0.7266617864370346L198.7173828125,31.237622796342926L198.93209635416667,-14.642023676719818L199.14680989583334,82.07820477852455L199.3615234375,11.942954252115799L199.57623697916665,-53.07368104747284L199.79095052083332,19.44960566194583L200.0056640625,-39.67998731852725L200.22037760416666,6.519678605720401L200.43509114583335,-11.968712105773953L200.64980468750002,-20.136039630724852L200.86451822916666,87.1944899974534L201.07923177083333,-17.025447395128698L201.2939453125,104.23314821397743L201.50865885416667,48.13004527950228L201.72337239583334,41.02875976637006L201.93808593749998,114.29677722932628L202.15279947916665,54.171636863539995L202.36751302083334,114.3118826546348L202.5822265625,127.07340720174118L202.79694010416668,59.55253648206304L203.01165364583335,112.87853946687224L203.2263671875,108.83069759442543L203.44108072916666,45.11011729654496L203.65579427083333,89.31129424145016L203.8705078125,57.18961524805769L204.08522135416666,52.281406073974296L204.29993489583333,35.84006994848068L204.5146484375,-19.13418378867209L204.72936197916667,81.80446847728811L204.94407552083334,81.47816434495437L205.1587890625,-63.86434385166148L205.37350260416667,50.567455439255205L205.58821614583334,2.3023484721779823L205.80292968749998,13.126519008897809L206.01764322916665,55.00943320437978L206.23235677083332,5.385963337495923L206.44707031250002,56.3804764192408L206.66178385416669,26.16931671950106L206.87649739583333,32.359767277080266L207.0912109375,13.633731611073017L207.30592447916666,9.54076366742642L207.52063802083333,96.09036502385369L207.7353515625,-14.468747171501695L207.95006510416667,-27.521879338874285L208.1647786458333,95.67884124915761L208.3794921875,24.85023109557536L208.59420572916667,92.37282158298275L208.80891927083334,48.243740154358626L209.0236328125,46.09342025263378L209.23834635416668,89.41479731308154L209.45305989583332,69.33191245987723L209.6677734375,30.421818876925553L209.88248697916666,0.7741644530055494L210.09720052083333,8.868294859305024L210.3119140625,-0.05137160821605313L210.5266276041667,-36.767223848173266L210.74134114583333,59.14558554598345L210.9560546875,-67.71906452583006L211.17076822916667,138.40873708869688L211.38548177083334,2.884660240262747L211.6001953125,59.731907463704154L211.81490885416667,21.27151332895915L212.02962239583331,104.16473791425905L212.24433593749998,35.114106061223595L212.45904947916668,94.71698387590452L212.67376302083335,15.483837128688496L212.88847656250002,119.77898463993692L213.10319010416666,48.47838938443993L213.31790364583333,83.89226650059796L213.5326171875,-22.500300223007798L213.74733072916666,47.26660300146501L213.96204427083333,46.09962568181351L214.1767578125,21.995036255568266L214.39147135416667,26.077733144020794L214.60618489583334,-75.59788318250614L214.8208984375,66.49816320270585L215.03561197916667,50.031260391983835L215.25032552083334,97.97560293936672L215.4650390625,22.237578981770916L215.67975260416665,23.65092689773211L215.89446614583332,52.746361526230785L216.1091796875,105.27681739492199L216.32389322916666,12.6890481395217L216.53860677083335,-6.124243944453508L216.75332031250002,-19.505083004012704L216.96803385416666,9.101834561819059L217.18274739583333,12.582993154485624L217.3974609375,59.5677449349314L217.61217447916667,47.00468316881989L217.82688802083334,67.12367521914152L218.04160156249998,0.4117134975699157L218.25631510416665,-13.915695230404912L218.47102864583334,14.02412681080973L218.6857421875,-63.64283459805528L218.90045572916668,19.162745234628122L219.11516927083335,-37.177907551996974L219.3298828125,-21.597065531290504L219.54459635416666,71.29125096648932L219.75930989583333,17.12264104631658L219.9740234375,-50.4737409495104L220.18873697916666,79.66571143785349L220.40345052083333,75.03389350597101L220.6181640625,-27.551646378464433L220.83287760416667,-19.869134849223975L221.04759114583334,32.81210581585765L221.2623046875,-63.541503030376944L221.47701822916667,2.804901058570698L221.69173177083334,-213.35579565769208L221.90644531249998,5.220073115796999L222.12115885416665,14.23460419031863L222.33587239583332,-14.256351894340845L222.55058593750002,49.05069955402554L222.76529947916669,-117.71876726557431L222.98001302083333,-28.141899193852012L223.1947265625,67.17052898326746L223.40944010416666,30.568831279587283L223.62415364583333,18.507410702223954L223.8388671875,-22.782722540056504L224.4830078125,-25.505947001135148L224.69772135416667,2.4816481270469124L224.91243489583334,-136.61399003519463L225.1271484375,-78.56735936194086L225.34186197916668,28.42490701176798L225.55657552083332,16.690543460444765L225.7712890625,-35.93853355858189L225.98600260416666,40.85185352096763L226.20071614583333,29.891020888749207L226.4154296875,38.418897321877566L226.6301432291667,-0.5938037854547835L226.84485677083333,80.54994943257994L227.0595703125,25.180299696440873L227.27428385416667,56.50884875877258L227.48899739583334,-57.96186324896724L227.7037109375,41.21124535039639L227.91842447916667,49.934953399145826L228.13313802083331,10.643317061404764L228.34785156249998,40.83530570982167L228.56256510416668,-20.036182149671582L228.77727864583335,50.24400437780871L228.99199218750002,-81.93792975693941L229.20670572916666,79.70723946965657L229.42141927083333,25.80423459869164L229.6361328125,82.49425384065566L229.85084635416666,-6.504193734664208L230.06555989583333,110.90885065309703L230.2802734375,21.77341604920533L230.49498697916667,33.00340421884678L230.70970052083334,-5.208693496739662L230.9244140625,68.34245955098706L231.13912760416667,-0.5508016670266114L231.35384114583334,27.84548001535809L231.5685546875,2.487623725516289L231.78326822916665,21.269500328944282L231.99798177083332,119.68816980855682L232.2126953125,26.08922467953883L232.42740885416666,47.148628520277825L232.64212239583335,71.17830898533933L232.85683593750002,-19.705923344080272L233.07154947916666,30.72999808392845L233.28626302083333,85.57730601699306L233.5009765625,15.90263623414704L233.71569010416667,28.14175557660368L233.93040364583334,14.231957174551024L234.14511718749998,7.878120757496116L234.35983072916665,39.41980214030122L234.57454427083334,57.344164512979866L234.7892578125,15.544718491343348L235.00397135416668,-65.2658990746221L235.21868489583335,-16.86201398447156L235.4333984375,86.82053165610591L235.64811197916666,36.333746314335315L235.86282552083333,-3.844148943344L236.0775390625,99.2557837716662" style="fill: none;" fill="none"></path></g></g></g></g></g></g><g transform="translate(72, 177)" clip-path="url(#clip_1)"><clipPath id="clip_1"><rect width="257" height="23"></rect></clipPath><g><g><line x1="0" y1="0" x2="0" y2="5" style="visibility: inherit;" fill="rgb(0, 0, 0)" stroke="rgb(204, 204, 204)" stroke-width="1px"></line><line x1="21.471354166666664" y1="0" x2="21.471354166666664" y2="5" style="visibility: inherit;" fill="rgb(0, 0, 0)" stroke="rgb(204, 204, 204)" stroke-width="1px"></line><line x1="42.94270833333333" y1="0" x2="42.94270833333333" y2="5" style="visibility: inherit;" fill="rgb(0, 0, 0)" stroke="rgb(204, 204, 204)" stroke-width="1px"></line><line x1="64.4140625" y1="0" x2="64.4140625" y2="5" style="visibility: inherit;" fill="rgb(0, 0, 0)" stroke="rgb(204, 204, 204)" stroke-width="1px"></line><line x1="85.88541666666666" y1="0" x2="85.88541666666666" y2="5" style="visibility: inherit;" fill="rgb(0, 0, 0)" stroke="rgb(204, 204, 204)" stroke-width="1px"></line><line x1="107.35677083333334" y1="0" x2="107.35677083333334" y2="5" style="visibility: inherit;" fill="rgb(0, 0, 0)" stroke="rgb(204, 204, 204)" stroke-width="1px"></line><line x1="128.828125" y1="0" x2="128.828125" y2="5" style="visibility: inherit;" fill="rgb(0, 0, 0)" stroke="rgb(204, 204, 204)" stroke-width="1px"></line><line x1="150.29947916666669" y1="0" x2="150.29947916666669" y2="5" style="visibility: inherit;" fill="rgb(0, 0, 0)" stroke="rgb(204, 204, 204)" stroke-width="1px"></line><line x1="171.77083333333331" y1="0" x2="171.77083333333331" y2="5" style="visibility: inherit;" fill="rgb(0, 0, 0)" stroke="rgb(204, 204, 204)" stroke-width="1px"></line><line x1="193.2421875" y1="0" x2="193.2421875" y2="5" style="visibility: inherit;" fill="rgb(0, 0, 0)" stroke="rgb(204, 204, 204)" stroke-width="1px"></line><line x1="214.71354166666669" y1="0" x2="214.71354166666669" y2="5" style="visibility: inherit;" fill="rgb(0, 0, 0)" stroke="rgb(204, 204, 204)" stroke-width="1px"></line><line x1="236.18489583333331" y1="0" x2="236.18489583333331" y2="5" style="visibility: inherit;" fill="rgb(0, 0, 0)" stroke="rgb(204, 204, 204)" stroke-width="1px"></line><line x1="257.65625" y1="0" x2="257.65625" y2="5" style="visibility: inherit;" fill="rgb(0, 0, 0)" stroke="rgb(204, 204, 204)" stroke-width="1px"></line></g><g transform="translate(0, 8)"><text x="0" y="0" dx="0em" dy="0.95em" style="text-anchor: middle; visibility: hidden; font-family: Roboto, sans-serif; font-size: 12px; font-weight: 200;" fill="rgb(33, 33, 33)" stroke="none" stroke-width="1px">39.8k</text><text x="21.471354166666664" y="0" dx="0em" dy="0.95em" style="text-anchor: middle; visibility: inherit; font-family: Roboto, sans-serif; font-size: 12px; font-weight: 200;" fill="rgb(33, 33, 33)" stroke="none" stroke-width="1px">40k</text><text x="42.94270833333333" y="0" dx="0em" dy="0.95em" style="text-anchor: middle; visibility: hidden; font-family: Roboto, sans-serif; font-size: 12px; font-weight: 200;" fill="rgb(33, 33, 33)" stroke="none" stroke-width="1px">40.2k</text><text x="64.4140625" y="0" dx="0em" dy="0.95em" style="text-anchor: middle; visibility: inherit; font-family: Roboto, sans-serif; font-size: 12px; font-weight: 200;" fill="rgb(33, 33, 33)" stroke="none" stroke-width="1px">40.4k</text><text x="85.88541666666666" y="0" dx="0em" dy="0.95em" style="text-anchor: middle; visibility: hidden; font-family: Roboto, sans-serif; font-size: 12px; font-weight: 200;" fill="rgb(33, 33, 33)" stroke="none" stroke-width="1px">40.6k</text><text x="107.35677083333334" y="0" dx="0em" dy="0.95em" style="text-anchor: middle; visibility: inherit; font-family: Roboto, sans-serif; font-size: 12px; font-weight: 200;" fill="rgb(33, 33, 33)" stroke="none" stroke-width="1px">40.8k</text><text x="128.828125" y="0" dx="0em" dy="0.95em" style="text-anchor: middle; visibility: hidden; font-family: Roboto, sans-serif; font-size: 12px; font-weight: 200;" fill="rgb(33, 33, 33)" stroke="none" stroke-width="1px">41k</text><text x="150.29947916666669" y="0" dx="0em" dy="0.95em" style="text-anchor: middle; visibility: inherit; font-family: Roboto, sans-serif; font-size: 12px; font-weight: 200;" fill="rgb(33, 33, 33)" stroke="none" stroke-width="1px">41.2k</text><text x="171.77083333333331" y="0" dx="0em" dy="0.95em" style="text-anchor: middle; visibility: hidden; font-family: Roboto, sans-serif; font-size: 12px; font-weight: 200;" fill="rgb(33, 33, 33)" stroke="none" stroke-width="1px">41.4k</text><text x="193.2421875" y="0" dx="0em" dy="0.95em" style="text-anchor: middle; visibility: inherit; font-family: Roboto, sans-serif; font-size: 12px; font-weight: 200;" fill="rgb(33, 33, 33)" stroke="none" stroke-width="1px">41.6k</text><text x="214.71354166666669" y="0" dx="0em" dy="0.95em" style="text-anchor: middle; visibility: hidden; font-family: Roboto, sans-serif; font-size: 12px; font-weight: 200;" fill="rgb(33, 33, 33)" stroke="none" stroke-width="1px">41.8k</text><text x="236.18489583333331" y="0" dx="0em" dy="0.95em" style="text-anchor: middle; visibility: inherit; font-family: Roboto, sans-serif; font-size: 12px; font-weight: 200;" fill="rgb(33, 33, 33)" stroke="none" stroke-width="1px">42k</text><text x="257.65625" y="0" dx="0em" dy="0.95em" style="text-anchor: middle; visibility: hidden; font-family: Roboto, sans-serif; font-size: 12px; font-weight: 200;" fill="rgb(33, 33, 33)" stroke="none" stroke-width="1px">42.2k</text></g><line x1="0" y1="0" x2="257.65625" y2="0" fill="rgb(0, 0, 0)" stroke="rgb(204, 204, 204)" stroke-width="1px"></line></g></g></g></g></svg>