<svg viewBox="0 0 330 200" xmlns="http://www.w3.org/2000/svg"><g><g><g><g><g><line x1="61.953125" y1="177" x2="56.953125" y2="177" style="visibility: inherit;" fill="rgb(0, 0, 0)" stroke="rgb(204, 204, 204)" stroke-width="1px"></line><line x1="61.953125" y1="157.33333333333331" x2="56.953125" y2="157.33333333333331" style="visibility: inherit;" fill="rgb(0, 0, 0)" stroke="rgb(204, 204, 204)" stroke-width="1px"></line><line x1="61.953125" y1="137.66666666666666" x2="56.953125" y2="137.66666666666666" style="visibility: inherit;" fill="rgb(0, 0, 0)" stroke="rgb(204, 204, 204)" stroke-width="1px"></line><line x1="61.953125" y1="118" x2="56.953125" y2="118" style="visibility: inherit;" fill="rgb(0, 0, 0)" stroke="rgb(204, 204, 204)" stroke-width="1px"></line><line x1="61.953125" y1="98.33333333333334" x2="56.953125" y2="98.33333333333334" style="visibility: inherit;" fill="rgb(0, 0, 0)" stroke="rgb(204, 204, 204)" stroke-width="1px"></line><line x1="61.953125" y1="78.66666666666666" x2="56.953125" y2="78.66666666666666" style="visibility: inherit;" fill="rgb(0, 0, 0)" stroke="rgb(204, 204, 204)" stroke-width="1px"></line><line x1="61.953125" y1="58.999999999999986" x2="56.953125" y2="58.999999999999986" style="visibility: inherit;" fill="rgb(0, 0, 0)" stroke="rgb(204, 204, 204)" stroke-width="1px"></line><line x1="61.953125" y1="39.33333333333333" x2="56.953125" y2="39.33333333333333" style="visibility: inherit;" fill="rgb(0, 0, 0)" stroke="rgb(204, 204, 204)" stroke-width="1px"></line><line x1="61.953125" y1="19.666666666666657" x2="56.953125" y2="19.666666666666657" style="visibility: inherit;" fill="rgb(0, 0, 0)" stroke="rgb(204, 204, 204)" stroke-width="1px"></line><line x1="61.953125" y1="0" x2="56.953125" y2="0" style="visibility: inherit;" fill="rgb(0, 0, 0)" stroke="rgb(204, 204, 204)" stroke-width="1px"></line></g><g transform="translate(51.953125, 0)"><text x="0" y="177" dx="0em" dy="0.3em" style="text-anchor: end; visibility: hidden; font-family: Roboto, sans-serif; font-size: 12px; font-weight: 200;" fill="rgb(33, 33, 33)" stroke="none" stroke-width="1px">2e-3</text><text x="0" y="157.33333333333331" dx="0em" dy="0.3em" style="text-anchor: end; visibility: inherit; font-family: Roboto, sans-serif; font-size: 12px; font-weight: 200;" fill="rgb(33, 33, 33)" stroke="none" stroke-width="1px">3e-3</text><text x="0" y="137.66666666666666" dx="0em" dy="0.3em" style="text-anchor: end; visibility: hidden; font-family: Roboto, sans-serif; font-size: 12px; font-weight: 200;" fill="rgb(33, 33, 33)" stroke="none" stroke-width="1px">4e-3</text><text x="0" y="118" dx="0em" dy="0.3em" style="text-anchor: end; visibility: inherit; font-family: Roboto, sans-serif; font-size: 12px; font-weight: 200;" fill="rgb(33, 33, 33)" stroke="none" stroke-width="1px">5e-3</text><text x="0" y="98.33333333333334" dx="0em" dy="0.3em" style="text-anchor: end; visibility: hidden; font-family: Roboto, sans-serif; font-size: 12px; font-weight: 200;" fill="rgb(33, 33, 33)" stroke="none" stroke-width="1px">6e-3</text><text x="0" y="78.66666666666666" dx="0em" dy="0.3em" style="text-anchor: end; visibility: inherit; font-family: Roboto, sans-serif; font-size: 12px; font-weight: 200;" fill="rgb(33, 33, 33)" stroke="none" stroke-width="1px">7e-3</text><text x="0" y="58.999999999999986" dx="0em" dy="0.3em" style="text-anchor: end; visibility: hidden; font-family: Roboto, sans-serif; font-size: 12px; font-weight: 200;" fill="rgb(33, 33, 33)" stroke="none" stroke-width="1px">8e-3</text><text x="0" y="39.33333333333333" dx="0em" dy="0.3em" style="text-anchor: end; visibility: inherit; font-family: Roboto, sans-serif; font-size: 12px; font-weight: 200;" fill="rgb(33, 33, 33)" stroke="none" stroke-width="1px">9e-3</text><text x="0" y="19.666666666666657" dx="0em" dy="0.3em" style="text-anchor: end; visibility: hidden; font-family: Roboto, sans-serif; font-size: 12px; font-weight: 200;" fill="rgb(33, 33, 33)" stroke="none" stroke-width="1px">0.01</text><text x="0" y="0" dx="0em" dy="0.3em" style="text-anchor: end; visibility: hidden; font-family: Roboto, sans-serif; font-size: 12px; font-weight: 200;" fill="rgb(33, 33, 33)" stroke="none" stroke-width="1px">0.011</text></g><line x1="61.953125" y1="0" x2="61.953125" y2="177" fill="rgb(0, 0, 0)" stroke="rgb(204, 204, 204)" stroke-width="1px"></line></g></g><g transform="translate(61, 0)" clip-path="url(#clip_0)"><clipPath id="clip_0"><rect width="268" height="177"></rect></clipPath><g><g><g><line x1="0" y1="0" x2="0" y2="177" fill="rgb(0, 0, 0)" stroke="rgb(66, 66, 66)" stroke-width="1px" opacity="0.25"></line><line x1="22.337239583333332" y1="0" x2="22.337239583333332" y2="177" fill="rgb(0, 0, 0)" stroke="rgb(66, 66, 66)" stroke-width="1px" opacity="0.25"></line><line x1="44.674479166666664" y1="0" x2="44.674479166666664" y2="177" fill="rgb(0, 0, 0)" stroke="rgb(66, 66, 66)" stroke-width="1px" opacity="0.25"></line><line x1="67.01171875" y1="0" x2="67.01171875" y2="177" fill="rgb(0, 0, 0)" stroke="rgb(66, 66, 66)" stroke-width="1px" opacity="0.25"></line><line x1="89.34895833333333" y1="0" x2="89.34895833333333" y2="177" fill="rgb(0, 0, 0)" stroke="rgb(66, 66, 66)" stroke-width="1px" opacity="0.25"></line><line x1="111.68619791666667" y1="0" x2="111.68619791666667" y2="177" fill="rgb(0, 0, 0)" stroke="rgb(66, 66, 66)" stroke-width="1px" opacity="0.25"></line><line x1="134.0234375" y1="0" x2="134.0234375" y2="177" fill="rgb(0, 0, 0)" stroke="rgb(66, 66, 66)" stroke-width="1px" opacity="0.25"></line><line x1="156.36067708333334" y1="0" x2="156.36067708333334" y2="177" fill="rgb(0, 0, 0)" stroke="rgb(66, 66, 66)" stroke-width="1px" opacity="0.25"></line><line x1="178.69791666666666" y1="0" x2="178.69791666666666" y2="177" fill="rgb(0, 0, 0)" stroke="rgb(66, 66, 66)" stroke-width="1px" opacity="0.25"></line><line x1="201.03515625" y1="0" x2="201.03515625" y2="177" fill="rgb(0, 0, 0)" stroke="rgb(66, 66, 66)" stroke-width="1px" opacity="0.25"></line><line x1="223.37239583333334" y1="0" x2="223.37239583333334" y2="177" fill="rgb(0, 0, 0)" stroke="rgb(66, 66, 66)" stroke-width="1px" opacity="0.25"></line><line x1="245.70963541666666" y1="0" x2="245.70963541666666" y2="177" fill="rgb(0, 0, 0)" stroke="rgb(66, 66, 66)" stroke-width="1px" opacity="0.25"></line><line x1="268.046875" y1="0" x2="268.046875" y2="177" fill="rgb(0, 0, 0)" stroke="rgb(66, 66, 66)" stroke-width="1px" opacity="0.25"></line></g><g><line x1="0" y1="177" x2="268.046875" y2="177" fill="rgb(0, 0, 0)" stroke="rgb(66, 66, 66)" stroke-width="1px" opacity="0.25"></line><line x1="0" y1="157.33333333333331" x2="268.046875" y2="157.33333333333331" fill="rgb(0, 0, 0)" stroke="rgb(66, 66, 66)" stroke-width="1px" opacity="0.25"></line><line x1="0" y1="137.66666666666666" x2="268.046875" y2="137.66666666666666" fill="rgb(0, 0, 0)" stroke="rgb(66, 66, 66)" stroke-width="1px" opacity="0.25"></line><line x1="0" y1="118" x2="268.046875" y2="118" fill="rgb(0, 0, 0)" stroke="rgb(66, 66, 66)" stroke-width="1px" opacity="0.25"></line><line x1="0" y1="98.33333333333334" x2="268.046875" y2="98.33333333333334" fill="rgb(0, 0, 0)" stroke="rgb(66, 66, 66)" stroke-width="1px" opacity="0.25"></line><line x1="0" y1="78.66666666666666" x2="268.046875" y2="78.66666666666666" fill="rgb(0, 0, 0)" stroke="rgb(66, 66, 66)" stroke-width="1px" opacity="0.25"></line><line x1="0" y1="58.999999999999986" x2="268.046875" y2="58.999999999999986" fill="rgb(0, 0, 0)" stroke="rgb(66, 66, 66)" stroke-width="1px" opacity="0.25"></line><line x1="0" y1="39.33333333333333" x2="268.046875" y2="39.33333333333333" fill="rgb(0, 0, 0)" stroke="rgb(66, 66, 66)" stroke-width="1px" opacity="0.25"></line><line x1="0" y1="19.666666666666657" x2="268.046875" y2="19.666666666666657" fill="rgb(0, 0, 0)" stroke="rgb(66, 66, 66)" stroke-width="1px" opacity="0.25"></line><line x1="0" y1="0" x2="268.046875" y2="0" fill="rgb(0, 0, 0)" stroke="rgb(66, 66, 66)" stroke-width="1px" opacity="0.25"></line></g></g></g><g><g><line x1="0" y1="216.33333333333334" x2="268.046875" y2="216.33333333333334" fill="rgb(0, 0, 0)" stroke="rgb(153, 153, 153)" stroke-width="1.5px"></line></g></g><g><g><line x1="-4445.110677083333" y1="0" x2="-4445.110677083333" y2="177" fill="rgb(0, 0, 0)" stroke="rgb(153, 153, 153)" stroke-width="1.5px"></line></g></g><g><g><g><g><g><path stroke="rgb(255, 112, 67)" stroke-width="2px" d="M31.607194010416666,-0.9575084420269393L31.83056640625,0.6747723637368767L32.05393880208333,2.269302663993736L32.27731119791667,3.8273078655681307L32.50068359375,5.349972264443612L32.724055989583334,6.838462178850566L32.947428385416664,8.293904102031297L33.17080078125,9.71741846675175L33.39417317708333,11.110058703582618L33.61754557291667,12.472868695955139L33.84091796875,13.806844467870464L34.06429036458333,15.112969456403588L34.28766276041667,16.392165788932626L34.51103515625,17.64533222300713L34.73440755208333,18.87334152128976L34.95777994791666,20.077020029452854L35.18115234375,21.257175292408963L35.40452473958333,22.41457418502489L35.62789713541667,23.549954719559025L35.851269531250004,24.66402449973199L36.074641927083334,25.75736423889747L36.298014322916664,26.830658282550647L36.52138671875,27.88456032624151L36.74475911458333,28.91968123252689L36.96813151041666,29.936612252722263L37.191503906250006,30.93591796135788L37.414876302083336,31.91813792975822L37.638248697916666,32.88379172779876L37.861621093749996,33.83337559866206L38.08499348958333,34.767359798455146L38.30836588541666,35.68619745736305L38.53173828125,36.590328005252275L38.75511067708334,37.48016892245547L38.97848307291667,38.356116466734164L39.20185546875,39.218560907602104L39.425227864583334,40.06788039772827L39.648600260416664,40.9044250804192L39.87197265625,41.728541007600484L40.09534505208334,42.54055630536083L40.31871744791667,43.340788422381635L40.54208984375,44.12954260226376L40.76546223958333,44.9071069981764L40.988834635416666,45.67377807018563L41.21220703125,46.429818628674184L41.43557942708333,47.175501196317875L41.65895182291667,47.911080423226046L41.88232421875,48.636800324668044L42.10569661458333,49.35289640805036L42.32906901041667,50.059597374495745L42.55244140625,50.75712281690354L42.775813802083334,51.44569603120499L42.99918619791667,52.12551030694088L43.22255859375,52.796767897361676L43.44593098958333,53.459667237081305L43.66930338541666,54.114389052997346L43.89267578125,54.76111455864433L44.116048177083336,55.400018030463144L44.339420572916666,56.03126453201827L44.56279296875,56.655015419776L44.78616536458333,57.27144007413085L45.00953776041666,57.88068132580114L45.23291015625,58.4828900713817L45.45628255208334,59.07821633376444L45.67965494791667,59.666794784070696L45.903027343750004,60.24876612801613L46.126399739583334,60.824261246183355L46.349772135416664,61.393406822250924L46.573144531249994,61.95633167717737L46.79651692708334,62.51316084694196L47.01988932291667,63.06400534993442L47.24326171875,63.60898330648337L47.466634114583336,64.14820386566007L47.690006510416666,64.6817763259342L47.913378906249996,65.20980461049108L48.13675130208333,65.7323956686926L48.36012369791667,66.24964238643267L48.58349609375,66.7616483780432L48.80686848958334,67.26850202979303L49.03024088541667,67.7702905351067L49.25361328125,68.26710929113875L49.47698567708333,68.75903278401172L49.70035807291667,69.24615173984168L49.92373046875,69.72855705553219L50.14710286458333,70.20631778540388L50.37047526041667,70.67951847853034L50.59384765625,71.14823226897357L50.81722005208333,71.61254147479703L51.04059244791667,72.07251011885036L51.26396484375,72.52822055663145L51.48733723958333,72.97973867253847L51.71070963541666,73.42713365849968L51.93408203125,73.87047185766396L52.15745442708333,74.30982099735898L52.38082682291667,74.74523709104787L52.604199218750004,75.17677777070867L52.827571614583334,75.60450379473227L53.050944010416664,76.02847659103878L53.27431640625,76.44875262836858L53.49768880208333,76.8653953977247L53.72106119791666,77.27844287070197L53.944433593750006,77.68796205659756L54.167805989583336,78.09400656284929L54.391178385416666,78.49661927540731L54.614550781249996,78.89585281904246L54.83792317708333,79.29175845157667L55.06129557291666,79.68438450567179L55.28466796875,80.07377697386147L55.50804036458334,80.45998363977908L55.73141276041667,80.84305188833667L55.95478515625,81.22302145906482L56.178157552083334,81.59994245959874L56.401529947916664,81.97385131284443L56.62490234375,82.34479180993512L56.84827473958334,82.71280814178287L57.07164713541667,83.07793382951617L57.29501953125,83.44020484804314L57.51839192708333,83.79967378810409L57.741764322916666,84.15636990108379L57.96513671875,84.51032391449442L58.18850911458333,84.86157506315415L58.41188151041667,85.21016389292285L58.63525390625,85.55611734568521L58.85862630208333,85.89947895416176L59.08199869791667,86.24027438652362L59.30537109375,86.57854432491933L59.528743489583334,86.91431582026462L59.75211588541667,87.24762150289838L59.97548828125,87.57849297189493L60.19886067708333,87.90695550651374L60.42223307291666,88.23304947777409L60.64560546875,88.55679436128392L60.868977864583336,88.87823321154559L61.092350260416666,89.19738581935242L61.31572265625,89.51427900694549L61.53909505208333,89.82894522172403L61.76246744791666,90.14140492680424L61.98583984375,90.45169097708862L62.20921223958334,90.75983515130244L62.43258463541667,91.06585920922367L62.655957031250004,91.36978605347798L62.879329427083334,91.67163400616586L63.102701822916664,91.9714342093773L63.326074218749994,92.26920608198104L63.54944661458334,92.56497798027958L63.77281901041667,92.8587725893149L63.99619140625,93.15060622551952L64.21956380208334,93.44054139526816L64.44293619791667,93.72857681883079L64.66630859375,94.01473528323731L64.88968098958334,94.2990240285052L65.11305338541666,94.58146533105794L65.33642578125,94.86206602242807L65.55979817708334,95.14085171545322L65.78317057291667,95.4178447320046L66.00654296875,95.6930610979781L66.22991536458333,95.96652279209579L66.45328776041667,96.23824556573419L66.67666015625,96.50824568319669L66.90003255208333,96.7765508087345L67.12340494791667,97.04317391574327L67.34677734374999,97.30812904614167L67.57014973958333,97.57143475986882L67.79352213541667,97.8331113996793L68.01689453124999,98.0931807345799L68.24026692708333,98.35165651657391L68.46363932291668,98.60855890526936L68.68701171875,98.86389853354942L68.91038411458334,99.11769489732706L69.13375651041667,99.3699654249336L69.35712890625,99.6207258906353L69.58050130208333,99.86999074544616L69.80387369791667,100.11777155017738L70.02724609375,100.3640848798822L70.25061848958333,100.60894765780532L70.47399088541667,100.85237525414358L70.69736328124999,101.09438362825657L70.92073567708333,101.3349818844298L71.14410807291667,101.57418096929389L71.36748046875,101.81200795616387L71.59085286458334,102.04846252447908L71.81422526041668,102.28355907059944L72.03759765625,102.517310943214L72.26097005208334,102.74973614767823L72.48434244791667,102.98084359347331L72.70771484375,103.21062209217355L72.93108723958333,103.43909566185758L73.15445963541666,103.6662798537861L73.37783203125,103.89219809857417L73.60120442708333,104.1168618143094L73.82457682291665,104.34028013546208L74.04794921875,104.56247319081577L74.27132161458334,104.78344426218987L74.49469401041667,105.00320330144422L74.71806640625,105.22173079605068L74.94143880208334,105.43904776800805L75.16481119791666,105.65516737171318L75.38818359375,105.87011112029002L75.61155598958334,106.08389805583872L75.83492838541666,106.29653791723622L76.05830078125,106.50804582198836L76.28167317708333,106.71841188488703L76.50504557291666,106.92765567178171L76.72841796875,107.13575803493174L76.95179036458335,107.34273845656485L77.17516276041667,107.54861252246315L77.39853515625,107.75340185925775L77.62190755208334,107.9571164418492L77.84527994791667,108.15977157656218L78.06865234375,108.36137767685543L78.29202473958333,108.56194673669808L78.51539713541666,108.76149201446752L78.73876953125,108.96001862206245L78.96214192708332,109.15754347020929L79.18551432291666,109.35407276108499L79.40888671875,109.54961695123424L79.63225911458333,109.74418623749382L79.85563151041667,109.93778694573219L80.07900390625001,110.130424136644L80.30237630208333,110.3221055219872L80.52574869791667,110.51284642917342L80.74912109375,110.70264813052553L80.97249348958333,110.8915171387052L81.19586588541667,111.07944950583621L81.41923828125,111.26645672642623L81.64261067708333,111.45254616448032L81.86598307291666,111.63772737440465L82.08935546875,111.82200067331989L82.31272786458332,112.00537913613002L82.53610026041667,112.18787688596034L82.75947265625001,112.36949606330582L82.98284505208333,112.55024387536557L83.20621744791667,112.73013341430317L83.42958984375001,112.9091714906473L83.65296223958333,113.087363552821L83.87633463541667,113.26471945436583L84.09970703124999,113.44124890971611L84.32307942708333,113.61695785881821L84.54645182291667,113.7918492220282L84.76982421874999,113.9659308304341L84.99319661458333,114.13920894890639L85.21656901041668,114.3116904209424L85.43994140625,114.48337339493587L85.66331380208334,114.6542692108091L85.88668619791667,114.824385108899L86.11005859375,114.99371955507073L86.33343098958333,115.16228414322393L86.55680338541667,115.3300844852762L86.78017578125,115.49712507076156L87.00354817708333,115.66341315450941L87.22692057291667,115.82895087718109L87.45029296874999,115.99375277251315L87.67366536458333,116.15781581468632L87.89703776041667,116.32114857265154L88.12041015625,116.48375240676643L88.34378255208334,116.64564488972657L88.56715494791668,116.80682909008213L88.79052734375,116.96730929427423L89.01389973958334,117.12708343665263L89.23727213541667,117.28615535950034L89.46064453125,117.44456843186711L89.68401692708333,117.60228042174812L89.90738932291666,117.75929051235866L90.13076171875,117.91564384029743L90.35413411458333,118.0713710200404L90.57750651041665,118.22645075314163L90.80087890625,118.38087332724866L91.02425130208334,118.53461998287311L91.24762369791667,118.6877892716902L91.47099609375,118.84034830737531L91.69436848958334,118.99226711766657L91.91774088541666,119.14353088275978L92.14111328125,119.2941295784127L92.36448567708334,119.44406068003467L92.58785807291666,119.59338444238934L92.81123046875,119.74208130004828L93.03460286458333,119.89014292707307L93.25797526041666,120.03756266271284L93.48134765625,120.18434250477124L93.70472005208335,120.33046207227842L93.92809244791667,120.47593986087867L94.15146484375,120.62082913070978L94.37483723958334,120.76511571024906L94.59820963541667,120.90879192548037L94.82158203125,121.05188826921216L95.04495442708333,121.19439067206885L95.26832682291666,121.33629703655525L95.49169921875,121.47759469506886L95.71507161458332,121.61828450313406L95.93844401041666,121.75837080837248L96.16181640625,121.89784793087607L96.38518880208333,122.03672597952696L96.60856119791667,122.17500754662761L96.83193359375001,122.31270386402535L97.05530598958333,122.44981292759164L97.27867838541667,122.58634412362998L97.50205078125,122.72230679278434L97.72542317708333,122.85770291276661L97.94879557291667,122.99254688695382L98.17216796875,123.12683741684009L98.39554036458333,123.26057712682287L98.61891276041666,123.39377727442542L98.84228515625,123.52643770766107L99.06565755208332,123.65857112614788L99.28902994791667,123.79017303677185L99.51240234375001,123.92125449785021L99.73577473958333,124.05181336643041L99.95914713541667,124.18185708615574L100.18251953125001,124.3113916119408L100.40589192708333,124.44039789690346L100.62926432291667,124.56888085114973L100.85263671874999,124.6968590555729L101.07600911458333,124.82432905887694L101.29938151041667,124.9513045844347L101.52275390624999,125.07779111614111L101.74612630208333,125.20379670431441L101.96949869791668,125.3293277892091L102.19287109375,125.4543785334224L102.41624348958334,125.57895891984062L102.63961588541667,125.70307143996958L102.86298828125,125.82667779179059L103.08636067708333,125.94979312371527L103.30973307291667,126.07242589127077L103.53310546875,126.194588353682L103.75647786458333,126.31628299192462L103.97985026041667,126.43751179077923L104.20322265624999,126.55828549607554L104.42659505208333,126.67858523046144L104.64996744791667,126.7984251976722L104.87333984375,126.91781126589285L105.09671223958334,127.03675362447466L105.32008463541668,127.15526408810071L105.54345703125,127.27334478211326L105.76682942708334,127.39100106998818L105.99020182291667,127.50823724250624L106.21357421875,127.62505306908987L106.43694661458333,127.74145569168134L106.66031901041666,127.8574434974301L106.88369140625,127.97302252246007L107.10706380208333,128.08819576406927L107.33043619791665,128.20296012529295L107.55380859375,128.3173167917614L107.77718098958334,128.4312777015853L108.00055338541667,128.54483775244458L108.22392578125,128.65800018888754L108.44729817708334,128.77076943815385L108.67067057291666,128.8831490420352L108.89404296875,128.99514000236397L109.11741536458334,129.10673579420174L109.34078776041666,129.2179458504063L109.56416015625,129.32876855925855L109.78753255208333,129.43920629458538L110.01090494791666,129.54926461865037L110.23427734375,129.65894248646123L110.45764973958335,129.7682463884284L110.68102213541667,129.87717785367803L110.90439453125,129.9857381055112L111.12776692708334,130.09392812256854L111.35113932291667,130.20174685616166L111.57451171875,130.3092007937441L111.79788411458333,130.41628963047543L112.02125651041666,130.52300762768013L112.24462890625,130.62936851042846L112.46800130208332,130.73537043756912L112.69137369791666,130.84101559938327L112.91474609375,130.94628560048412L113.13811848958333,131.05118770377493L113.36149088541667,131.1557258879773L113.58486328125001,131.2599069992707L113.80823567708333,131.3637365145986L114.03160807291667,131.46722247871793L114.25498046875,131.57036400103004L114.47835286458333,131.67316403225806L114.70172526041667,131.77562493298052L114.92509765625,131.87775774966553L115.14847005208333,131.97955117187598L115.37184244791666,132.08101080407064L115.59521484375,132.18214296141753L115.81858723958332,132.2829435380458L116.04195963541667,132.38342023886514L116.26533203125001,132.48357006979802L116.48870442708333,132.5833979619866L116.71207682291667,132.68290602874364L116.93544921875001,132.78209412911815L117.15882161458333,132.88096215034946L117.38219401041667,132.97951366543114L117.60556640624999,133.07775336435907L117.82893880208333,133.1756776727257L118.05231119791667,133.27329288901035L118.27568359374999,133.37060222039534L118.49905598958333,133.46759724302024L118.72242838541668,133.56429136540834L118.94580078125,133.6606751667666L119.16917317708334,133.75675942647118L119.39254557291667,133.85249781999119L119.61591796875,133.94790274093052L119.83929036458333,134.04298227257135L120.06266276041667,134.13774471314034L120.28603515625,134.23219670121892L120.50940755208333,134.3263453792733L120.73277994791667,134.42019646127636L120.95615234374999,134.51375635000758L121.17952473958333,134.60702100968513L121.40289713541667,134.69999820129L121.62626953125,134.79269230200586L121.84964192708334,134.88509948717547L122.07301432291668,134.97722036027506L122.29638671875,135.06906273048992L122.51975911458334,135.16062551876405L122.74313151041667,135.25190969345368L122.96650390625,135.34291969244597L123.18987630208333,135.43365540284847L123.41324869791666,135.52411856594827L123.63662109375,135.61430691157298L123.85999348958333,135.7042259499889L124.08336588541665,135.79387642620694L124.30673828125,135.88326259943796L124.53011067708334,135.97238238224747L124.75348307291667,136.06123959949107L124.97685546875,136.1498373110532L125.20022786458334,136.23817247003828L125.42360026041666,136.3262371441266L125.64697265625,136.41404696667522L125.87034505208334,136.50159246515696L126.09371744791666,136.5888715563533L126.31708984375,136.67588990009364L126.54046223958333,136.76264469783732L126.76383463541666,136.84913920555493L126.98720703125,136.93537602802303L127.21057942708335,137.02135175425957L127.43395182291667,137.10707281348428L127.65732421875,137.192546180674L127.88069661458334,137.27777010940596L128.10406901041665,137.36274320254196L128.32744140625,137.44747166877562L128.55081380208333,137.53195498025875L128.77418619791666,137.6161982095159L128.99755859375,137.70019442496036L129.22093098958334,137.78394907092917L129.44430338541667,137.86746100808875L129.66767578125,137.95072932497217L129.89104817708332,138.03375146080498L130.11442057291666,138.11653635657385L130.33779296875,138.19908383866394L130.56116536458333,138.28139743138547L130.78453776041667,138.36347812258555L131.00791015625,138.44532120773874L131.23128255208331,138.52692841802784L131.45465494791668,138.60831029640434L131.67802734375002,138.6894514664157L131.90139973958333,138.77036160611263L132.12477213541666,138.85104296313244L132.34814453125,138.9314973355851L132.57151692708334,139.0117279935596L132.79488932291667,139.09173022672275L133.01826171875,139.1715094248135L133.24163411458332,139.2510689838224L133.46500651041666,139.33040887314027L133.68837890625,139.40952723667877L133.91175130208333,139.48842625276927L134.13512369791667,139.5671030850743L134.35849609375,139.64556553832966L134.58186848958334,139.72380886671766L134.80524088541668,139.8018356841878L135.02861328125002,139.87964167129604L135.25198567708335,139.95723161469186L135.47535807291666,140.03460659629332L135.69873046875,140.11176565003376L135.92210286458334,140.18870983466093L136.14547526041667,140.26544366037515L136.36884765625,140.34196432473297L136.59222005208335,140.41827416478225L136.81559244791666,140.49437413436078L137.03896484375,140.5702631649377L137.26233723958333,140.6459468122921L137.48570963541667,140.72142585784508L137.70908203125,140.79669909513248L137.93245442708331,140.87176922218504L138.15582682291665,140.9466438922306L138.37919921875,141.02131549084348L138.60257161458333,141.09578891608942L138.82594401041666,141.1700589284158L139.04931640625,141.24413324158738L139.2726888020833,141.31801070021172L139.49606119791665,141.39169587477807L139.71943359375,141.46518143207143L139.94280598958335,141.5384715793257L140.16617838541669,141.61156601912577L140.38955078125002,141.68446726094126L140.61292317708333,141.7571773123478L140.83629557291667,141.82969503200434L141.05966796875,141.90201950683797L141.28304036458334,141.97415641699416L141.50641276041668,142.0461048117861L141.72978515625002,142.1178630148637L141.95315755208333,142.18943243254864L142.17652994791666,142.2608169372997L142.39990234375,142.33201687968247L142.62327473958334,142.40303070854821L142.84664713541667,142.47386084618014L143.07001953124998,142.54450648300323L143.29339192708332,142.614967887158L143.51676432291666,142.6852452731568L143.74013671875,142.75534064421063L143.96350911458333,142.82525377128727L144.18688151041667,142.89498263955974L144.41025390624998,142.96452563716662L144.63362630208331,143.03389063262398L144.85699869791665,143.1030756785399L145.08037109375,143.17208104860194L145.30374348958335,143.24091062496234L145.5271158854167,143.30956293434008L145.75048828125,143.37803862971148L145.97386067708334,143.44633823345768L146.19723307291667,143.5144667424861L146.42060546875,143.5824208279185L146.64397786458335,143.65020148985445L146.86735026041669,143.7178076967725L147.09072265625,143.78524320245813L147.31409505208333,143.85251284154083L147.53746744791667,143.9196113237188L147.76083984375,143.98654540635712L147.98421223958334,144.0533113373424L148.20758463541665,144.11991527298932L148.43095703125,144.1863520645437L148.65432942708333,144.25262491940657L148.87770182291666,144.31873182449598L149.10107421875,144.38467300094752L149.32444661458334,144.45045045727065L149.54781901041665,144.51606580027297L149.77119140624998,144.58151848379953L149.99456380208332,144.64680990252742L150.21793619791666,144.71193842479664L150.44130859375,144.77690549268087L150.66468098958333,144.84170859663695L150.88805338541667,144.90634664483076L151.11142578125,144.97082425859833L151.33479817708334,145.0351414718063L151.55817057291668,145.09930289055058L151.78154296875002,145.16335249493142L152.00491536458335,145.22727052099702L152.22828776041666,145.29104482078807L152.45166015625,145.35466933913932L152.67503255208334,145.41813831611796L152.89840494791667,145.48144348057568L153.12177734375,145.5445846261975L153.34514973958335,145.60756158793146L153.56852213541666,145.6703714863344L153.79189453125,145.73302026005655L154.01526692708333,145.7955044178134L154.23863932291667,145.8578211665772L154.46201171875,145.9199728509285L154.68538411458331,145.9819659255344L154.90875651041665,146.0438009751259L155.13212890625,146.1054793832883L155.35550130208333,146.1669958462862L155.57887369791666,146.22835894233864L155.80224609375,146.28957370241986L156.0256184895833,146.35063499330386L156.24899088541665,146.4115442032131L156.47236328125,146.47230061112444L156.69573567708335,146.53290547182044L156.91910807291669,146.59336162072822L157.14248046875002,146.65367041038894L157.36585286458333,146.713832007035L157.58922526041667,146.77384562785178L157.81259765625,146.83371797299188L158.03597005208334,146.89344616037252L158.25934244791668,146.9530278843275L158.48271484375002,147.0124640477255L158.70608723958333,147.071758120263L158.92945963541666,147.13090921449515L159.15283203125,147.1899193678675L159.37620442708334,147.24878929453615L159.59957682291667,147.30752506062905L159.82294921874998,147.36611686624005L160.04632161458332,147.42457060845229L160.26969401041666,147.48289008913167L160.49306640625,147.54107010756613L160.71643880208333,147.59911840859297L160.93981119791667,147.6570338616778L161.16318359374998,147.7148118991909L161.38655598958331,147.77245436183173L161.60992838541665,147.8299654695615L161.83330078125,147.88734401934641L162.05667317708335,147.94458904875952L162.2800455729167,148.0016988720587L162.50341796875,148.05868038285502L162.72679036458334,148.115528106431L162.95016276041667,148.17223949461365L163.17353515625,148.22882166687L163.39690755208335,148.2852729923693L163.62027994791669,148.3415930822476L163.84365234375,148.39778712021683L164.06702473958333,148.4538546742439L164.29039713541667,148.509798146104L164.51376953125,148.56561854141668L164.73714192708334,148.62131574887704L164.96051432291665,148.67688967944122L165.18388671875,148.7323402618741L165.40725911458333,148.78766743918757L165.63063151041666,148.84286933419008L165.85400390625,148.8979435293279L166.07737630208334,148.95289724856332L166.30074869791665,149.0077280288614L166.52412109374998,149.06243206819315L166.74749348958332,149.11701639874116L166.97086588541666,149.17148389884994L167.19423828125,149.22583046059145L167.41761067708333,149.28006378722952L167.64098307291667,149.33417722016785L167.86435546875,149.3881755063352L168.08772786458334,149.4420587800725L168.31110026041668,149.4958234856503L168.53447265625002,149.54947044168725L168.75784505208335,149.6030003030782L168.98121744791666,149.65641450953962L169.20458984375,149.70970871804144L169.42796223958334,149.7628876963644L169.65133463541667,149.8159479323289L169.87470703125,149.8688939425954L170.09807942708335,149.9217247614897L170.32145182291666,149.974440532273L170.54482421875,150.02704411695578L170.76819661458333,150.0795295629416L170.99156901041667,150.13190218195928L171.21494140625,150.18416164438915L171.43831380208331,150.23631134973758L171.66168619791665,150.2883457754049L171.88505859375,150.34026874551623L172.10843098958333,150.39208423517206L172.33180338541666,150.44377985584384L172.55517578125,150.495368591722L172.7785481770833,150.54684709315094L173.00192057291665,150.5982099330045L173.22529296875,150.64947291719358L173.44866536458335,150.70062671123398L173.67203776041669,150.7516684265411L173.89541015625002,150.80259575224727L174.11878255208333,150.85340867125933L174.34215494791667,150.90411358050662L174.56552734375,150.95471010272928L174.78889973958334,151.00519793611943L175.01227213541668,151.05558691303676L175.23564453125002,151.10586749915876L175.45901692708333,151.1560439724344L175.68238932291666,151.20612067102334L175.90576171875,151.2560891600465L176.12913411458334,151.30595459700746L176.35250651041667,151.35571378150482L176.57587890624998,151.40537147962172L176.79925130208332,151.45492234621938L177.02262369791666,151.50437126319204L177.24599609375,151.55372030445415L177.46936848958333,151.60297021333653L177.69274088541667,151.65211517390037L177.91611328124998,151.70115694399811L178.13948567708331,151.75009967731347L178.36285807291665,151.798937538788L178.58623046875,151.8476741025798L178.80960286458335,151.89630764901258L179.0329752604167,151.94484321294917L179.25634765625,151.99327749587553L179.47972005208334,152.04161426958407L179.70309244791667,152.08985380410724L179.92646484375,152.1379953996704L180.14983723958335,152.18603391745117L180.37320963541669,152.23397715179863L180.59658203125,152.28181576958292L180.81995442708333,152.3295542097071L181.04332682291667,152.3771932758921L181.26669921875,152.4247336111145L181.49007161458334,152.47217298235412L181.71344401041665,152.51951418219736L181.93681640625,152.56675944471345L182.16018880208333,152.61391055715768L182.38356119791666,152.6609652861322L182.60693359375,152.70792733972192L182.83030598958334,152.75478961058892L183.05367838541665,152.80155648666866L183.27705078124998,152.84822689930695L183.50042317708332,152.8948064041841L183.72379557291666,152.94128021403316L183.94716796875,152.98766030985445L184.17054036458333,153.03394528684183L184.39391276041667,153.08013585275143L184.61728515625,153.12623440538928L184.84065755208334,153.17224194719958L185.06402994791668,153.21815286953404L185.28740234375002,153.26397733828247L185.51077473958335,153.3097079175478L185.73414713541666,153.35535056401915L185.95751953125,153.4009045482447L186.18089192708334,153.44636837086242L186.40426432291667,153.4917371691806L186.62763671875,153.53701804265225L186.85100911458335,153.58221026023602L187.07438151041666,153.62731140549778L187.29775390625,153.6723241242929L187.52112630208333,153.71724778590414L187.74449869791667,153.76208280155808L187.96787109375,153.8068267528345L188.19124348958331,153.85148411560098L188.41461588541665,153.89605847055148L188.63798828125,153.94054627163752L188.86136067708333,153.98495109262404L189.08473307291666,154.0292666345176L189.30810546875,154.07349793192938L189.5314778645833,154.11764443354565L189.75485026041665,154.16170569831536L189.97822265625,154.20568228919828L190.20159505208335,154.2495746565622L190.42496744791669,154.29338590810292L190.64833984375002,154.3371084561713L190.87171223958333,154.38075088345644L191.09508463541667,154.42430906650335L191.31845703125,154.4677842855506L191.54182942708334,154.51117573318803L191.76520182291668,154.5544864266896L191.98857421875002,154.59771328507136L192.21194661458333,154.64085292774553L192.43531901041666,154.68391089244676L192.65869140625,154.72688428295845L192.88206380208334,154.76977536131L193.10543619791667,154.81258318972334L193.32880859374998,154.85530518637495L193.55218098958332,154.89794661221023L193.77555338541666,154.94049977057867L193.99892578125,154.98296766216512L194.22229817708333,155.02535360331797L194.44567057291667,155.067660247116L194.66904296874998,155.10988238961792L194.89241536458331,155.15202685727712L195.11578776041665,155.19409178485202L195.33916015625,155.23607384854836L195.56253255208335,155.2779722209317L195.7859049479167,155.3197871558551L196.00927734375,155.36151885640098L196.23264973958334,155.40317023243682L196.45602213541667,155.44473628545248L196.67939453125,155.48622858524874L196.90276692708335,155.52764173485778L197.12613932291669,155.56897965891017L197.34951171875,155.6102354233045L197.57288411458333,155.65141904936857L197.79625651041667,155.6925220697552L198.01962890625,155.7335551107967L198.24300130208334,155.7745129365509L198.46637369791665,155.81540051626942L198.68974609375,155.85620808834557L198.91311848958333,155.89694707530518L199.13649088541666,155.93761196236036L199.35986328125,155.97819925348142L199.58323567708334,156.0187153098498L199.80660807291665,156.05915697820598L200.02998046874998,156.09952723074545L200.25335286458332,156.13982569782308L200.47672526041666,156.18005025212167L200.70009765625,156.22020743399221L200.92347005208333,156.26028782290703L201.14684244791667,156.3002902930477L201.37021484375,156.34021577536058L201.59358723958334,156.38006684620373L201.81695963541668,156.4198428192621L202.04033203125002,156.45954314548356L202.26370442708335,156.49917196462917L202.48707682291666,156.5387252621034L202.71044921875,156.57820623683367L202.93382161458334,156.61761378475973L203.15719401041667,156.6569488542344L203.38056640625,156.6962057933363L203.60393880208335,156.73539656493784L203.82731119791666,156.774517002329L204.05068359375,156.81356651954334L204.27405598958333,156.85254281620666L204.49742838541667,156.89145412582545L204.72080078125,156.93029238239637L204.94417317708331,156.96906578592527L205.16754557291665,157.007770822611L205.39091796875,157.0464046814126L205.61429036458333,157.08497060830055L205.83766276041666,157.12347028425066L206.06103515625,157.16189681183877L206.2844075520833,157.2002538311309L206.50777994791665,157.2385405909778L206.73115234375,157.27675649045995L206.95452473958335,157.31490837524606L207.17789713541669,157.35298432166098L207.40126953125002,157.39099219097469L207.62464192708333,157.42892545099576L207.84801432291667,157.4667962761811L208.07138671875,157.5045960900856L208.29475911458334,157.54233451596286L208.51813151041668,157.58000002060442L208.74150390625002,157.61760169345425L208.96487630208333,157.65513856386272L209.18824869791666,157.69260436050698L209.41162109375,157.73000597173555L209.63499348958334,157.7673443292247L209.85836588541667,157.8046183467143L210.08173828124998,157.84182715519634L210.30511067708332,157.878976470068L210.52848307291666,157.91605621083872L210.75185546875,157.95307662912643L210.97522786458333,157.99003493661928L211.19860026041667,158.0269298184683L211.42197265624998,158.06376297019582L211.64534505208331,158.10053208501765L211.86871744791665,158.13724355971118L212.09208984375,158.17389152209202L212.31546223958335,158.21047676921577L212.5388346354167,158.247001770328L212.76220703125,158.28346392182254L212.98557942708334,158.31986480401648L213.20895182291667,158.3562047653631L213.43232421875,158.3924840846249L213.65569661458335,158.428704816413L213.87906901041669,158.4648631096131L214.10244140625,158.50095954653594L214.32581380208333,158.53699459303L214.54918619791667,158.5729677059736L214.77255859375,158.6088747876673L214.99593098958334,158.6447189705552L215.21930338541665,158.6805027605926L215.44267578125,158.71622449934165L215.66604817708333,158.75188377585258L215.88942057291666,158.78747842976446L216.11279296875,158.82300398538706L216.33616536458334,158.85847059917606L216.55953776041665,158.89387357508863L216.78291015624998,158.9292091562905L217.00628255208332,158.9644798321174L217.22965494791666,158.99969308884116L217.45302734375,159.03484758907493L217.67639973958333,159.0699358523056L217.89977213541667,159.1049674627316L218.12314453125,159.13993726650432L218.34651692708334,159.17485029855018L218.56988932291668,159.20970509200706L218.79326171875002,159.2445004733854L219.01663411458335,159.2792373354944L219.24000651041666,159.31391913998328L219.46337890625,159.3485376665648L219.68675130208334,159.3830982444162L219.91012369791667,159.41760055787663L220.13349609375,159.45204435441732L220.35686848958335,159.48643217941694L220.58024088541666,159.5207587427741L220.80361328125,159.55502897041308L221.02698567708333,159.58924405567163L221.25035807291667,159.6233994584168L221.47373046875,159.65749795714598L221.69710286458331,159.69153994305594L221.92047526041665,159.7255229817026L222.14384765625,159.7594506203338L222.36722005208333,159.7933174545431L222.59059244791666,159.82713381361376L222.81396484375,159.86088964496182L223.0373372395833,159.89459064352812L223.26070963541665,159.9282331230605L223.48408203125,159.9618177977593L223.70745442708335,159.99534615478547L223.93082682291669,160.02882029966815L224.15419921875002,160.0622364220276L224.37757161458333,160.09560246316627L224.60094401041667,160.1289128707193L224.82431640625,160.16216778179745L225.04768880208334,160.19537005349093L225.27106119791668,160.2285183082697L225.49443359375002,160.2616086967083L225.71780598958333,160.2946427182688L225.94117838541666,160.32762523572313L226.16455078125,160.36055372868512L226.38792317708334,160.39342343344418L226.61129557291667,160.42624244443874L226.83466796874998,160.4590044160122L227.05804036458332,160.4917152612455L227.28141276041666,160.5243723841993L227.50478515625,160.55697737132414L227.72815755208333,160.58953515498263L227.95152994791667,160.62203685985745L228.17490234374998,160.65448454369994L228.39827473958331,160.68687710530972L228.62164713541665,160.71921366372638L228.84501953125,160.7514990089848L229.06839192708335,160.78372781510765L229.2917643229167,160.8159040635178L229.51513671875,160.8480236129492L229.73850911458334,160.88009322419498L229.96188151041667,160.91211281108644L230.18525390625,160.94407864148647L230.40862630208335,160.9759978034912L230.63199869791669,161.0078631463701L230.85537109375,161.0396790233447L231.07874348958333,161.0714443379894L231.30211588541667,161.10315546576223L231.52548828125,161.13481774923437L231.74886067708334,161.16642996765958L231.97223307291665,161.19799389184246L232.19560546875,161.22950635942402L232.41897786458333,161.26096026151444L232.64235026041666,161.29236456381037L232.86572265625,161.32371911246483L233.08909505208334,161.35502103699866L233.31246744791665,161.38627078843015L233.53583984374998,161.4174696433745L233.75921223958332,161.4486177073232L233.98258463541666,161.47970865406586L234.20595703125,161.51075115964207L234.42932942708333,161.54174941748198L234.65270182291667,161.57269854012483L234.87607421875,161.6035982808042L235.09944661458334,161.63444661050582L235.32281901041668,161.66525106402375L235.54619140625002,161.69600393218505L235.76956380208335,161.72670454245474L235.99293619791666,161.75736059900953L236.21630859375,161.787970022986L236.43968098958334,161.81852931969237L236.66305338541667,161.84903752497632L236.88642578125,161.87950210972068L237.10979817708335,161.90991806102545L237.33317057291666,161.94029144237638L237.55654296875,161.97061886235736L237.77991536458333,162.00089669203487L238.00328776041667,162.0311293546665L238.22666015625,162.061314894055L238.45003255208331,162.09145540844474L238.67340494791665,162.12154799742856L238.89677734375,162.15159858288553L239.12014973958333,162.18159999691198L239.34352213541666,162.2115565789908L239.56689453125,162.24146630590516L239.7902669270833,162.27133305388477L240.01363932291665,162.30115626071125L240.23701171875,162.33093089760723L240.46038411458335,162.36066118375567L240.68375651041669,162.39034316809858L240.90712890625002,162.41997918459285L241.13050130208333,162.44957201620446L241.35387369791667,162.4791174787025L241.57724609375,162.50861955110653L241.80061848958334,162.5380768376295L242.02399088541668,162.56748913744224L242.24736328125002,162.59685903728314L242.47073567708333,162.626180364338L242.69410807291666,162.65546008576248L242.91748046875,162.68469644887682L243.14085286458334,162.71389171473928L243.36422526041667,162.74304402899443L243.58759765624998,162.77214916075627L243.81097005208332,162.80121288332134L244.03434244791666,162.83022974152098L244.25771484375,162.8592054450262L244.48108723958333,162.88813357196736L244.70445963541667,162.91701539545247L244.92783203124998,162.94585742877118L245.15120442708331,162.97465297714822L245.37457682291665,163.0034003479656L245.59794921875,163.0321009345304" style="fill: none;" fill="none"></path></g></g></g></g><g opacity="0.2"><g><g><g><path stroke="rgb(255, 112, 67)" stroke-width="2px" d="M30.713704427083332,-0.5324452569087652L30.937076822916666,1.0879355718692056L31.160449218750003,2.670310678581386L31.383821614583333,4.216163660089157L31.607194010416666,5.726794953147553L31.83056640625,7.203340150415878L32.05393880208333,8.646989792585366L32.27731119791667,10.058989368379104L32.50068359375,11.440364574392634L32.724055989583334,12.792214371263961L32.947428385416664,14.115509507556741L33.17080078125,15.411348943908994L33.39417317708333,16.68052026877799L33.61754557291667,17.92403086274861L33.84091796875,19.14268663028875L34.06429036458333,20.33742168794074L34.28766276041667,21.50891372809807L34.51103515625,22.657968655228593L34.73440755208333,23.785355741779L34.95777994791666,24.891716048121445L35.18115234375,25.977782214681298L35.40452473958333,27.04415866980949L35.62789713541667,28.091468157867585L35.851269531250004,29.120296791195862L36.074641927083334,30.130717833836872L36.298014322916664,31.123830246428632L36.52138671875,32.10016519327957L36.74475911458333,33.060162258644894L36.96813151041666,34.004334290822335L37.191503906250006,34.93313919007777L37.414876302083336,35.84701654066642L37.638248697916666,36.74640592684348L37.861621093749996,37.631710300842904L38.08499348958333,38.503295982877404L38.30836588541666,39.361547609170266L38.53173828125,40.20684981594483L38.75511067708334,41.03953229139247L38.97848307291667,41.85990640769402L39.20185546875,42.668338485062115L39.425227864583334,43.4651582116882L39.648600260416664,44.250603695710495L39.87197265625,45.025004625320435L40.09534505208334,45.78861742466687L40.31871744791667,46.54171683390934L40.54208984375,47.28455927719672L40.76546223958333,48.0173645466566L40.988834635416666,48.74046233048041L41.21220703125,49.45398084074258L41.43557942708333,50.15823144962389L41.65895182291667,50.8533973172307L41.88232421875,51.539679919679955L42.10569661458333,52.217280733088636L42.32906901041667,52.88640123357374L42.55244140625,53.5472245812416L42.775813802083334,54.19998888423044L42.99918619791667,54.84476740658283L43.22255859375,55.48179825643698L43.44593098958333,56.11126459389925L43.66930338541666,56.73327631503342L43.89267578125,57.34801657994587L44.116048177083336,57.95563191672165L44.339420572916666,58.556250537435204L44.56279296875,59.1500189701716L44.78616536458333,59.73713869104781L45.00953776041666,60.31764633208512L45.23291015625,60.891725053389855L45.45628255208334,61.45952138304709L45.67965494791667,62.02110858509937L45.903027343750004,62.576651503642395L46.126399739583334,63.12624171872933L46.349772135416664,63.66998912642398L46.573144531249994,64.20803109680612L46.79651692708334,64.74047752593954L47.01988932291667,65.26738336185613L47.24326171875,65.788895132641L47.466634114583336,66.30508610233665L47.690006510416666,66.81606616700688L47.913378906249996,67.32191774869958L48.13675130208333,67.82275990148385L48.36012369791667,68.31862925738096L48.58349609375,68.80967234447597L48.80686848958334,69.29591663678485L49.03024088541667,69.77744455635548L49.25361328125,70.25438431526223L49.47698567708333,70.72672675549983L49.70035807291667,71.19462756315868L49.92373046875,71.65817831829189L50.14710286458333,72.1173607048889L50.37047526041667,72.57232125103472L50.59384765625,73.02308743074535L50.81722005208333,73.46977829808989L51.04059244791667,73.91238469506303L51.26396484375,74.35106230775516L51.48733723958333,74.78581113616625L51.71070963541666,75.21671360234419L51.93408203125,75.64382465432087L52.15745442708333,76.06721755613881L52.38082682291667,76.48690146580338L52.604199218750004,76.90294048935174L52.827571614583334,77.31540789082646L53.050944010416664,77.72436777626474L53.27431640625,78.12985677768786L53.49768880208333,78.53196647514898L53.72106119791666,78.93063276261091L53.944433593750006,79.32603880017996L54.167805989583336,79.71818458785611L54.391178385416666,80.10707012563944L54.614550781249996,80.49278699358302L54.83792317708333,80.87538098171353L55.06129557291666,81.25488872205217L55.28466796875,81.63134684662023L55.50804036458334,82.00481030344963L55.73141276041667,82.37532488256693L55.95478515625,82.74289974197745L56.178157552083334,83.10762646173436L56.401529947916664,83.46948672582705L56.62490234375,83.82855379829803L56.84827473958334,84.18487346917391L57.07164713541667,84.53843658044933L57.29501953125,84.88928892215093L57.51839192708333,85.23754954834779L57.741764322916666,85.5831543530027L57.96513671875,85.92613996813694L58.18850911458333,86.26657965779303L58.41188151041667,86.60451921199758L58.63525390625,86.93993115673462L58.85862630208333,87.27292538806796L59.08199869791667,87.60345611597101L59.30537109375,87.93162407850224L59.528743489583334,88.25740180164574L59.75211588541667,88.5808442334334L59.97548828125,88.90197884788117L60.19886067708333,89.22080564498901L60.42223307291666,89.53742536281545L60.64560546875,89.85177389532326L60.868977864583336,90.1639886125922L61.092350260416666,90.47399625057975L61.31572265625,90.78185175731778L61.53909505208333,91.08761008083819L61.76246744791666,91.39124374712505L61.98583984375,91.69283517822622L62.20921223958334,91.99241184815764L62.43258463541667,92.28995544090867L62.655957031250004,92.58549343049526L62.879329427083334,92.87902581691742L63.102701822916664,93.170635022223L63.326074218749994,93.46029357239603L63.54944661458334,93.74806557347378L63.77281901041667,94.03395102545618L63.99619140625,94.31794077033798L64.21956380208334,94.6002820742627L64.44293619791667,94.88071851308148L64.66630859375,95.15936914086342L64.88968098958334,95.43617900957663L65.11305338541666,95.71123054126896L65.33642578125,95.98446878790854L65.55979817708334,96.25599448755383L65.78317057291667,96.52581679821013L66.00654296875,96.79392656187214L66.22991536458333,97.06036956856649L66.45328776041667,97.32513666028775L66.67666015625,97.58824615304668L66.90003255208333,97.84977131088574L67.12340494791667,98.10966634377837L67.34677734374999,98.36794956773518L67.57014973958333,98.62465761477749L67.79352213541667,98.8798179589212L68.01689453124999,99.13345807418227L68.24026692708333,99.38555964455009L68.46363932291668,99.6361684600512L68.68701171875,99.88525704666971L68.91038411458334,100.1328803524375L69.13375651041667,100.37904753535985L69.35712890625,100.62376775344212L69.58050130208333,100.86705016468962L69.80387369791667,101.10889476910232L70.02724609375,101.34933819870153L70.25061848958333,101.58839876949787L70.47399088541667,101.82608563949665L70.69736328124999,102.06241712470849L70.92073567708333,102.2973749091228L71.14410807291667,102.53097730875015L71.36748046875,102.76331590364377L71.59085286458334,102.99428079773982L71.81422526041668,103.22394525508085L72.03759765625,103.45231843367218L72.26097005208334,103.67943696553509L72.48434244791667,103.9052733766536L72.70771484375,104.12973608697452L72.93108723958333,104.35298994059364L73.15445963541666,104.57501662150025L73.37783203125,104.79587107772626L73.60120442708333,105.01551667725046L73.82457682291665,105.23395342007278L74.04794921875,105.45124541223049L74.27132161458334,105.66732854768632L74.49469401041667,105.88223945846161L74.71806640625,106.09584077447651L74.94143880208334,106.30831565583743L75.16481119791666,106.51964578653373L75.38818359375,106.72988611459732L75.61155598958334,106.93904579803348L75.83492838541666,107.14709736282627L76.05830078125,107.35407744099696L76.28167317708333,107.55987613648176L76.50504557291666,107.76463081936039L76.72841796875,107.9681674875319L76.95179036458335,108.17066014309724L77.17516276041667,108.37210878605643L77.39853515625,108.57255920643607L77.62190755208334,108.77197477221489L77.84527994791667,108.97039211541413L78.06865234375,109.16780207802852L78.29202473958333,109.36422297606865L78.51539713541666,109.55967312554519L78.73876953125,109.75412505244215L78.96214192708332,109.94764286279678L79.18551432291666,110.1401899245878L79.40888671875,110.33179371183118L79.63225911458333,110.5224633825322L79.85563151041667,110.71218977868557L80.07900390625001,110.90097290029128L80.30237630208333,111.08883106335998L80.52574869791667,111.2758100579182L80.74912109375,111.46185493593414L80.97249348958333,111.64699317142367L81.19586588541667,111.83117897436021L81.41923828125,112.01448560878633L81.64261067708333,112.1969039166967L81.86598307291666,112.37845221410193L82.08935546875,112.55909386898081L82.31272786458332,112.73889298737048L82.53610026041667,112.91786788528165L82.75947265625001,113.09597277268767L82.98284505208333,113.27323512360452L83.20621744791667,113.44969157005347L83.42958984375001,113.62532379602392L83.65296223958333,113.80013180151582L83.87633463541667,113.9741430605451L84.09970703124999,114.14736673111717L84.32307942708333,114.31979365522663L84.54645182291667,114.49141467486818L84.76982421874999,114.6622572640578L84.99319661458333,114.83232142279543L85.21656901041668,115.00161630908646L85.43994140625,115.1701052909096L85.66331380208334,115.33785247430205L85.88668619791667,115.50484870125851L86.11005859375,115.67105733975767L86.33343098958333,115.83654249583681L86.55680338541667,116.00128585348527L86.78017578125,116.16528741270304L87.00354817708333,116.32856548950076L87.22692057291667,116.4911017678678L87.45029296874999,116.65296035384138L87.67366536458333,116.81406798337896L87.89703776041667,116.97447960451244L88.12041015625,117.1341677432259L88.34378255208334,117.29321482156713L88.56715494791668,117.45156589150429L88.79052734375,117.60923011104265L89.01389973958334,117.76618000616631L89.23727213541667,117.92244305089116L89.46064453125,118.07822072133422L89.68401692708333,118.23312838127215L89.90738932291666,118.38733087480068L90.13076171875,118.54105715205272L90.35413411458333,118.69427973901232L90.57750651041665,118.84676968554653L90.80087890625,118.9985636236767L91.02425130208334,119.14960660537083L91.24762369791667,119.30046642695865L91.47099609375,119.45058445011576L91.69436848958334,119.59994235883154L91.91774088541666,119.74858594313264L92.14111328125,119.89652436102429L92.36448567708334,120.04378508652248L92.58785807291666,120.19067949180801L92.81123046875,120.33686873068412L93.03460286458333,120.48238943517208L93.25797526041666,120.62724160527189L93.48134765625,120.77146187300484L93.70472005208335,120.91494034230709L93.92809244791667,121.05785101527968L94.15146484375,121.2003862100343L94.37483723958334,121.34226202840604L94.59820963541667,121.48349678640565L94.82158203125,121.62427364413938L95.04495442708333,121.76440028349559L95.26832682291666,121.90392249450088L95.49169921875,122.04278532912333L95.71507161458332,122.18104373539488L95.93844401041666,122.3187160293261L96.16181640625,122.4557564208905L96.38518880208333,122.59223817413053L96.60856119791667,122.72813381503025L96.83193359375001,122.8634891336163L97.05530598958333,122.99824918185672L97.27867838541667,123.1324689077834L97.50205078125,123.26615746940173L97.72542317708333,123.39928739269574L97.94879557291667,123.53192278370261L98.17216796875,123.66399953638513L98.39554036458333,123.79553596675396L98.61891276041666,123.92657786483566L98.84228515625,124.05707944060363L99.06565755208332,124.18710480009517L99.28902994791667,124.31658067926764L99.51240234375001,124.44558034216365L99.73577473958333,124.57404884075125L99.95914713541667,124.70203196505703L100.18251953125001,124.82952971508105L100.40589192708333,124.95642303675413L100.62926432291667,125.08281266813476L100.85263671874999,125.20877187326549L101.07600911458333,125.33420907209315L101.29938151041667,125.45920668666562L101.52275390624999,125.58373724296689L101.74612630208333,125.70781905700763L101.96949869791668,125.83145212878783L102.19287109375,125.9545815102756L102.41624348958334,126.07728046551347L102.63961588541667,126.19952152048549L102.86298828125,126.32110319907467L103.08636067708333,126.44225445141396L103.30973307291667,126.56295696149267L103.53310546875,126.68323820332685L103.75647786458333,126.80306154489516L103.97985026041667,126.92242698619762L104.20322265624999,127.04138031726083L104.42659505208333,127.15978416800498L104.64996744791667,127.27778506651521L104.87333984375,127.39535553877552L105.09671223958334,127.51252305880189L105.32008463541668,127.62930594260494L105.54345703125,127.7456675581634L105.76682942708334,127.86162622148791L105.99020182291667,127.97718193257847L106.21357421875,128.09231637542445L106.43694661458333,128.20706618204713L106.66031901041666,128.32139472042522L106.88369140625,128.43533862257996L107.10706380208333,128.54888873050612L107.33043619791665,128.66201757018763L107.55380859375,128.77474345763525L107.77718098958334,128.88712134088078L108.00055338541667,128.99907795588177L108.22392578125,129.1106499346594L108.44729817708334,129.22184643521905L108.67067057291666,129.3326674575607L108.89404296875,129.44310384367904L109.11741536458334,129.5531189615528L109.34078776041666,129.66278607522446L109.56416015625,129.77205939466754L109.78753255208333,129.8809572358926L110.01090494791666,129.98949791491032L110.23427734375,130.0976539577047L110.45764973958335,130.20546199629703L110.68102213541667,130.3129037146767L110.90439453125,130.41997911284366L111.12776692708334,130.52668819079798L111.35113932291667,130.63302179053426L111.57451171875,130.73901654407382L111.79788411458333,130.8446449774007L112.02125651041666,130.94987961649895L112.24462890625,131.0548120414217L112.46800130208332,131.15937814613184L112.69137369791666,131.26359624663988L112.91474609375,131.3673656048874L113.13811848958333,131.47079611693817L113.36149088541667,131.57387862478694L113.58486328125001,131.67663144444427L113.80823567708333,131.77905457591015L114.03160807291667,131.8811663351953L114.25498046875,131.9829300902784L114.47835286458333,132.08436415717006L114.70172526041667,132.1854685358703L114.92509765625,132.28628901640573L115.14847005208333,132.38672486071786L115.37184244791666,132.4868493328492L115.59521484375,132.58667159080505L115.81858723958332,132.6861458445589L116.04195963541667,132.78532704214254L116.26533203125001,132.88416939352948L116.48870442708333,132.98270953074098L116.71207682291667,133.0809382957717L116.93544921875001,133.17884653061628L117.15882161458333,133.2764342352748L117.38219401041667,133.37371972575784L117.60556640624999,133.47071216007075L117.82893880208333,133.5673749061922L118.05231119791667,133.6637537541489L118.27568359374999,133.7598395459354L118.49905598958333,133.85557733351985L118.72242838541668,133.95106785496077L118.94580078125,134.04621037219962L119.16917317708334,134.1410964652896L119.39254557291667,134.2354513940712L119.61591796875,134.32952242468792L119.83929036458333,134.42330039913455L120.06266276041667,134.51679447541633L120.28603515625,134.61000465353328L120.50940755208333,134.70294009149075L120.73277994791667,134.79560078928867L120.95615234374999,134.8879959049324L121.17952473958333,134.98007964839536L121.40289713541667,135.07190696770945L121.62626953125,135.16346870486933L121.84964192708334,135.25472822785378L122.07301432291668,135.34570385267335L122.29638671875,135.4364322113494L122.51975911458334,135.5268766718606L122.74313151041667,135.6170463922123L122.96650390625,135.7069596884151L123.18987630208333,135.79659824445844L123.41324869791666,135.88597121834755L123.63662109375,135.97506029407182L123.85999348958333,136.06390210365257L124.08336588541665,136.1524783310791L124.30673828125,136.24080729236204L124.53011067708334,136.32886151348552L124.75348307291667,136.41666846846542L124.97685546875,136.50422815730172L125.20022786458334,136.59151310597855L125.42360026041666,136.67849584047994L125.64697265625,136.76528625686964L125.87034505208334,136.85177445908388L126.09371744791666,136.9379879211386L126.31708984375,137.02396327505508L126.54046223958333,137.10966388881207L126.76383463541666,137.1951172364255L126.98720703125,137.28032331789532L127.21057942708335,137.36525465920568L127.43395182291667,137.4499570503831L127.65732421875,137.5344396494329L127.88069661458334,137.61866582433382L128.10406901041665,137.70263557508588L128.32744140625,137.7863855337103L128.55081380208333,137.8698882261912L128.77418619791666,137.95317112654448L128.99755859375,138.03617928673825L129.22093098958334,138.11896765480438L129.44430338541667,138.20150875672698L129.66767578125,138.283802592506L129.89104817708332,138.36584000413617L130.11442057291666,138.44767593964934L130.33779296875,138.52927376702428L130.56116536458333,138.6106518022716L130.78453776041667,138.691800887386L131.00791015625,138.77269354835153L131.23128255208331,138.85335725918412L131.45465494791668,138.9338378099104L131.67802734375002,139.0140161464612L131.90139973958333,139.0940021649003L132.12477213541666,139.17376839121184L132.34814453125,139.25331482539573L132.57151692708334,139.33265062545738L132.79488932291667,139.41173915937543L133.01826171875,139.4906262171765L133.24163411458332,139.56930721985796L133.46500651041666,139.64776843041182L133.68837890625,139.72600069083273L133.91175130208333,139.80402231713137L134.13512369791667,139.8818104142944L134.35849609375,139.9594153513511L134.58186848958334,140.03678218026957L134.80524088541668,140.11394295406836L135.02861328125002,140.19086561972895L135.25198567708335,140.26759138827524L135.47535807291666,140.34410652269918L135.69873046875,140.42040186499557L135.92210286458334,140.49648657316962L136.14547526041667,140.57237896323204L136.36884765625,140.64804698216417L136.59222005208335,140.72351352497935L136.81559244791666,140.7987740126749L137.03896484375,140.87381928724548L137.26233723958333,140.9486814017097L137.48570963541667,141.023342040057L137.70908203125,141.09779204428196L137.93245442708331,141.1720497303953L138.15582682291665,141.24614257241288L138.37919921875,141.32000188529491L138.60257161458333,141.39368261707327L138.82594401041666,141.46713897772133L139.04931640625,141.5404304942737L139.2726888020833,141.6135205347091L139.49606119791665,141.68643657304347L139.71943359375,141.75912366124493L139.94280598958335,141.83163216834268L140.16617838541669,141.9039437783261L140.38955078125002,141.9760722282032L140.61292317708333,142.04801751797396L140.83629557291667,142.1197659106304L141.05966796875,142.19131740617254L141.28304036458334,142.26270405761898L141.50641276041668,142.33389839095372L141.72978515625002,142.4048958271742L141.95315755208333,142.4757101032883L142.17652994791666,142.54635495630404L142.39990234375,142.61681664921343L142.62327473958334,142.68708602401117L142.84664713541667,142.7571813967079L143.07001953124998,142.8270890302956L143.29339192708332,142.896813503777L143.51676432291666,142.96635481715202L143.74013671875,143.03572212842602L143.96350911458333,143.1049062795937L144.18688151041667,143.17389811264974L144.41025390624998,143.24269762759408L144.63362630208331,143.31135061445335L144.85699869791665,143.37981586220363L145.08037109375,143.44810252885023L145.30374348958335,143.5162289304038L145.5271158854167,143.584172171851L145.75048828125,143.65194141119719L145.97386067708334,143.71953664844233L146.19723307291667,143.78698077859977L146.42060546875,143.8542371696482L146.64397786458335,143.92132413759828L146.86735026041669,143.98823252444464L147.09072265625,144.05498522520065L147.31409505208333,144.12159139787155L147.53746744791667,144.18800525243083L147.76083984375,144.25428173691034L147.98421223958334,144.3203750612835L148.20758463541665,144.3863310155769L148.43095703125,144.45209923076135L148.65432942708333,144.517716338858L148.87770182291666,144.58315944485366L149.10107421875,144.6484377067536L149.32444661458334,144.71356028256318L149.54781901041665,144.77852717228234L149.77119140624998,144.8433292179058L149.99456380208332,144.9079755774389L150.21793619791666,144.97245251387358L150.44130859375,145.03677376421788L150.66468098958333,145.10092101246119L150.88805338541667,145.1648988376061L151.11142578125,145.22873471366862L151.33479817708334,145.2924103246381L151.55817057291668,145.3559485655278L151.78154296875002,145.41955091245472L152.00491536458335,145.48294262525937L152.22828776041666,145.54614201995233L152.45166015625,145.60916741254428L152.67503255208334,145.67201422403255L152.89840494791667,145.73466413840652L153.12177734375,145.79714920868474L153.34514973958335,145.8594694348673L153.56852213541666,145.92161107994616L153.79189453125,145.98361535494527L154.01526692708333,146.0454410488407L154.23863932291667,146.10708816163242L154.46201171875,146.16857958833378L154.68538411458331,146.22993822395802L154.90875651041665,146.2911411734919L155.13212890625,146.352193015938L155.35550130208333,146.4130616982778L155.57887369791666,146.47381132654846L155.80224609375,146.53443274274468L156.0256184895833,146.59488015683988L156.24899088541665,146.65518104285002L156.47236328125,146.71532624276978L156.69573567708335,146.77532491460443L156.91910807291669,146.83518621635935L157.14248046875002,146.89490556903183L157.36585286458333,146.95447839361924L157.58922526041667,147.01390011111897L157.81259765625,147.07320735355216L158.03597005208334,147.13235890989503L158.25934244791668,147.1913547801475L158.48271484375002,147.2502087013175L158.70608723958333,147.3089344104131L158.92945963541666,147.36751359142363L159.15283203125,147.42595998135707L159.37620442708334,147.48426900121072L159.59957682291667,147.5424681250006L159.82294921874998,147.6004840886841L160.04632161458332,147.65838557730117L160.26969401041666,147.71616801184913L160.49306640625,147.77379018130404L160.71643880208333,147.83131161270043L160.93981119791667,147.88869567401707L161.16318359374998,147.94592404924333L161.38655598958331,148.00302421239516L161.60992838541665,148.0600099004805L161.83330078125,148.1168582184861L162.05667317708335,148.17356916641197L162.2800455729167,148.2301381652554L162.50341796875,148.28660642604032L162.72679036458334,148.34291900073487L162.95016276041667,148.39908504734439L163.17353515625,148.45515035589537L163.39690755208335,148.5110782943666L163.62027994791669,148.56687344176075L163.84365234375,148.62256327209374L164.06702473958333,148.6781248903523L164.29039713541667,148.7335720335444L164.51376953125,148.78890012266737L164.73714192708334,148.84410457871854L164.96051432291665,148.89918540169793L165.18388671875,148.95414259160557L165.40725911458333,149.00897614844143L165.63063151041666,149.0636769142002L165.85400390625,149.11824030987918L166.07737630208334,149.172712125505L166.30074869791665,149.22705115005374L166.52412109374998,149.28124822552007L166.74749348958332,149.3353537209332L166.97086588541666,149.3893538992852L167.19423828125,149.44321670755744L167.41761067708333,149.49699709378183L167.64098307291667,149.55063095192114L167.86435546875,149.60416865100464L168.08772786458334,149.65759187502164L168.31110026041668,149.71088230796158L168.53447265625002,149.76405826583505L168.75784505208335,149.81711974864203L168.98121744791666,149.87007133538526L169.20458984375,149.92288555204868L169.42796223958334,149.9756036096563L169.65133463541667,150.02818887618682L169.87470703125,150.0806779836615L170.09807942708335,150.13304803706706L170.32145182291666,150.18530361540616L170.54482421875,150.23745845568678L170.76819661458333,150.28947134688497L170.99156901041667,150.34139265803L171.21494140625,150.39319949410856L171.43831380208331,150.44491017113128L171.66168619791665,150.49648347807425L171.88505859375,150.54796062596142L172.10843098958333,150.59934619379538L172.33180338541666,150.65056233853102L172.55517578125,150.70172353523472L172.7785481770833,150.75276109886667L173.00192057291665,150.80366129241884L173.22529296875,150.85452485394973L173.44866536458335,150.9052418873956L173.67203776041669,150.95583528776964L173.89541015625002,151.0063050550719L174.11878255208333,151.05666034730774L174.34215494791667,151.10693321749568L174.56552734375,151.15709619161981L174.78889973958334,151.20714926968017L175.01227213541668,151.25714282070598L175.23564453125002,151.30698984364668L175.45901692708333,151.3567498655369L175.68238932291666,151.40642746537924L175.90576171875,151.45596311613917L176.12913411458334,151.50541634485126L176.35250651041667,151.5547505194942L176.57587890624998,151.60400227208933L176.79925130208332,151.65312581261L177.02262369791666,151.70216693108281L177.24599609375,151.75111646950245L177.46936848958333,151.79996984886625L177.69274088541667,151.84869501615566L177.91611328124998,151.8973240243892L178.13948567708331,151.9458706105749L178.36285807291665,151.99428898468614L178.58623046875,152.04262035774687L178.80960286458335,152.09084183474383L179.0329752604167,152.13898546869558L179.25634765625,152.18701462758085L179.47972005208334,152.23496136441827L179.70309244791667,152.28281194219988L179.92646484375,152.33056178192297L180.14983723958335,152.3781879885743L180.37320963541669,152.42575008918843L180.59658203125,152.4731702407201L180.81995442708333,152.52050797020397L181.04332682291667,152.56774954063195L181.26669921875,152.61489495200414L181.49007161458334,152.66193046731254L181.71344401041665,152.7088789815704L181.93681640625,152.75574049477777L182.16018880208333,152.8025150069346L182.38356119791666,152.8491842020303L182.60693359375,152.8957755540808L182.83030598958334,152.94223869405687L183.05367838541665,152.98862399098775L183.27705078124998,153.03490854986012L183.50042317708332,153.08112442369261L183.72379557291666,153.12717545342943L183.94716796875,153.1731806931396L184.17054036458333,153.21908519479138L184.39391276041667,153.2648981163899L184.61728515625,153.3106286159406L184.84065755208334,153.3562721144408L185.06402994791668,153.40179655887187L185.28740234375002,153.44727521327633L185.51077473958335,153.49263023460904L185.73414713541666,153.53792114990452L185.95751953125,153.58312048514685L186.18089192708334,153.62822366133332L186.40426432291667,153.67321236245334L186.62763671875,153.7181415365388L186.85100911458335,153.7629791305711L187.07438151041666,153.80771598654488L187.29775390625,153.8523749994735L187.52112630208333,153.89694243234894L187.74449869791667,153.94142286417386L187.96787109375,153.98580255794027L188.19124348958331,154.03011356666684L188.41461588541665,154.07435589035353L188.63798828125,154.1184974759817L188.86136067708333,154.16257037657005L189.08473307291666,154.20652880209187L189.30810546875,154.25042312157652L189.5314778645833,154.29423044001064L189.75485026041665,154.33795075739422L189.97822265625,154.38158865273L190.20159505208335,154.4251441260179L190.42496744791669,154.4686309142659L190.64833984375002,154.51199864844483L190.87171223958333,154.55532059259713L191.09508463541667,154.59854179869097L191.31845703125,154.6416851617396L191.54182942708334,154.6847415237377L191.76520182291668,154.72772920069596L191.98857421875002,154.77062071859837L192.21194661458333,154.8134114984423L192.43531901041666,154.85614275125167L192.65869140625,154.89877784500518L192.88206380208334,154.94133967471618L193.10543619791667,154.9838145033767L193.32880859374998,155.02619317298132L193.55218098958332,155.06851231555146L193.77555338541666,155.11071240405244L193.99892578125,155.15283922851086L194.22229817708333,155.19489736792943L194.44567057291667,155.2368868223081L194.66904296874998,155.27877095962566L194.89241536458331,155.32060472791392L195.11578776041665,155.3623514951517L195.33916015625,155.40400210333368L195.56253255208335,155.4455657104651L195.7859049479167,155.4870468955487L196.00927734375,155.52844565858445L196.23264973958334,155.56977573658028L196.45602213541667,155.611000497515L196.67939453125,155.65219778443375L196.90276692708335,155.69329433329403L197.12613932291669,155.73433135511974L197.34951171875,155.77525848088166L197.57288411458333,155.81615355362496L197.79625651041667,155.85693415130177L198.01962890625,155.89768727496266L198.24300130208334,155.93834423956773L198.46637369791665,155.9789508351435L198.68974609375,156.0194383766502L198.91311848958333,156.05990302314362L199.13649088541666,156.1002715105812L199.35986328125,156.14054841796556L199.58323567708334,156.18077953532338L199.80660807291665,156.22092365163067L200.02998046874998,156.2610082409034L200.25335286458332,156.30101956613362L200.47672526041666,156.34094846931595L200.70009765625,156.3808361614744L200.92347005208333,156.42060937856633L201.14684244791667,156.46030017361045L201.37021484375,156.49991770461202L201.59358723958334,156.53947112957636L201.81695963541668,156.57894671149552L202.04033203125002,156.61834445036948L202.26370442708335,156.65768724121153L202.48707682291666,156.6969384520004L202.71044921875,156.73613013575473L202.93382161458334,156.77524397646388L203.15719401041667,156.81428913213313L203.38056640625,156.8532335497439L203.60393880208335,156.89215965134403L203.82731119791666,156.93099875189364L204.05068359375,156.96976458840072L204.27405598958333,157.00844800285995L204.49742838541667,157.04709936430055L204.72080078125,157.08564540868005L204.94417317708331,157.12415940004092L205.16754557291665,157.16259096935391L205.39091796875,157.20094011661905L205.61429036458333,157.23923431585231L205.83766276041666,157.277468988051L206.06103515625,157.31560292219123L206.2844075520833,157.35368190829954L206.50777994791665,157.39168763036528L206.73115234375,157.4296200883885L206.95452473958335,157.46751591439048L207.17789713541669,157.50528810732067L207.40126953125002,157.54302366822958L207.62464192708333,157.58065849108L207.84801432291667,157.61827957692248L208.07138671875,157.65579534570375L208.29475911458334,157.69328821947175L208.51813151041668,157.73066203917068L208.74150390625002,157.7680083848536L208.96487630208333,157.80528604549667L209.18824869791666,157.8424675470839L209.41162109375,157.87961241664985L209.63499348958334,157.91669775918126L209.85836588541667,157.9537144166728L210.08173828124998,157.99066238912445L210.30511067708332,158.0275737295548L210.52848307291666,158.06437517392138L210.75185546875,158.10115830227733L210.97522786458333,158.13786816659075L211.19860026041667,158.17450934586424L211.42197265624998,158.21109557710588L211.64534505208331,158.24760854430497L211.86871744791665,158.28408945848543L212.09208984375,158.3204833716154L212.31546223958335,158.35681775771081L212.5388346354167,158.39310177477697L212.76220703125,158.42931252780062L212.98557942708334,158.4654683327923L213.20895182291667,158.50156461074948L213.43232421875,158.53760136167207L213.65569661458335,158.57358774356544L213.87906901041669,158.6094962824136L214.10244140625,158.64534529422718L214.32581380208333,158.68113477900624L214.54918619791667,158.71686015774807L214.77255859375,158.75250311444202L214.99593098958334,158.78809570210677L215.21930338541665,158.82363792074224L215.44267578125,158.85911145433784L215.66604817708333,158.89452088189623L215.88942057291666,158.92985704541206L216.11279296875,158.9651062078774L216.33616536458334,159.00033705433208L216.55953776041665,159.03548547873896L216.78291015624998,159.07055148109794L217.00628255208332,159.10556253542504L217.22965494791666,159.14054611573616L217.45302734375,159.17546559001008L217.67639973958333,159.21028890522817L217.89977213541667,159.24509390443563L218.12314453125,159.27981648159525L218.34651692708334,159.31450242673358L218.56988932291668,159.3491242658347L218.79326171875002,159.38368199889857L219.01663411458335,159.41818478393057L219.24000651041666,159.45264635793865L219.46337890625,159.4870117728909L219.68675130208334,159.52134055582187L219.91012369791667,159.55560981171828L220.13349609375,159.5898195405801L220.35686848958335,159.62398347941536L220.58024088541666,159.65806499620277L220.80361328125,159.69210988096893L221.02698567708333,159.7261043967058L221.25035807291667,159.7600210693975L221.47373046875,159.79389195206267L221.69710286458331,159.82770788669586L221.92047526041665,159.8614551362892L222.14384765625,159.8951611748586L222.36722005208333,159.92878479138017L222.59059244791666,159.9623992498964L222.81396484375,159.99591297035414L223.0373372395833,160.0293946377933L223.26070963541665,160.0628030411899L223.48408203125,160.0961564965546L223.70745442708335,160.12945958289006L223.93082682291669,160.16271687919894L224.15419921875002,160.1959009114653L224.37757161458333,160.22906662772098L224.60094401041667,160.2621545009315L224.82431640625,160.2951874261101L225.04768880208334,160.32817914026478L225.27106119791668,160.36111132738492L225.49443359375002,160.39397025046247L225.71780598958333,160.42677880451083L225.94117838541666,160.45955530554056L226.16455078125,160.49226770053306L226.38792317708334,160.5249022524804L226.61129557291667,160.55751848841706L226.83466796874998,160.59005230230588L227.05804036458332,160.62255864217877L227.28141276041666,160.6550008760144L227.50478515625,160.6873973198235L227.72815755208333,160.71976628961662L227.95152994791667,160.75204367935658L228.17490234374998,160.78427527906996L228.39827473958331,160.81644735174874L228.62164713541665,160.848559897393L228.84501953125,160.8806403900186L229.06839192708335,160.91264303959906L229.2917643229167,160.94460905715823L229.51513671875,160.97650181067488L229.73850911458334,161.00837166917822L229.96188151041667,161.0401911586523L230.18525390625,161.07194196308652L230.40862630208335,161.1036744515101L230.63199869791669,161.13532451788583L230.85537109375,161.16694253124297L231.07874348958333,161.1985055965682L231.30211588541667,161.22999997685352L231.52548828125,161.26146688312292L231.74886067708334,161.29287884136042L231.97223307291665,161.32424958857396L232.19560546875,161.3555562297503L232.41897786458333,161.38677586987615L232.64235026041666,161.41798177299398L232.86572265625,161.4491373070826L233.08909505208334,161.480228735134L233.31246744791665,161.51126979415616L233.53583984374998,161.54226506315172L233.75921223958332,161.57320996311805L233.98258463541666,161.6040724410365L234.20595703125,161.634921181947L234.42932942708333,161.6657424488415L234.65270182291667,161.69649503069618L234.87607421875,161.7271972435216L235.09944661458334,161.75783992931247L235.32281901041668,161.78846887809533L235.54619140625002,161.81901540483037L235.76956380208335,161.8495069835335L235.99293619791666,161.87998482522866L236.21630859375,161.91040771889192L236.43968098958334,161.94076650651792L236.66305338541667,161.97107034611207L236.88642578125,162.00136044869822L237.10979817708335,162.03158186624447L237.33317057291666,162.0617849677801L237.55654296875,162.09192854228118L237.77991536458333,162.12200801074505L238.00328776041667,162.15206000519296L238.22666015625,162.18205705160895L238.45003255208331,162.2120174660037L238.67340494791665,162.24191835336387L238.89677734375,162.2718009247134L239.12014973958333,162.30160565301776L239.34352213541666,162.33138290730614L239.56689453125,162.36110521356264L239.7902669270833,162.3908000458032L240.01363932291665,162.42044908801714L240.23701171875,162.4500294451912L240.46038411458335,162.47958232834935L240.68375651041669,162.50907110547027L240.90712890625002,162.5385232505699L241.13050130208333,162.56794334265092L241.35387369791667,162.59729932869473L241.57724609375,162.6266278407226L241.80061848958334,162.65590598372123L242.02399088541668,162.68513833669323L242.24736328125002,162.71433863664666L242.47073567708333,162.74346567255756L242.69410807291666,162.77257897146046L242.91748046875,162.8016419013341L243.14085286458334,162.83067277818918L243.36422526041667,162.859653286015L243.58759765624998,162.8885696878036L243.81097005208332,162.91746777358154L244.03434244791666,162.94629717431962L244.25771484375,162.97510825904706L244.48108723958333,163.00384607973197L244.70445963541667,163.03254268939298L244.92783203124998,163.061225562046L245.15120442708331,163.08983517065644L245.37457682291665,163.118389831235L245.59794921875,163.14690328078967" style="fill: none;" fill="none"></path></g></g></g></g></g></g><g transform="translate(61, 177)" clip-path="url(#clip_1)"><clipPath id="clip_1"><rect width="268" height="23"></rect></clipPath><g><g><line x1="0" y1="0" x2="0" y2="5" style="visibility: inherit;" fill="rgb(0, 0, 0)" stroke="rgb(204, 204, 204)" stroke-width="1px"></line><line x1="22.337239583333332" y1="0" x2="22.337239583333332" y2="5" style="visibility: inherit;" fill="rgb(0, 0, 0)" stroke="rgb(204, 204, 204)" stroke-width="1px"></line><line x1="44.674479166666664" y1="0" x2="44.674479166666664" y2="5" style="visibility: inherit;" fill="rgb(0, 0, 0)" stroke="rgb(204, 204, 204)" stroke-width="1px"></line><line x1="67.01171875" y1="0" x2="67.01171875" y2="5" style="visibility: inherit;" fill="rgb(0, 0, 0)" stroke="rgb(204, 204, 204)" stroke-width="1px"></line><line x1="89.34895833333333" y1="0" x2="89.34895833333333" y2="5" style="visibility: inherit;" fill="rgb(0, 0, 0)" stroke="rgb(204, 204, 204)" stroke-width="1px"></line><line x1="111.68619791666667" y1="0" x2="111.68619791666667" y2="5" style="visibility: inherit;" fill="rgb(0, 0, 0)" stroke="rgb(204, 204, 204)" stroke-width="1px"></line><line x1="134.0234375" y1="0" x2="134.0234375" y2="5" style="visibility: inherit;" fill="rgb(0, 0, 0)" stroke="rgb(204, 204, 204)" stroke-width="1px"></line><line x1="156.36067708333334" y1="0" x2="156.36067708333334" y2="5" style="visibility: inherit;" fill="rgb(0, 0, 0)" stroke="rgb(204, 204, 204)" stroke-width="1px"></line><line x1="178.69791666666666" y1="0" x2="178.69791666666666" y2="5" style="visibility: inherit;" fill="rgb(0, 0, 0)" stroke="rgb(204, 204, 204)" stroke-width="1px"></line><line x1="201.03515625" y1="0" x2="201.03515625" y2="5" style="visibility: inherit;" fill="rgb(0, 0, 0)" stroke="rgb(204, 204, 204)" stroke-width="1px"></line><line x1="223.37239583333334" y1="0" x2="223.37239583333334" y2="5" style="visibility: inherit;" fill="rgb(0, 0, 0)" stroke="rgb(204, 204, 204)" stroke-width="1px"></line><line x1="245.70963541666666" y1="0" x2="245.70963541666666" y2="5" style="visibility: inherit;" fill="rgb(0, 0, 0)" stroke="rgb(204, 204, 204)" stroke-width="1px"></line><line x1="268.046875" y1="0" x2="268.046875" y2="5" style="visibility: inherit;" fill="rgb(0, 0, 0)" stroke="rgb(204, 204, 204)" stroke-width="1px"></line></g><g transform="translate(0, 8)"><text x="0" y="0" dx="0em" dy="0.95em" style="text-anchor: middle; visibility: hidden; font-family: Roboto, sans-serif; font-size: 12px; font-weight: 200;" fill="rgb(33, 33, 33)" stroke="none" stroke-width="1px">39.8k</text><text x="22.337239583333332" y="0" dx="0em" dy="0.95em" style="text-anchor: middle; visibility: inherit; font-family: Roboto, sans-serif; font-size: 12px; font-weight: 200;" fill="rgb(33, 33, 33)" stroke="none" stroke-width="1px">40k</text><text x="44.674479166666664" y="0" dx="0em" dy="0.95em" style="text-anchor: middle; visibility: hidden; font-family: Roboto, sans-serif; font-size: 12px; font-weight: 200;" fill="rgb(33, 33, 33)" stroke="none" stroke-width="1px">40.2k</text><text x="67.01171875" y="0" dx="0em" dy="0.95em" style="text-anchor: middle; visibility: inherit; font-family: Roboto, sans-serif; font-size: 12px; font-weight: 200;" fill="rgb(33, 33, 33)" stroke="none" stroke-width="1px">40.4k</text><text x="89.34895833333333" y="0" dx="0em" dy="0.95em" style="text-anchor: middle; visibility: hidden; font-family: Roboto, sans-serif; font-size: 12px; font-weight: 200;" fill="rgb(33, 33, 33)" stroke="none" stroke-width="1px">40.6k</text><text x="111.68619791666667" y="0" dx="0em" dy="0.95em" style="text-anchor: middle; visibility: inherit; font-family: Roboto, sans-serif; font-size: 12px; font-weight: 200;" fill="rgb(33, 33, 33)" stroke="none" stroke-width="1px">40.8k</text><text x="134.0234375" y="0" dx="0em" dy="0.95em" style="text-anchor: middle; visibility: hidden; font-family: Roboto, sans-serif; font-size: 12px; font-weight: 200;" fill="rgb(33, 33, 33)" stroke="none" stroke-width="1px">41k</text><text x="156.36067708333334" y="0" dx="0em" dy="0.95em" style="text-anchor: middle; visibility: inherit; font-family: Roboto, sans-serif; font-size: 12px; font-weight: 200;" fill="rgb(33, 33, 33)" stroke="none" stroke-width="1px">41.2k</text><text x="178.69791666666666" y="0" dx="0em" dy="0.95em" style="text-anchor: middle; visibility: hidden; font-family: Roboto, sans-serif; font-size: 12px; font-weight: 200;" fill="rgb(33, 33, 33)" stroke="none" stroke-width="1px">41.4k</text><text x="201.03515625" y="0" dx="0em" dy="0.95em" style="text-anchor: middle; visibility: inherit; font-family: Roboto, sans-serif; font-size: 12px; font-weight: 200;" fill="rgb(33, 33, 33)" stroke="none" stroke-width="1px">41.6k</text><text x="223.37239583333334" y="0" dx="0em" dy="0.95em" style="text-anchor: middle; visibility: hidden; font-family: Roboto, sans-serif; font-size: 12px; font-weight: 200;" fill="rgb(33, 33, 33)" stroke="none" stroke-width="1px">41.8k</text><text x="245.70963541666666" y="0" dx="0em" dy="0.95em" style="text-anchor: middle; visibility: inherit; font-family: Roboto, sans-serif; font-size: 12px; font-weight: 200;" fill="rgb(33, 33, 33)" stroke="none" stroke-width="1px">42k</text><text x="268.046875" y="0" dx="0em" dy="0.95em" style="text-anchor: middle; visibility: hidden; font-family: Roboto, sans-serif; font-size: 12px; font-weight: 200;" fill="rgb(33, 33, 33)" stroke="none" stroke-width="1px">42.2k</text></g><line x1="0" y1="0" x2="268.046875" y2="0" fill="rgb(0, 0, 0)" stroke="rgb(204, 204, 204)" stroke-width="1px"></line></g></g></g></g></svg>