<svg viewBox="0 0 330 200" xmlns="http://www.w3.org/2000/svg"><g><g><g><g><g><line x1="41.171875" y1="177" x2="36.171875" y2="177" style="visibility: inherit;" fill="rgb(0, 0, 0)" stroke="rgb(204, 204, 204)" stroke-width="1px"></line><line x1="41.171875" y1="159.3" x2="36.171875" y2="159.3" style="visibility: inherit;" fill="rgb(0, 0, 0)" stroke="rgb(204, 204, 204)" stroke-width="1px"></line><line x1="41.171875" y1="141.6" x2="36.171875" y2="141.6" style="visibility: inherit;" fill="rgb(0, 0, 0)" stroke="rgb(204, 204, 204)" stroke-width="1px"></line><line x1="41.171875" y1="123.89999999999999" x2="36.171875" y2="123.89999999999999" style="visibility: inherit;" fill="rgb(0, 0, 0)" stroke="rgb(204, 204, 204)" stroke-width="1px"></line><line x1="41.171875" y1="106.2" x2="36.171875" y2="106.2" style="visibility: inherit;" fill="rgb(0, 0, 0)" stroke="rgb(204, 204, 204)" stroke-width="1px"></line><line x1="41.171875" y1="88.5" x2="36.171875" y2="88.5" style="visibility: inherit;" fill="rgb(0, 0, 0)" stroke="rgb(204, 204, 204)" stroke-width="1px"></line><line x1="41.171875" y1="70.8" x2="36.171875" y2="70.8" style="visibility: inherit;" fill="rgb(0, 0, 0)" stroke="rgb(204, 204, 204)" stroke-width="1px"></line><line x1="41.171875" y1="53.10000000000001" x2="36.171875" y2="53.10000000000001" style="visibility: inherit;" fill="rgb(0, 0, 0)" stroke="rgb(204, 204, 204)" stroke-width="1px"></line><line x1="41.171875" y1="35.39999999999999" x2="36.171875" y2="35.39999999999999" style="visibility: inherit;" fill="rgb(0, 0, 0)" stroke="rgb(204, 204, 204)" stroke-width="1px"></line><line x1="41.171875" y1="17.699999999999996" x2="36.171875" y2="17.699999999999996" style="visibility: inherit;" fill="rgb(0, 0, 0)" stroke="rgb(204, 204, 204)" stroke-width="1px"></line><line x1="41.171875" y1="0" x2="36.171875" y2="0" style="visibility: inherit;" fill="rgb(0, 0, 0)" stroke="rgb(204, 204, 204)" stroke-width="1px"></line></g><g transform="translate(31.171875, 0)"><text x="0" y="177" dx="0em" dy="0.3em" style="text-anchor: end; visibility: hidden; font-family: Roboto, sans-serif; font-size: 12px; font-weight: 200;" fill="rgb(33, 33, 33)" stroke="none" stroke-width="1px">0</text><text x="0" y="159.3" dx="0em" dy="0.3em" style="text-anchor: end; visibility: inherit; font-family: Roboto, sans-serif; font-size: 12px; font-weight: 200;" fill="rgb(33, 33, 33)" stroke="none" stroke-width="1px">0.1</text><text x="0" y="141.6" dx="0em" dy="0.3em" style="text-anchor: end; visibility: hidden; font-family: Roboto, sans-serif; font-size: 12px; font-weight: 200;" fill="rgb(33, 33, 33)" stroke="none" stroke-width="1px">0.2</text><text x="0" y="123.89999999999999" dx="0em" dy="0.3em" style="text-anchor: end; visibility: inherit; font-family: Roboto, sans-serif; font-size: 12px; font-weight: 200;" fill="rgb(33, 33, 33)" stroke="none" stroke-width="1px">0.3</text><text x="0" y="106.2" dx="0em" dy="0.3em" style="text-anchor: end; visibility: hidden; font-family: Roboto, sans-serif; font-size: 12px; font-weight: 200;" fill="rgb(33, 33, 33)" stroke="none" stroke-width="1px">0.4</text><text x="0" y="88.5" dx="0em" dy="0.3em" style="text-anchor: end; visibility: inherit; font-family: Roboto, sans-serif; font-size: 12px; font-weight: 200;" fill="rgb(33, 33, 33)" stroke="none" stroke-width="1px">0.5</text><text x="0" y="70.8" dx="0em" dy="0.3em" style="text-anchor: end; visibility: hidden; font-family: Roboto, sans-serif; font-size: 12px; font-weight: 200;" fill="rgb(33, 33, 33)" stroke="none" stroke-width="1px">0.6</text><text x="0" y="53.10000000000001" dx="0em" dy="0.3em" style="text-anchor: end; visibility: inherit; font-family: Roboto, sans-serif; font-size: 12px; font-weight: 200;" fill="rgb(33, 33, 33)" stroke="none" stroke-width="1px">0.7</text><text x="0" y="35.39999999999999" dx="0em" dy="0.3em" style="text-anchor: end; visibility: hidden; font-family: Roboto, sans-serif; font-size: 12px; font-weight: 200;" fill="rgb(33, 33, 33)" stroke="none" stroke-width="1px">0.8</text><text x="0" y="17.699999999999996" dx="0em" dy="0.3em" style="text-anchor: end; visibility: inherit; font-family: Roboto, sans-serif; font-size: 12px; font-weight: 200;" fill="rgb(33, 33, 33)" stroke="none" stroke-width="1px">0.9</text><text x="0" y="0" dx="0em" dy="0.3em" style="text-anchor: end; visibility: hidden; font-family: Roboto, sans-serif; font-size: 12px; font-weight: 200;" fill="rgb(33, 33, 33)" stroke="none" stroke-width="1px">1</text></g><line x1="41.171875" y1="0" x2="41.171875" y2="177" fill="rgb(0, 0, 0)" stroke="rgb(204, 204, 204)" stroke-width="1px"></line></g></g><g transform="translate(41, 0)" clip-path="url(#clip_0)"><clipPath id="clip_0"><rect width="288" height="177"></rect></clipPath><g><g><g><line x1="0" y1="0" x2="0" y2="177" fill="rgb(0, 0, 0)" stroke="rgb(66, 66, 66)" stroke-width="1px" opacity="0.25"></line><line x1="24.069010416666664" y1="0" x2="24.069010416666664" y2="177" fill="rgb(0, 0, 0)" stroke="rgb(66, 66, 66)" stroke-width="1px" opacity="0.25"></line><line x1="48.13802083333333" y1="0" x2="48.13802083333333" y2="177" fill="rgb(0, 0, 0)" stroke="rgb(66, 66, 66)" stroke-width="1px" opacity="0.25"></line><line x1="72.20703125" y1="0" x2="72.20703125" y2="177" fill="rgb(0, 0, 0)" stroke="rgb(66, 66, 66)" stroke-width="1px" opacity="0.25"></line><line x1="96.27604166666666" y1="0" x2="96.27604166666666" y2="177" fill="rgb(0, 0, 0)" stroke="rgb(66, 66, 66)" stroke-width="1px" opacity="0.25"></line><line x1="120.34505208333334" y1="0" x2="120.34505208333334" y2="177" fill="rgb(0, 0, 0)" stroke="rgb(66, 66, 66)" stroke-width="1px" opacity="0.25"></line><line x1="144.4140625" y1="0" x2="144.4140625" y2="177" fill="rgb(0, 0, 0)" stroke="rgb(66, 66, 66)" stroke-width="1px" opacity="0.25"></line><line x1="168.48307291666669" y1="0" x2="168.48307291666669" y2="177" fill="rgb(0, 0, 0)" stroke="rgb(66, 66, 66)" stroke-width="1px" opacity="0.25"></line><line x1="192.55208333333331" y1="0" x2="192.55208333333331" y2="177" fill="rgb(0, 0, 0)" stroke="rgb(66, 66, 66)" stroke-width="1px" opacity="0.25"></line><line x1="216.62109375" y1="0" x2="216.62109375" y2="177" fill="rgb(0, 0, 0)" stroke="rgb(66, 66, 66)" stroke-width="1px" opacity="0.25"></line><line x1="240.69010416666669" y1="0" x2="240.69010416666669" y2="177" fill="rgb(0, 0, 0)" stroke="rgb(66, 66, 66)" stroke-width="1px" opacity="0.25"></line><line x1="264.7591145833333" y1="0" x2="264.7591145833333" y2="177" fill="rgb(0, 0, 0)" stroke="rgb(66, 66, 66)" stroke-width="1px" opacity="0.25"></line><line x1="288.828125" y1="0" x2="288.828125" y2="177" fill="rgb(0, 0, 0)" stroke="rgb(66, 66, 66)" stroke-width="1px" opacity="0.25"></line></g><g><line x1="0" y1="177" x2="288.828125" y2="177" fill="rgb(0, 0, 0)" stroke="rgb(66, 66, 66)" stroke-width="1px" opacity="0.25"></line><line x1="0" y1="159.3" x2="288.828125" y2="159.3" fill="rgb(0, 0, 0)" stroke="rgb(66, 66, 66)" stroke-width="1px" opacity="0.25"></line><line x1="0" y1="141.6" x2="288.828125" y2="141.6" fill="rgb(0, 0, 0)" stroke="rgb(66, 66, 66)" stroke-width="1px" opacity="0.25"></line><line x1="0" y1="123.89999999999999" x2="288.828125" y2="123.89999999999999" fill="rgb(0, 0, 0)" stroke="rgb(66, 66, 66)" stroke-width="1px" opacity="0.25"></line><line x1="0" y1="106.2" x2="288.828125" y2="106.2" fill="rgb(0, 0, 0)" stroke="rgb(66, 66, 66)" stroke-width="1px" opacity="0.25"></line><line x1="0" y1="88.5" x2="288.828125" y2="88.5" fill="rgb(0, 0, 0)" stroke="rgb(66, 66, 66)" stroke-width="1px" opacity="0.25"></line><line x1="0" y1="70.8" x2="288.828125" y2="70.8" fill="rgb(0, 0, 0)" stroke="rgb(66, 66, 66)" stroke-width="1px" opacity="0.25"></line><line x1="0" y1="53.10000000000001" x2="288.828125" y2="53.10000000000001" fill="rgb(0, 0, 0)" stroke="rgb(66, 66, 66)" stroke-width="1px" opacity="0.25"></line><line x1="0" y1="35.39999999999999" x2="288.828125" y2="35.39999999999999" fill="rgb(0, 0, 0)" stroke="rgb(66, 66, 66)" stroke-width="1px" opacity="0.25"></line><line x1="0" y1="17.699999999999996" x2="288.828125" y2="17.699999999999996" fill="rgb(0, 0, 0)" stroke="rgb(66, 66, 66)" stroke-width="1px" opacity="0.25"></line><line x1="0" y1="0" x2="288.828125" y2="0" fill="rgb(0, 0, 0)" stroke="rgb(66, 66, 66)" stroke-width="1px" opacity="0.25"></line></g></g></g><g><g><line x1="0" y1="177" x2="288.828125" y2="177" fill="rgb(0, 0, 0)" stroke="rgb(153, 153, 153)" stroke-width="1.5px"></line></g></g><g><g><line x1="-4789.733072916666" y1="0" x2="-4789.733072916666" y2="177" fill="rgb(0, 0, 0)" stroke="rgb(153, 153, 153)" stroke-width="1.5px"></line></g></g><g><g><g><g><g><path stroke="rgb(255, 112, 67)" stroke-width="2px" d="M32.13212890625,-3.059046772815558L32.37281901041666,4.328008229846596L32.61350911458333,7.572876792097469L32.854199218750004,7.243475031787679L33.094889322916664,10.891113896698808L33.33557942708333,10.646403652895394L33.57626953125,16.369220630799337L33.816959635416666,17.005795127541628L34.05764973958333,15.454693179043144L34.29833984375,12.559114800499637L34.53902994791667,12.326432101731465L34.779720052083334,10.099818909445581L35.02041015625,14.831673358019133L35.26110026041667,12.19006436026488L35.50179036458333,7.400711891135877L35.74248046875,16.91411760277792L35.98317057291667,16.422535399580795L36.22386067708334,12.164031193601643L36.46455078125,16.57768524903953L36.705240885416664,14.478400599418343L36.94593098958334,21.211581465079455L37.18662109375,27.769731183657026L37.427311197916666,24.645327302343226L37.66800130208333,23.87819474403469L37.90869140625,20.398012108662165L38.14938151041667,25.072039968465344L38.39007161458333,20.24990717812554L38.63076171875,27.55230921313693L38.87145182291667,29.1697772854317L39.11214192708333,29.5454870758964L39.35283203125,25.315117075861824L39.59352213541667,24.589876263587215L39.83421223958333,25.938515524851738L40.074902343750004,21.70410050820783L40.315592447916664,22.05697057078284L40.55628255208333,24.694382271689573L40.79697265625,27.24819314105911L41.037662760416666,27.603159852849174L41.27835286458333,21.438098121541827L41.51904296875,23.526401424599367L41.75973307291667,27.275704453123428L42.000423177083334,29.563674354525055L42.241113281249994,33.03201508698834L42.48180338541667,36.72548907769352L42.722493489583336,40.85195160394495L42.963183593749996,42.50131302332222L43.20387369791667,47.07838106498014L43.44456380208334,49.85227008484551L43.68525390625,48.81286976610689L43.925944010416664,47.312089865738194L44.16663411458334,48.9109080115106L44.40732421875,43.54542140072744L44.648014322916666,40.675198322402586L44.88870442708333,34.54768647535501L45.12939453125,33.95173184920604L45.37008463541667,32.919138121931844L45.610774739583334,31.167024397171776L45.85146484375,39.28459307656251L46.09215494791666,45.61548348325712L46.332845052083336,44.069532945706634L46.57353515625,47.47719609998553L46.81422526041666,50.78887184081026L47.05491536458333,50.06385115442419L47.295605468750004,50.42036217988007L47.536295572916664,52.674840240723036L47.77698567708333,51.26381195671878L48.017675781250006,54.543801376593855L48.258365885416666,45.98146730074646L48.49905598958333,49.842676694970955L48.73974609375,50.42284050850691L48.98043619791667,55.80734151860198L49.221126302083334,63.41004234213811L49.46181640625,66.46940327628245L49.70250651041667,64.34866703297605L49.943196614583336,68.23440280566709L50.183886718749996,67.5908064246804L50.42457682291667,65.81918747426215L50.66526692708333,62.45067627186558L50.90595703125,62.877382536377375L51.14664713541667,65.4154815949453L51.38733723958333,65.6386660915596L51.62802734375,55.73585941641248L51.86871744791667,58.49835998416513L52.10940755208333,61.92142730238076L52.35009765625,64.49440616991699L52.59078776041667,70.34692853592826L52.831477864583334,71.00225090903591L53.07216796875,69.97450982270485L53.31285807291666,67.73962468097545L53.553548177083336,63.72364684493803L53.79423828125,63.62326458336077L54.03492838541666,63.200336255559286L54.27561848958334,64.09019129906468L54.51630859375,63.12774884251209L54.756998697916664,66.8627471649459L54.99768880208334,68.54860512207487L55.23837890625,66.77947087916124L55.479069010416666,72.00230070616816L55.71975911458333,68.61544121238349L55.96044921875,65.15280441787006L56.20113932291667,70.74784445044388L56.44182942708333,77.4235750796561L56.68251953125,74.8724001576235L56.92320963541667,79.21532397307817L57.16389973958333,79.132521560493L57.40458984375,70.75167215323653L57.64527994791667,70.49944101934595L57.88597005208333,68.26629788211947L58.126660156250004,74.95787293737713L58.367350260416664,72.61779626230859L58.60804036458333,70.49033998664588L58.84873046875,69.97844911190964L59.089420572916666,66.67204170682506L59.33011067708333,71.03249550468507L59.57080078125,72.21996201759009L59.81149088541667,68.32217263130687L60.052180989583334,70.87597061751956L60.292871093749994,74.25596900032899L60.53356119791667,81.52888583339805L60.774251302083336,80.76131840306564L61.014941406249996,82.38168423976933L61.25563151041667,82.8297160951808L61.49632161458334,85.43859950411438L61.73701171875,85.7680314001093L61.977701822916664,77.70885858270724L62.21839192708334,80.95714574721018L62.45908203125,78.32345508072025L62.699772135416666,87.70459044006067L62.94046223958333,84.84675215503849L63.18115234375,87.63873256700259L63.42184244791667,85.46732184852776L63.662532552083334,86.31717263909671L63.90322265625,83.778773242255L64.14391276041667,82.57485051871932L64.38460286458334,87.87120926715212L64.62529296875,82.81377319365563L64.86598307291666,84.043785954474L65.10667317708332,82.80605750875361L65.34736328125,86.89564605034738L65.58805338541667,88.3900285063374L65.82874348958333,91.7035970030775L66.06943359375,90.11318993080063L66.31012369791667,92.05585269537292L66.55081380208333,78.93404124901073L66.79150390625,81.51456937372984L67.03219401041667,74.83676351452114L67.27288411458333,79.39682339902117L67.51357421875001,83.60922153016246L67.75426432291667,76.56496737973147L67.99495442708333,80.7445693081717L68.23564453125,85.88398910690151L68.47633463541666,91.90440374913854L68.71702473958334,86.50104613544976L68.95771484375,92.8855036492541L69.19840494791667,101.76766607128738L69.43909505208333,94.97116448849964L69.67978515624999,99.26174827313842L69.92047526041667,101.21921987252573L70.16116536458334,99.09046440853388L70.40185546875,95.68889170514512L70.64254557291667,99.50521428288593L70.88323567708333,97.89024731041253L71.12392578125,96.17321967102099L71.36461588541667,101.54870307856406L71.60530598958333,100.33948528499292L71.84599609375,101.03866323018778L72.08668619791666,103.10837523885336L72.32737630208334,104.21905896264525L72.56806640625,101.14311968245674L72.80875651041667,97.20766928560393L73.04944661458333,94.41495232396805L73.29013671874999,98.58434045404978L73.53082682291667,98.3482538528505L73.77151692708334,97.46639581857228L74.01220703125,91.6283964223711L74.25289713541666,87.73206046875703L74.49358723958333,80.44032263085356L74.73427734375,85.02277613937942L74.97496744791667,91.48593488740991L75.21565755208334,93.52110503044184L75.45634765624999,101.39928999981448L75.69703776041666,100.41697648518218L75.93772786458334,96.50778845829116L76.17841796875,96.2468653331784L76.41910807291667,96.08509553158979L76.65979817708335,96.85425461478789L76.90048828124999,101.80137349087207L77.14117838541667,99.79280003442929L77.38186848958334,96.77920026409281L77.62255859375,95.59733156027517L77.86324869791667,97.87462359596985L78.10393880208333,98.94621666613975L78.34462890625,103.9169658489526L78.58531901041667,97.97552315533167L78.82600911458333,96.23621070098882L79.06669921875,100.43497481117252L79.30738932291668,103.8984123283196L79.54807942708332,99.84728804537204L79.78876953125,104.75708884245991L80.02945963541667,94.9260906954355L80.27014973958333,93.53388267197188L80.51083984375,101.75494726747652L80.75152994791667,105.5899257361919L80.99222005208333,105.16995620131733L81.23291015625,105.53330567002489L81.47360026041667,102.92301084613955L81.71429036458333,102.3985636215699L81.95498046875,104.88443868011572L82.19567057291667,108.38349571943552L82.43636067708333,108.12116396522737L82.67705078125,110.04041962700063L82.91774088541668,111.54833923877852L83.15843098958332,104.38668433905903L83.39912109375,101.01519541407635L83.63981119791667,101.07360147806016L83.88050130208333,104.64091302253412L84.12119140625,105.22141289550149L84.36188151041667,106.3897936152465L84.60257161458333,107.58359618441636L84.84326171875,106.7198924955239L85.08395182291666,102.44142300578038L85.32464192708333,107.47281163884863L85.56533203125001,105.15002592765221L85.80602213541665,111.55305073649033L86.04671223958333,106.13504950595176L86.28740234375,104.59995130214911L86.52809244791666,97.95583742073235L86.76878255208334,100.5660826918368L87.00947265625001,104.7185510978607L87.25016276041666,101.96125281337956L87.49085286458333,100.14089300421128L87.73154296875,95.7831813270827L87.97223307291667,99.99008178909459L88.21292317708334,98.14852163354428L88.45361328125,93.55332678683499L88.69430338541666,72.84410321814138L88.93499348958333,75.78486522517457L89.17568359375001,80.1788387018987L89.41637369791667,78.87594897894449L89.65706380208333,86.36507611750274L89.89775390625,95.08606839798856L90.13844401041666,92.44974747199193L90.37913411458334,100.22161462822258L90.61982421875,98.81296894485712L90.86051432291667,98.9454887194233L91.10120442708333,95.33677211863174L91.34189453124999,96.78666500816641L91.58258463541667,101.63550638612031L91.82327473958334,108.56353113516903L92.06396484375,114.4853898651579L92.30465494791666,117.19264799890348L92.54534505208333,115.57329857776507L92.78603515625,109.51720595701491L93.02672526041667,113.85439275180464L93.26741536458334,114.24806801657012L93.50810546874999,110.56655012710995L93.74879557291666,118.37657380615954L93.98948567708334,118.54402314237979L94.23017578125,121.65036166995546L94.47086588541667,121.62160909008806L94.71155598958335,119.57301649317601L94.95224609374999,113.0015629161633L95.19293619791667,112.89087175760562L95.43362630208334,111.93715688136335L95.67431640625,111.88406431911083L95.91500651041667,116.01214483569218L96.15569661458333,116.9738462999674L96.39638671875,110.77157877566118L96.63707682291667,118.61889476920524L96.87776692708333,115.47211212392934L97.11845703125,118.16109238645465L97.35914713541668,120.9041845328095L97.59983723958332,124.19782074502965L97.84052734375,117.81026533811774L98.08121744791667,111.77892028545926L98.32190755208333,109.4658045113531L98.56259765625,112.48550594571806L98.80328776041667,115.46319819667798L99.04397786458333,109.15145750982651L99.28466796875,105.39589435373219L99.52535807291667,110.5227689366696L99.76604817708333,112.7154372748659L100.00673828125,112.26978261207947L100.24742838541667,120.42175202815064L100.48811848958333,121.60459172724347L100.72880859375,118.23465531467328L100.96949869791668,118.40155596851451L101.21018880208332,115.73723277901922L101.45087890625,109.5805398858016L101.69156901041667,110.09564419082206L101.93225911458333,109.62336570017656L102.17294921875,112.78081839675205L102.41363932291667,101.4845899414579L102.65432942708333,107.1015140590318L102.89501953125,107.64904440261904L103.13570963541666,112.91177050823357L103.37639973958333,108.75616101069757L103.61708984375001,110.04442266141182L103.85777994791665,112.43979972414022L104.09847005208333,116.21039014309123L104.33916015625,114.14041829108776L104.57985026041666,117.86308157443668L104.82054036458334,121.42893336117001L105.06123046875001,121.77118480324532L105.30192057291666,123.20119453167747L105.54261067708333,125.59963159518107L105.78330078125,130.86326787079702L106.02399088541667,129.67325447960957L106.26468098958334,125.86764424216163L106.50537109375,127.00100912389289L106.74606119791666,123.14650030920609L106.98675130208333,122.35522105486955L107.22744140625001,118.9355654473445L107.46813151041667,115.2531537159555L107.70882161458333,115.6089909052271L107.94951171875,119.25661788685466L108.19020182291666,115.86490263186572L108.43089192708334,120.01155518704795L108.67158203125,117.83909673066252L108.91227213541667,115.00237470127198L109.15296223958333,116.36530323034168L109.39365234374999,120.58392911915496L109.63434244791667,123.4164405327202L109.87503255208334,124.7705068060685L110.11572265625,122.96748371672066L110.35641276041666,119.74618170461203L110.59710286458333,116.9688595299017L110.83779296875,115.68871575507256L111.07848307291667,113.80566435386922L111.31917317708334,116.48145772878476L111.55986328124999,118.06085446170287L111.80055338541666,120.43331632368817L112.04124348958334,120.91335756463255L112.28193359375,125.15766158805246L112.52262369791667,127.8655809649305L112.76331380208335,124.14025661059034L113.00400390624999,126.76015881663808L113.24469401041667,123.22331932358941L113.48538411458334,117.38011469382445L113.72607421875,122.30287763228735L113.96676432291667,120.7953912774779L114.20745442708333,122.23494262179197L114.44814453125,125.82908314709235L114.68883463541667,130.4704223235001L114.92952473958333,128.43812358057892L115.17021484375,121.34574947696046L115.41090494791668,124.28178971561682L115.65159505208332,126.78166340830244L115.89228515625,130.10434523655826L116.13297526041667,131.7146007840542L116.37366536458333,131.3706044415401L116.61435546875,127.60561091381443L116.85504557291667,121.43157506528006L117.09573567708333,124.03344312145319L117.33642578125,120.12512557970686L117.57711588541667,122.25166094316802L117.81780598958333,124.09625875960798L118.05849609375,129.58893389710593L118.29918619791667,126.06340977318135L118.53987630208333,130.08615102284784L118.78056640625,129.69747239083955L119.02125651041668,125.01878867531546L119.26194661458332,130.0799865592299L119.50263671875,134.29430696815476L119.74332682291667,136.06674444437206L119.98401692708333,135.2632068614974L120.22470703125,134.82476342883226L120.46539713541667,136.2132283601484L120.70608723958333,138.74099223938157L120.94677734375,136.0363255371775L121.18746744791666,133.11216451566423L121.42815755208333,131.1269345310609L121.66884765625001,136.3295418373569L121.90953776041665,135.87159839088318L122.15022786458333,139.37359703631873L122.39091796875,139.21217001618285L122.63160807291666,138.5312295378553L122.87229817708334,138.87196055720705L123.11298828125001,136.19356967147556L123.35367838541666,134.60717017957663L123.59436848958333,137.4652398139961L123.83505859375,134.5158593285662L124.07574869791667,133.38536710767602L124.31643880208334,138.9987804286969L124.55712890625,135.58557561582663L124.79781901041666,139.49404916750464L125.03850911458333,139.42552408148507L125.27919921875001,137.6895205344332L125.51988932291667,137.56196492934805L125.76057942708333,137.3993849458264L126.00126953125,134.89912239328754L126.24195963541666,133.991796528226L126.48264973958334,132.11120215449796L126.72333984375,133.8369804324235L126.96402994791667,130.89885813009943L127.20472005208333,135.8101058886425L127.44541015624999,136.65347714312682L127.68610026041667,139.85176634162912L127.92679036458334,140.24863381183346L128.16748046875,140.92652287380852L128.40817057291667,132.1211785022176L128.64886067708335,132.75176399797255L128.88955078125,135.4333017277722L129.13024088541667,137.34701325857674L129.37093098958334,140.01943157703906L129.61162109375,141.63750545156978L129.85231119791666,143.39620983479804L130.09300130208334,143.4950212379566L130.33369140624998,145.61000571769642L130.57438151041666,143.74207137820852L130.81507161458333,143.95102286873447L131.05576171875,140.4665413005208L131.29645182291668,139.04533213897983L131.53714192708335,141.2579562169269L131.77783203125,140.51050528204087L132.01852213541667,136.79842962078763L132.25921223958335,139.2529780398012L132.49990234375,140.19585360429295L132.74059244791667,135.85009981267936L132.98128255208331,128.05464688200382L133.22197265625,131.26910091248058L133.46266276041666,131.81546817467137L133.70335286458334,137.59212573117432L133.94404296875,137.2568411727462L134.18473307291666,140.3605372200182L134.42542317708333,142.50639394837785L134.66611328125,144.71003037228715L134.90680338541668,144.92605042981728L135.14749348958333,147.91633322956264L135.38818359375,145.21853460468532L135.62887369791667,145.68488431650545L135.86956380208332,141.91203749122735L136.11025390625,143.04637217475982L136.35094401041667,142.04723886810947L136.59163411458334,140.03560597032873L136.83232421875,138.27242019439197L137.07301432291666,142.66086003513698L137.31370442708334,141.14153490628055L137.55439453125,140.6592543933014L137.79508463541669,144.79081573541723L138.03577473958333,146.34036151334254L138.27646484375,147.25713422608067L138.51715494791665,144.17155990967504L138.75784505208333,139.9382115202693L138.99853515625,140.04577240427716L139.23922526041665,144.27789725278126L139.47991536458332,139.71942176750744L139.72060546875,143.92267282967921L139.96129557291667,140.17681066922472L140.20198567708334,138.8747994798988L140.44267578125002,139.3382809498763L140.68336588541666,140.1220288069134L140.92405598958334,140.39901006349604L141.16474609375,141.848326991031L141.40543619791666,142.08063245616708L141.64612630208333,136.58768160384778L141.88681640625,136.86764695737267L142.12750651041665,136.96113023653433L142.36819661458333,140.18672105765188L142.60888671875,139.0545232959258L142.84957682291667,130.2613142901792L143.09026692708335,134.82148356927507L143.33095703125,135.539538137659L143.57164713541667,134.92189628485409L143.81233723958334,132.78778186324092L144.05302734375002,133.99578268732907L144.29371744791666,136.65654010996246L144.5344075520833,135.10132466495057L144.77509765624998,136.86129748415962L145.01578776041666,132.1636318949224L145.25647786458333,136.64032394090185L145.49716796875,139.86375066955003L145.73785807291668,143.01906447664192L145.97854817708333,141.08683900380365L146.21923828125,143.44391323800272L146.45992838541667,140.92470206757693L146.70061848958335,143.63794958047316L146.94130859375002,143.0362359867672L147.18199869791667,141.49708191344578L147.42268880208331,142.2072707864796L147.66337890625,144.42509139205256L147.90406901041666,145.52739164730104L148.14475911458334,148.73211488674235L148.38544921875,150.22839608331643L148.62613932291666,153.24732045016782L148.86682942708333,153.94826017117182L149.10751953125,152.10249941484673L149.34820963541668,150.19307087708748L149.58889973958335,151.26319300213842L149.82958984375,138.0974651859553L150.07027994791665,139.5643657405258L150.31097005208332,139.76356737586505L150.55166015625,139.786750053546L150.79235026041667,138.5900897871901L151.03304036458334,139.80889459283745L151.27373046875002,141.35641639794187L151.51442057291666,142.64784174653113L151.75511067708334,144.1962139834342L151.99580078125,147.1285590473316L152.23649088541666,148.04970103053267L152.47718098958333,150.00454847006412L152.71787109375,150.96590489934613L152.95856119791665,147.00593629511778L153.19925130208333,144.2182517292705L153.43994140625,141.63382378360484L153.68063151041667,143.63306122832182L153.92132161458335,144.42442340701965L154.16201171875,141.5859777295601L154.40270182291667,142.87300356638525L154.64339192708334,141.0703895611532L154.88408203125,141.3045222698027L155.12477213541666,141.0806096743245L155.36546223958334,141.5213888755003L155.60615234374998,134.69634846612288L155.84684244791666,135.96839128446163L156.08753255208333,140.06047685304546L156.32822265625,138.5276594091198L156.56891276041668,142.11117135465074L156.80960286458335,144.09215173208656L157.05029296875,141.37561341590836L157.29098307291665,137.86404177123032L157.53167317708332,137.36568398434898L157.77236328125,140.56227174726308L158.01305338541667,143.74804211816934L158.25374348958334,145.43904869883653L158.49443359375,149.1738740926337L158.73512369791666,146.4335505734167L158.97581380208334,148.04910438619308L159.21650390625,149.95434204280178L159.45719401041669,149.95877484214148L159.69788411458333,149.59989089653365L159.93857421874998,152.17139927256483L160.17926432291665,153.16406205710473L160.41995442708333,150.48530830774072L160.66064453125,150.72015105750847L160.90133463541667,152.19428342733136L161.14202473958332,142.58757955553813L161.38271484375,144.31858806588397L161.62340494791667,145.3207350216559L161.86409505208334,144.36141229806356L162.10478515625002,146.697160045906L162.3454752604167,144.33047850080658L162.5861653645833,144.72473834473553L162.82685546874998,148.27179919347097L163.06754557291666,151.052383330285L163.30823567708333,153.17266178623393L163.54892578125,150.70590094423736L163.78961588541668,151.0049612339055L164.03030598958333,148.81763316418454L164.27099609375,148.20099500497759L164.51168619791667,148.4399435782876L164.75237630208335,147.98964157417984L164.99306640625002,147.41059409451938L165.23375651041667,141.68332287369137L165.47444661458331,144.60194917677217L165.71513671875,143.13063539193766L165.95582682291666,143.43824203015723L166.19651692708334,143.81159489513522L166.43720703125,147.97267984975247L166.67789713541666,149.8149600208113L166.91858723958333,151.5555950084575L167.15927734375,152.94499601705851L167.39996744791668,152.68853633629467L167.64065755208335,153.36444815071172L167.88134765625,153.64328042425115L168.12203776041665,153.4557098419062L168.36272786458332,153.08000633780892L168.60341796875,151.86962914399095L168.84410807291667,149.7306542063299L169.08479817708334,147.96452130095506L169.32548828125002,148.218494734894L169.56617838541666,149.69912844984194L169.80686848958334,149.46081222664088L170.04755859375,149.95460670348618L170.28824869791666,142.19504646584681L170.52893880208333,143.8798323750519L170.76962890625,146.30129702776856L171.01031901041665,145.63875313413294L171.25100911458333,144.35808183500887L171.49169921875,144.53201412160968L171.73238932291667,146.23854825297812L171.97307942708335,141.69388526399788L172.21376953125,146.08702001200007L172.45445963541667,148.4471425432037L172.69514973958334,146.9973665430602L172.93583984375,149.58979298706504L173.17652994791666,148.33254461118105L173.41722005208334,144.7854460309229L173.65791015624998,141.04912683211023L173.89860026041666,137.52747365110918L174.13929036458333,138.09524439294182L174.37998046875,138.9144664318883L174.62067057291668,138.9670163263101L174.86136067708335,139.45150412473828L175.10205078125,141.54812093260884L175.34274088541665,141.79704477336406L175.58343098958332,142.8403549438429L175.82412109375,145.53320564345216L176.06481119791667,144.41307820988254L176.30550130208334,147.8543538455173L176.54619140625,129.43530589373944L176.78688151041666,134.814118583755L177.02757161458334,139.08487379928928L177.26826171875,134.46570968930325L177.50895182291669,138.35175564829032L177.74964192708333,138.96818450346407L177.99033203124998,140.69569811129426L178.23102213541665,139.65001597626093L178.47171223958333,138.97755687235264L178.71240234375,137.85442839204046L178.95309244791667,140.60703559230782L179.19378255208332,142.8130111456793L179.43447265625,141.0676077444062L179.67516276041667,138.8929576685989L179.91585286458334,140.54104277777387L180.15654296875002,144.08988075634014L180.3972330729167,146.29584905896718L180.6379231770833,143.6626547040076L180.87861328124998,145.78969544363267L181.11930338541666,144.83135781440933L181.35999348958333,148.1893488899175L181.60068359375,146.4979290980342L181.84137369791668,148.96295546438242L182.08206380208333,149.9475530391609L182.32275390625,151.75923286274477L182.56344401041667,150.8225090763601L182.80413411458335,153.41070207797546L183.04482421875002,155.02930830145328L183.28551432291667,157.52749280189033L183.52620442708331,156.29316692296314L183.76689453125,155.97594965293922L184.00758463541666,158.39278285390074L184.24827473958334,151.8371068552012L184.48896484375,154.57336028336482L184.72965494791666,153.469125089399L184.97034505208333,151.30795781699973L185.21103515625,150.88575923453297L185.45172526041668,151.1302745521905L185.69241536458335,149.83189553565518L185.93310546875,152.45484679030767L186.17379557291665,153.96860574801673L186.41448567708332,156.26257057533593L186.65517578125,155.28163953758025L186.89586588541667,155.3746459981739L187.13655598958334,149.33513768720147L187.37724609375002,150.28955352272604L187.61793619791666,151.71471579494886L187.85862630208334,154.818573321633L188.09931640625,154.35710372585652L188.34000651041666,156.622341632812L188.58069661458333,157.30642125753067L188.82138671875,159.03872344566386L189.06207682291665,158.52379105178915L189.30276692708333,157.29742589245956L189.54345703125,156.17780669948039L189.78414713541667,157.67096498744152L190.02483723958335,159.79384200159876L190.26552734375,160.12553185877536L190.50621744791667,159.45484780148536L190.74690755208334,159.55109536648487L190.98759765625,160.5254864767249L191.22828776041666,161.67927801609483L191.46897786458334,159.3437944889104L191.70966796874998,158.32152946412847L191.95035807291666,160.52449763065803L192.19104817708333,159.72692538397493L192.43173828125,160.5953735572853L192.67242838541668,157.28517516058753L192.91311848958335,158.674422081626L193.15380859375,159.9188556612067L193.39449869791665,161.22931817967952L193.63518880208332,160.4768066708188L193.87587890625,161.11435807080593L194.11656901041667,160.01651832128783L194.35725911458334,160.00897387149112L194.59794921875,158.01803262020888L194.83863932291666,153.97488506027653L195.07932942708334,155.46506729335462L195.32001953125,156.85464171010952L195.56070963541669,159.72206586128434L195.80139973958333,160.2945186413404L196.04208984374998,152.1577468269727L196.28277994791665,154.54789390692403L196.52347005208333,155.39796194358104L196.76416015625,155.24046013890452L197.00485026041667,146.66394161294895L197.24554036458332,149.73920631447234L197.48623046875,150.45027056367238L197.72692057291667,148.05548096025817L197.96761067708334,151.63654115234678L198.20830078125002,153.68630659727148L198.4489908854167,156.27618115065806L198.6896809895833,158.30384520997256L198.93037109374998,156.90174496320606L199.17106119791666,159.25186525551655L199.41175130208333,157.31836613033752L199.65244140625,155.78242491296564L199.89313151041668,158.4671599188378L200.13382161458333,155.52548643004343L200.37451171875,155.11105708024058L200.61520182291667,155.37910986535672L200.85589192708335,157.14645574266055L201.09658203125002,157.76226019580633L201.33727213541667,159.63400673866846L201.57796223958331,160.0025398686574L201.81865234375,160.9552718186415L202.05934244791666,162.26025825885233L202.30003255208334,155.41307443497416L202.54072265625,158.65219071228572L202.78141276041666,159.2179426543456L203.02210286458333,160.05416622251602L203.26279296875,160.2537276451018L203.50348307291668,159.48137543235035L203.74417317708335,160.94811170083335L203.98486328125,161.5468324385647L204.22555338541665,163.2019413203052L204.46624348958332,164.53413506269862L204.70693359375,163.7052424419555L204.94762369791667,163.8788347750809L205.18831380208334,164.05003285437078L205.42900390625002,165.3915683152616L205.66969401041666,166.42133283469795L205.91038411458334,163.96635410967446L206.15107421875,163.6418748992322L206.39176432291666,161.77126965603338L206.63245442708333,155.24971339051808L206.87314453125,157.77455991462776L207.11383463541665,159.34138516003614L207.35452473958333,156.81969269545655L207.59521484375,159.25255565042718L207.83590494791667,154.7304378127688L208.07659505208335,155.3375057052083L208.31728515625,155.5982712637788L208.55797526041667,153.7576408192639L208.79866536458334,155.53046358467137L209.03935546875,157.68357527998882L209.28004557291666,158.48942715076842L209.52073567708334,157.6914445531228L209.76142578124998,160.21206030373645L210.00211588541666,159.84408042232093L210.24280598958333,159.91653898527144L210.48349609375,157.1881176008377L210.72418619791668,149.01804143179206L210.96487630208335,151.4629582299888L211.20556640625,153.1819117965579L211.44625651041665,152.07672936934472L211.68694661458332,154.10198544784973L211.92763671875,154.21455970763836L212.16832682291667,156.37118356066682L212.40901692708334,154.828053874872L212.64970703125,155.6416201188977L212.89039713541666,154.70844109712564L213.13108723958334,154.63868707405345L213.37177734375,157.66434605483664L213.61246744791669,155.88871944001878L213.85315755208333,156.00068930577487L214.09384765624998,158.1997169341445L214.33453776041665,159.0344235860944L214.57522786458333,159.7461112872672L214.81591796875,159.6450969535837L215.05660807291667,161.73345641389326L215.29729817708332,163.32166206291188L215.53798828125,163.456841772901L215.77867838541667,163.35258774795687L216.01936848958334,163.03881371737367L216.26005859375002,161.51107301539855L216.5007486979167,162.27709225844683L216.7414388020833,163.28570505231693L216.98212890624998,163.9609447263187L217.22281901041666,162.7203147539501L217.46350911458333,157.29725592565575L217.70419921875,158.3001671685341L217.94488932291668,157.99764720577502L218.18557942708333,158.55667859050436L218.42626953125,158.51018481787287L218.66695963541667,159.73336533674592L218.90764973958335,160.984927312535L219.14833984375002,158.06437668283937L219.38902994791667,159.96208390508218L219.62972005208331,160.53077142915427L219.87041015625,162.0074374180043L220.11110026041666,161.86672755090427L220.35179036458334,162.49025316344125L220.59248046875,155.63701063240708L220.83317057291666,148.73229050513223L221.07386067708333,152.360185296594L221.31455078125,155.3378100889495L221.55524088541668,153.1445767231839L221.79593098958335,151.00542695407526L222.03662109375,153.0343466114756L222.27731119791665,154.46946670059415L222.51800130208332,148.16344015553832L222.75869140625,146.6757820119877L222.99938151041667,145.80512440962946L223.24007161458334,150.1817227163482L223.48076171875002,147.71175095209028L223.72145182291666,151.15645403380034L223.96214192708334,151.95929768355558L224.20283203125,153.246863124147L224.44352213541666,153.54010509639977L224.68421223958333,156.3589755195081L224.92490234375,158.8874114581108L225.16559244791665,159.81323748355388L225.40628255208333,159.65434644739054L225.64697265625,160.15617028620022L225.88766276041667,160.43853912499492L226.12835286458335,161.86061126587347L226.36904296875,163.71012446833694L226.60973307291667,164.65543192915555L226.85042317708334,166.48979329661972L227.09111328125,163.3902606961842L227.33180338541666,162.6022143496248L227.57249348958334,158.79719464347144L227.81318359374998,160.95411533457346L228.05387369791666,160.77132801536564L228.29456380208333,159.23781271436886L228.53525390625,160.84580908991157L228.77594401041668,162.74986198317814L229.01663411458335,164.74834349570122L229.25732421875,164.62588890347834L229.49801432291665,162.4771433538513L229.73870442708332,163.99432571535837L229.97939453125,163.9546317840062L230.22008463541667,161.05712612644376L230.46077473958334,163.25214465499354L230.70146484375,164.11392892060027L230.94215494791666,165.44227147550262L231.18284505208334,162.99017043770056L231.42353515625,163.19294032294115L231.66422526041669,165.1380661877081L231.90491536458333,163.4482368247378L232.14560546874998,163.83979930563115L232.38629557291665,163.2372548835146L232.62698567708333,164.1934513757958L232.86767578125,162.7284498655068L233.10836588541667,158.98388194090265L233.34905598958332,158.8864806218635L233.58974609375,159.28912494321196L233.83043619791667,161.0903165771725L234.07112630208334,156.82666956954498L234.31181640625002,158.41535179722942L234.5525065104167,161.53044909563573L234.7931966145833,163.36159666514922L235.03388671874998,162.59484757243814L235.27457682291666,164.17087328987697L235.51526692708333,164.57283753078087L235.75595703125,164.33207573231778L235.99664713541668,164.32651554832236L236.23733723958333,165.83780259707572L236.47802734375,166.72623018528225L236.71871744791667,166.3273333249903L236.95940755208335,166.71583944889238L237.20009765625002,161.20725227560462L237.44078776041667,162.16895554768732L237.68147786458331,164.4287335719531L237.92216796875,164.44514990416093L238.16285807291666,163.0891105935329L238.40354817708334,163.35419904979895L238.64423828125,162.78223595305548L238.88492838541666,162.82195712106835L239.12561848958333,158.03955560805332L239.36630859375,158.2383929332648L239.60699869791668,158.99575032814775L239.84768880208335,160.86873214512613L240.08837890625,163.3608405352199L240.32906901041665,159.61627077941606L240.56975911458332,159.8576083695651L240.81044921875,162.59358205647356L241.05113932291667,161.80856653005748L241.29182942708334,162.54584170342181L241.53251953125002,163.71142521146493L241.77320963541666,163.91806144133056L242.01389973958334,165.78857162226615L242.25458984375,163.91100956652065L242.49527994791666,165.280338475583L242.73597005208333,164.65682675846656L242.97666015625,164.1938093898355L243.21735026041665,165.5335121450948L243.45804036458333,163.15581748768707L243.69873046875,163.81032524290694L243.93942057291667,164.61758699070825L244.18011067708335,166.01241176007815L244.42080078125,167.28616755858465L244.66149088541667,164.6325895550283L244.90218098958334,165.0407899496402L245.14287109375,165.08544773975578L245.38356119791666,163.87455381746742L245.62425130208334,164.3734998644543L245.86494140624998,163.14328345933774L246.10563151041666,162.17394709510978L246.34632161458333,157.35712692080637L246.58701171875,158.9854960377113L246.82770182291668,161.1091240272499L247.06839192708335,161.31267010723167L247.30908203125,162.5613801309833L247.54977213541665,160.03023188546254L247.79046223958332,156.83473347413502L248.03115234375,159.74855431770652L248.27184244791667,161.89261026789043L248.51253255208334,158.86981121090489L248.75322265625,159.75838408778063L248.99391276041666,161.51762419917148L249.23460286458334,162.66249362585313L249.47529296875,162.88318978861864L249.71598307291669,162.9845324460935L249.95667317708333,159.88885644112202L250.19736328124998,156.07038447288014L250.43805338541665,157.0362427490142L250.67874348958333,159.147133079494L250.91943359375,161.36552094157534L251.16012369791667,161.03291811683573L251.40081380208332,160.14278332204657L251.64150390625,152.60831114102237L251.88219401041667,155.6629134037501L252.12288411458334,149.4870326215749L252.36357421875002,147.99437801199954L252.6042643229167,152.35909606095396L252.8449544270833,155.4129670392572L253.08564453124998,157.85025286971324L253.32633463541666,153.6701259547376L253.56702473958333,151.71120804022976L253.80771484375,153.9150084706841L254.04840494791668,151.86583920142635L254.28909505208333,153.84413696783054L254.52978515625,156.19268093969242L254.77047526041667,158.47561809840454L255.01116536458335,160.09690269344173L255.25185546875002,158.7513970932414L255.49254557291667,160.5949297535757L255.73323567708331,158.2585154196294L255.97392578125,157.20568347439544L256.21461588541666,159.16030593064727L256.45530598958334,157.9324473368907L256.69599609375,159.33800103835537L256.93668619791663,162.08574207792995L257.1773763020833,163.21978206943726L257.41806640625,160.91456648120285L257.65875651041665,156.6367011917353L257.8994466145833,158.63187393840911L258.14013671875,160.44828209144285L258.3808268229167,160.79027461300223L258.62151692708335,156.4743552777364L258.86220703125,159.14555172185655L259.1028971354167,158.51633408912463L259.3435872395833,159.28501333940778L259.58427734375,160.99334824079278L259.82496744791666,162.84831457282306L260.06565755208334,163.19346813764335L260.30634765625,164.72027211114695L260.5470377604167,164.1259602132434L260.78772786458336,163.1010135837789L261.02841796875003,163.92986872993075L261.26910807291665,165.32492525067659L261.5097981770833,165.7463124367037L261.75048828125,163.83972458322356L261.9911783854167,164.50554672304398L262.23186848958335,165.41395389103775L262.47255859374997,165.27184560896066L262.71324869791664,165.28940442354366L262.9539388020833,165.05832408488502L263.19462890625,163.33894564456313L263.43531901041666,161.93114637332414L263.67600911458334,162.15225819446448L263.91669921875,158.07479953426363L264.1573893229167,159.756092156734L264.3980794270833,160.42664909771358L264.63876953125,162.82992719775953" style="fill: none;" fill="none"></path></g></g></g></g><g opacity="0.2"><g><g><g><path stroke="rgb(255, 112, 67)" stroke-width="2px" d="M29.725227864583335,-34.139681696891785L29.96591796875,24.88559263944626L30.206608072916666,-69.00908732414246L30.68798828125,-31.70781719684601L30.928678385416667,14.740406513214111L31.16936848958333,-5.546083331108093L31.65074869791667,-4.718666195869446L31.891438802083332,15.794659674167633L32.13212890625,12.34892749786377L32.37281901041666,33.86124551296234L32.61350911458333,20.54708594083786L32.854199218750004,5.926295578479767L33.094889322916664,25.47788143157959L33.33557942708333,9.667765974998474L33.57626953125,39.25668507814407L33.816959635416666,19.551754653453827L34.05764973958333,9.250945150852203L34.29833984375,0.9777866005897522L34.53902994791667,11.395764648914337L34.779720052083334,1.1938510537147522L35.02041015625,33.75826674699783L35.26110026041667,1.6239965558052063L35.50179036458333,-11.756163954734802L35.74248046875,54.96689182519913L35.98317057291667,14.45624166727066L36.22386067708334,-4.869742512702942L36.46455078125,34.23209989070892L36.705240885416664,6.081338703632355L36.94593098958334,48.14410811662674L37.18662109375,54.00217670202255L37.427311197916666,12.14777022600174L37.66800130208333,20.809675991535187L37.90869140625,6.477323234081268L38.14938151041667,43.76810663938522L38.39007161458333,0.9614129662513733L38.63076171875,56.761872589588165L38.87145182291667,35.639641642570496L39.11214192708333,31.048324763774872L39.35283203125,8.393650352954865L39.59352213541667,21.688914835453033L39.83421223958333,31.33306986093521L40.074902343750004,4.7664472460746765L40.315592447916664,23.468450367450714L40.55628255208333,35.244026362895966L40.79697265625,37.463434517383575L41.037662760416666,29.02302646636963L41.27835286458333,-3.2221455574035645L41.51904296875,31.879613757133484L41.75973307291667,42.27291530370712L42.000423177083334,38.71555334329605L42.241113281249994,46.9053772687912L42.48180338541667,51.49938440322876L42.722493489583336,57.357801139354706L42.963183593749996,49.09875851869583L43.20387369791667,65.38665282726288L43.44456380208334,60.94782596826553L43.68525390625,44.65526854991913L43.925944010416664,41.30897033214569L44.16663411458334,55.30618053674698L44.40732421875,22.08347511291504L44.648014322916666,29.194306075572968L44.88870442708333,10.037639200687408L45.12939453125,31.567913353443146L45.37008463541667,28.788763225078583L45.610774739583334,24.158569514751434L45.85146484375,71.75486773252487L46.09215494791666,70.93904507160187L46.332845052083336,37.88573080301285L46.57353515625,61.10784870386124L46.81422526041666,64.03557479381561L47.05491536458333,47.16376841068268L47.295605468750004,51.846406280994415L47.536295572916664,61.6927524805069L47.77698567708333,45.61969882249832L48.017675781250006,67.66375905275345L48.258365885416666,11.732131004333496L48.49905598958333,65.28751426935196L48.73974609375,52.743495762348175L48.98043619791667,77.34534555673599L49.221126302083334,93.8208456337452L49.46181640625,78.706847012043L49.70250651041667,55.86572206020355L49.943196614583336,83.77734589576721L50.183886718749996,65.01642090082169L50.42457682291667,58.7327116727829L50.66526692708333,48.976631462574005L50.90595703125,64.58420759439468L51.14664713541667,75.56787782907486L51.38733723958333,66.53140407800674L51.62802734375,16.124632716178894L51.86871744791667,69.54836225509644L52.10940755208333,75.6136965751648L52.35009765625,74.78632164001465L52.59078776041667,93.75701799988747L52.831477864583334,73.62354040145874L53.07216796875,65.86354547739029L53.31285807291666,58.80008411407471L53.553548177083336,47.65973550081253L53.79423828125,63.221735537052155L54.03492838541666,61.50862294435501L54.27561848958334,67.6496114730835L54.51630859375,59.277979016304016L54.756998697916664,81.80274045467377L54.99768880208334,75.29203695058823L55.23837890625,59.70293390750885L55.479069010416666,92.89362001419067L55.71975911458333,55.06800323724747L55.96044921875,51.30225723981857L56.20113932291667,93.12800458073616L56.44182942708333,104.1264975965023L56.68251953125,64.66770046949387L56.92320963541667,96.5870192348957L57.16389973958333,78.80131191015244L57.40458984375,37.22827452421188L57.64527994791667,69.49051648378372L57.88597005208333,59.333725333213806L58.126660156250004,101.72417315840721L58.367350260416664,63.25748956203461L58.60804036458333,61.980514883995056L58.84873046875,67.93088561296463L59.089420572916666,53.446412086486816L59.33011067708333,88.47431069612503L59.57080078125,76.96982806921005L59.81149088541667,52.73101508617401L60.052180989583334,81.0911625623703L60.292871093749994,87.77596253156662L60.53356119791667,110.62055316567421L60.774251302083336,77.69104868173599L61.014941406249996,88.86314758658409L61.25563151041667,84.62184351682663L61.49632161458334,95.87413313984871L61.73701171875,87.0857589840889L61.977701822916664,45.47216731309891L62.21839192708334,93.95029440522194L62.45908203125,67.78869241476059L62.699772135416666,125.22913187742233L62.94046223958333,73.4153990149498L63.18115234375,98.80665421485901L63.42184244791667,76.78167897462845L63.662532552083334,89.71657580137253L63.90322265625,73.62517565488815L64.14391276041667,77.75915962457657L64.38460286458334,109.05664426088333L64.62529296875,62.58402889966965L64.86598307291666,88.96383699774742L65.10667317708332,77.85514372587204L65.34736328125,103.25400021672249L65.58805338541667,94.36755833029747L65.82874348958333,104.95787099003792L66.06943359375,83.75156164169312L66.31012369791667,99.82650375366211L66.55081380208333,26.44679546356201L66.79150390625,91.83668187260628L67.03219401041667,48.12554007768631L67.27288411458333,97.63706293702126L67.51357421875001,100.45881405472755L67.75426432291667,48.38795077800751L67.99495442708333,97.4629770219326L68.23564453125,106.44166830182076L68.47633463541666,115.98606231808662L68.71702473958334,64.88761568069458L68.95771484375,118.42333370447159L69.19840494791667,137.2963157594204L69.43909505208333,67.78515815734863L69.67978515624999,116.42408341169357L69.92047526041667,109.04910627007484L70.16116536458334,90.57544255256653L70.40185546875,82.08260089159012L70.64254557291667,114.77050459384918L70.88323567708333,91.43037942051888L71.12392578125,89.30510911345482L71.36461588541667,123.05063670873642L71.60530598958333,95.50261411070824L71.84599609375,103.83537501096725L72.08668619791666,111.3872232735157L72.32737630208334,108.66179385781288L72.56806640625,88.83936256170273L72.80875651041667,81.4658676981926L73.04944661458333,83.24408447742462L73.29013671874999,115.26189297437668L73.53082682291667,97.40390744805336L73.77151692708334,93.93896368145943L74.01220703125,68.27639883756638L74.25289713541666,72.14671665430069L74.49358723958333,51.273371279239655L74.73427734375,103.3525901734829L74.97496744791667,117.33856987953186L75.21565755208334,101.66178560256958L75.45634765624999,132.91202987730503L75.69703776041666,96.48772242665291L75.93772786458334,80.87103635072708L76.17841796875,95.20317283272743L76.41910807291667,95.43801632523537L76.65979817708335,99.93089094758034L76.90048828124999,121.58984899520874L77.14117838541667,91.75850620865822L77.38186848958334,84.72480118274689L77.62255859375,90.86985674500465L77.86324869791667,106.98379173874855L78.10393880208333,103.2325889468193L78.34462890625,123.79996258020401L78.58531901041667,74.20975238084793L78.82600911458333,89.2789608836174L79.06669921875,117.23003125190735L79.30738932291668,117.7521623969078L79.54807942708332,83.64279091358185L79.78876953125,124.39629203081131L80.02945963541667,55.60209810733795L80.27014973958333,87.96505057811737L80.51083984375,134.63920564949512L80.75152994791667,120.92983961105347L80.99222005208333,103.49007806181908L81.23291015625,106.98670354485512L81.47360026041667,92.48183155059814L81.71429036458333,100.3007747232914L81.95498046875,114.82793891429901L82.19567057291667,122.3797238767147L82.43636067708333,107.07183694839478L82.67705078125,117.71744227409363L82.91774088541668,117.5800176858902L83.15843098958332,75.74006474018097L83.39912109375,87.52923971414566L83.63981119791667,101.30722573399544L83.88050130208333,118.91015920042992L84.12119140625,107.54341238737106L84.36188151041667,111.06331649422646L84.60257161458333,112.35880646109581L84.84326171875,103.265077739954L85.08395182291666,85.32754504680634L85.32464192708333,127.5983661711216L85.56533203125001,95.85888308286667L85.80602213541665,137.16514997184277L86.04671223958333,84.46304458379745L86.28740234375,98.45955848693848L86.52809244791666,71.37938189506531L86.76878255208334,111.00706377625465L87.00947265625001,121.32842472195625L87.25016276041666,90.9320596754551L87.49085286458333,92.85945376753807L87.73154296875,78.35233461856842L87.97223307291667,116.81768363714218L88.21292317708334,90.782281011343L88.45361328125,75.17254739999771L88.69430338541666,-9.992791056632996L88.93499348958333,87.54791325330734L89.17568359375001,97.75473260879517L89.41637369791667,73.66439008712769L89.65706380208333,116.32158467173576L89.89775390625,129.9700375199318L90.13844401041666,81.90446376800537L90.37913411458334,131.30908325314522L90.61982421875,93.17838621139526L90.86051432291667,99.47556781768799L91.10120442708333,80.90190571546555L91.34189453124999,102.58623656630516L91.58258463541667,121.03087189793587L91.82327473958334,136.27563013136387L92.06396484375,138.17282478511333L92.30465494791666,128.02168053388596L92.54534505208333,109.09590089321136L92.78603515625,85.29283547401428L93.02672526041667,131.20313993096352L93.26741536458334,115.8227690756321L93.50810546874999,95.84047856926918L93.74879557291666,149.61666852235794L93.98948567708334,119.21382048726082L94.23017578125,134.07571578025818L94.47086588541667,121.50659877061844L94.71155598958335,111.37864610552788L94.95224609374999,86.71574860811234L95.19293619791667,112.44810712337494L95.43362630208334,108.12229737639427L95.67431640625,111.67169407010078L95.91500651041667,132.5244669020176L96.15569661458333,120.82065215706825L96.39638671875,85.96250867843628L96.63707682291667,150.0081587433815L96.87776692708333,102.8849815428257L97.11845703125,128.91701343655586L97.35914713541668,131.8765531182289L97.59983723958332,137.37236559391022L97.84052734375,92.2600437104702L98.08121744791667,87.65354007482529L98.32190755208333,100.21334141492844L98.56259765625,124.56431168317795L98.80328776041667,127.37396720051765L99.04397786458333,83.90449476242065L99.28466796875,90.37364172935486L99.52535807291667,131.03026726841927L99.76604817708333,121.48611062765121L100.00673828125,110.48716396093369L100.24742838541667,153.02962969243526L100.48811848958333,126.33595052361488L100.72880859375,104.75490966439247L100.96949869791668,119.06915858387947L101.21018880208332,105.07994002103806L101.45087890625,84.95376831293106L101.69156901041667,112.15606141090393L101.93225911458333,107.7342517375946L102.17294921875,125.41062918305397L102.41363932291667,56.29967612028122L102.65432942708333,129.5692105293274L102.89501953125,109.839165776968L103.13570963541666,133.96267493069172L103.37639973958333,92.13372302055359L103.61708984375001,115.19746926426888L103.85777994791665,122.02130797505379L104.09847005208333,131.29275181889534L104.33916015625,105.8605308830738L104.57985026041666,132.75373470783234L104.82054036458334,135.69234050810337L105.06123046875001,123.14019057154655L105.30192057291666,128.92123344540596L105.54261067708333,135.19337984919548L105.78330078125,151.91781297326088L106.02399088541667,124.91320091485977L106.26468098958334,110.64520329236984L106.50537109375,131.53446865081787L106.74606119791666,107.72846505045891L106.98675130208333,119.19010403752327L107.22744140625001,105.25694301724434L107.46813151041667,100.52350679039955L107.70882161458333,117.03233966231346L107.94951171875,133.84712581336498L108.19020182291666,102.29804161190987L108.43089192708334,136.59816540777683L108.67158203125,109.14926290512085L108.91227213541667,103.65548658370972L109.15296223958333,121.81701734662056L109.39365234374999,137.45843267440796L109.63434244791667,134.7464861869812L109.87503255208334,130.18677189946175L110.11572265625,115.75539135932922L110.35641276041666,106.86097365617752L110.59710286458333,105.85957083106041L110.83779296875,110.568140655756L111.07848307291667,106.27345874905586L111.31917317708334,127.18463122844696L111.55986328124999,124.3784413933754L111.80055338541666,129.92316377162933L112.04124348958334,122.83352252840996L112.28193359375,142.13487768173218L112.52262369791667,138.69725847244263L112.76331380208335,109.23895919322968L113.00400390624999,137.2397676408291L113.24469401041667,109.07596135139465L113.48538411458334,94.00729617476463L113.72607421875,141.99392938613892L113.96676432291667,114.76544585824013L114.20745442708333,127.99314799904823L114.44814453125,140.20564524829388L114.68883463541667,149.03577902913094L114.92952473958333,120.30892860889435L115.17021484375,92.97625306248665L115.41090494791668,136.0259506702423L115.65159505208332,136.78115817904472L115.89228515625,143.39507254958153L116.13297526041667,138.15562297403812L116.37366536458333,129.9946190714836L116.61435546875,112.54563680291176L116.85504557291667,96.73543167114258L117.09573567708333,134.44091534614563L117.33642578125,104.49185541272163L117.57711588541667,130.7578023970127L117.81780598958333,131.47465002536774L118.05849609375,151.55963444709778L118.29918619791667,111.96131327748299L118.53987630208333,146.17711602151394L118.78056640625,128.14275786280632L119.02125651041668,106.30405381321907L119.26194661458332,150.32477809488773L119.50263671875,151.15158860385418L119.74332682291667,143.15649434924126L119.98401692708333,132.04905652999878L120.22470703125,133.07098969817162L120.46539713541667,141.76708808541298L120.70608723958333,148.85204775631428L120.94677734375,125.21765872836113L121.18746744791666,121.4155204296112L121.42815755208333,123.18601459264755L121.66884765625001,157.139971062541L121.90953776041665,134.0398246049881L122.15022786458333,153.38159161806107L122.39091796875,138.56646193563938L122.63160807291666,135.8074676245451L122.87229817708334,140.234884634614L123.11298828125001,125.48000612854958L123.35367838541666,128.26157221198082L123.59436848958333,148.89751835167408L123.83505859375,122.71833738684654L124.07574869791667,128.86339822411537L124.31643880208334,161.45243371278048L124.55712890625,121.93275636434555L124.79781901041666,155.12794337421656L125.03850911458333,139.15142373740673L125.27919921875001,130.74550634622574L125.51988932291667,137.05174250900745L125.76057942708333,136.74906501173973L126.00126953125,124.89807218313217L126.24195963541666,130.3624930679798L126.48264973958334,124.58882465958595L126.72333984375,140.74009354412556L126.96402994791667,119.14636892080307L127.20472005208333,155.45509692281485L127.44541015624999,140.02696216106415L127.68610026041667,152.64492313563824L127.92679036458334,141.8361036926508L128.16748046875,143.63807912170887L128.40817057291667,96.89980101585388L128.64886067708335,135.27410598099232L128.88955078125,146.15945264697075L129.13024088541667,145.00185938179493L129.37093098958334,150.70910485088825L129.61162109375,148.10980094969273L129.85231119791666,150.43102736771107L130.09300130208334,143.8902668505907L130.33369140624998,154.0699436366558L130.57438151041666,136.270334020257L130.81507161458333,144.7868288308382L131.05576171875,126.52861502766609L131.29645182291668,133.36049549281597L131.53714192708335,150.10845252871513L131.77783203125,137.52070154249668L132.01852213541667,121.95012697577477L132.25921223958335,149.0711717158556L132.49990234375,143.96735586225986L132.74059244791667,118.46708464622498L132.98128255208331,96.87283515930176L133.22197265625,144.1269170343876L133.46266276041666,134.00093722343445L133.70335286458334,160.69875595718622L133.94404296875,135.9157029390335L134.18473307291666,152.77532140910625L134.42542317708333,151.0898208618164L134.66611328125,153.5245760679245L134.90680338541668,145.79013065993786L135.14749348958333,159.87746442854404L135.38818359375,134.42734010517597L135.62887369791667,147.55028316378593L135.86956380208332,126.82065019011497L136.11025390625,147.58371090888977L136.35094401041667,138.0507056415081L136.59163411458334,131.9890743792057L136.83232421875,131.21967709064484L137.07301432291666,160.21461939811707L137.31370442708334,135.06423439085484L137.55439453125,138.7301323413849L137.79508463541669,161.3170611038804L138.03577473958333,152.53854462504387L138.27646484375,150.92422507703304L138.51715494791665,131.8292626440525L138.75784505208333,123.00481796264648L138.99853515625,140.47601594030857L139.23922526041665,161.20639664679766L139.47991536458332,121.4855198264122L139.72060546875,160.73567707836628L139.96129557291667,125.19336202740669L140.20198567708334,133.66675472259521L140.44267578125002,141.1922068297863L140.68336588541666,143.25702023506165L140.92405598958334,141.50693508982658L141.16474609375,147.64559470117092L141.40543619791666,143.00985431671143L141.64612630208333,114.61587819457054L141.88681640625,137.98750837147236L142.12750651041665,137.33506335318089L142.36819661458333,153.08908434212208L142.60888671875,134.52573224902153L142.84957682291667,95.08847826719284L143.09026692708335,153.06216068565845L143.33095703125,138.4117564111948L143.57164713541667,132.45132887363434L143.81233723958334,124.25132417678833L144.05302734375002,138.82778598368168L144.29371744791666,147.2995698004961L144.5344075520833,128.88046288490295L144.77509765624998,143.90118876099586L145.01578776041666,113.3729695379734L145.25647786458333,154.54709212481976L145.49716796875,152.75745758414268L145.73785807291668,155.64031970500946L145.97854817708333,133.3579371124506L146.21923828125,152.87221017479897L146.45992838541667,130.8478573858738L146.70061848958335,154.49093963205814L146.94130859375002,140.62938161194324L147.18199869791667,135.3404656201601L147.42268880208331,145.048026278615L147.66337890625,153.2963738143444L147.90406901041666,149.9365926682949L148.14475911458334,161.5510078445077L148.38544921875,156.2135208696127L148.62613932291666,165.32301791757345L148.86682942708333,156.7520190551877L149.10751953125,144.7194563895464L149.34820963541668,142.55535672605038L149.58889973958335,155.54368150234222L149.82958984375,85.43455392122269L150.07027994791665,145.43196795880795L150.31097005208332,140.56037391722202L150.55166015625,139.87948076426983L150.79235026041667,133.80344872176647L151.03304036458334,144.68411381542683L151.27373046875002,147.54650361835957L151.51442057291666,147.8135431408882L151.75511067708334,150.3897029310465L151.99580078125,158.8579393029213L152.23649088541666,151.73426896333694L152.47718098958333,157.82393822818995L152.71787109375,154.81133061647415L152.95856119791665,131.16606187820435L153.19925130208333,133.06751346588135L153.43994140625,131.29611200094223L153.68063151041667,151.63001100718975L153.92132161458335,147.5898721218109L154.16201171875,130.23219501972198L154.40270182291667,148.0211069136858L154.64339192708334,133.85993354022503L154.88408203125,142.24105310440063L155.12477213541666,140.1849592924118L155.36546223958334,143.28450568020344L155.60615234374998,107.39618682861328L155.84684244791666,141.0565625578165L156.08753255208333,156.42881912738085L156.32822265625,132.39638963341713L156.56891276041668,156.44521913677454L156.80960286458335,152.01607324182987L157.05029296875,130.50946015119553L157.29098307291665,123.81775519251823L157.53167317708332,135.37225283682346L157.77236328125,153.34862279891968L158.01305338541667,156.49112360179424L158.25374348958334,152.20307502150536L158.49443359375,164.11317566782236L158.73512369791666,135.47225649654865L158.97581380208334,154.51131963729858L159.21650390625,157.57529266923666L159.45719401041669,149.97650603950024L159.69788411458333,148.16435511410236L159.93857421874998,162.45743277668953L160.17926432291665,157.13471319526434L160.41995442708333,139.77029331028461L160.66064453125,151.6595220565796L160.90133463541667,158.0908129066229L161.14202473958332,104.1607640683651L161.38271484375,151.24262210726738L161.62340494791667,149.32932284474373L161.86409505208334,140.52412140369415L162.10478515625002,156.0401510372758L162.3454752604167,134.86375232040882L162.5861653645833,146.30177772045135L162.82685546874998,162.46004258841276L163.06754557291666,162.17471987754107L163.30823567708333,161.6537756100297L163.54892578125,140.83885757625103L163.78961588541668,152.20120239257812L164.03030598958333,140.06832088530064L164.27099609375,145.73444236814976L164.51168619791667,149.39573787152767L164.75237630208335,146.1884335577488L164.99306640625002,145.09440417587757L165.23375651041667,118.77423799037933L165.47444661458331,156.2764543890953L165.71513671875,137.24538025259972L165.95582682291666,144.66866858303547L166.19651692708334,145.30500635504723L166.43720703125,164.61701966822147L166.67789713541666,157.18408070504665L166.91858723958333,158.51813495904207L167.15927734375,158.50260005146265L167.39996744791668,151.6626976132393L167.64065755208335,156.06809540838003L167.88134765625,154.75860951840878L168.12203776041665,152.7054275125265L168.36272786458332,151.57719232141972L168.60341796875,147.0281203687191L168.84410807291667,141.17475445568562L169.08479817708334,140.89998967945576L169.32548828125002,149.23438847064972L169.56617838541666,155.62166330963373L169.80686848958334,148.50754733383656L170.04755859375,151.9297846108675L170.28824869791666,111.1568055152893L170.52893880208333,150.6189760118723L170.76962890625,155.98715563863516L171.01031901041665,142.98857755959034L171.25100911458333,139.2353966385126L171.49169921875,145.227743268013L171.73238932291667,153.06468477845192L171.97307942708335,123.51523330807686L172.21376953125,163.65955900400877L172.45445963541667,157.88763266801834L172.69514973958334,141.1982625424862L172.93583984375,159.9594987630844L173.17652994791666,143.30355110764503L173.41722005208334,130.59705170989037L173.65791015624998,126.10385003685951L173.89860026041666,123.44086092710495L174.13929036458333,140.3663273602724L174.37998046875,142.19135458767414L174.62067057291668,139.17721590399742L174.86136067708335,141.38945531845093L175.10205078125,149.9345881640911L175.34274088541665,142.79274013638496L175.58343098958332,147.01359562575817L175.82412109375,156.3046084418893L176.06481119791667,139.93256847560406L176.30550130208334,161.61945638805628L176.54619140625,55.75911408662796L176.78688151041666,156.32936934381723L177.02757161458334,156.16789466142654L177.26826171875,115.98905324935913L177.50895182291669,153.89593948423862L177.74964192708333,141.43389992415905L177.99033203124998,147.60575254261494L178.23102213541665,135.46728743612766L178.47171223958333,136.2877204567194L178.71240234375,133.36191447079182L178.95309244791667,151.6174643933773L179.19378255208332,151.6369133591652L179.43447265625,134.0859941393137L179.67516276041667,130.1943573653698L179.91585286458334,147.13338321447372L180.15654296875002,158.28523267060518L180.3972330729167,155.11972226947546L180.6379231770833,133.1298772841692L180.87861328124998,154.297858402133L181.11930338541666,140.99800729751587L181.35999348958333,161.62131319195032L181.60068359375,139.73224993050098L181.84137369791668,158.82306092977524L182.08206380208333,153.88594333827496L182.32275390625,159.00595215708017L182.56344401041667,147.07561393082142L182.80413411458335,163.7634740844369L183.04482421875002,161.50373319536448L183.28551432291667,167.5202308036387L183.52620442708331,151.35586340725422L183.76689453125,154.70708057284355L184.00758463541666,168.0601156577468L184.24827473958334,125.61440286040306L184.48896484375,165.51837399601936L184.72965494791666,149.0521843135357L184.97034505208333,142.6632887274027L185.21103515625,149.19696490466595L185.45172526041668,152.10833582282066L185.69241536458335,144.6383794695139L185.93310546875,162.94665180891752L186.17379557291665,160.02364157885313L186.41448567708332,165.43842988461256L186.65517578125,151.35791538655758L186.89586588541667,155.74667184054852L187.13655598958334,125.17710444331169L187.37724609375002,154.1072168648243L187.61793619791666,157.41536488384008L187.85862630208334,167.23400342836976L188.09931640625,152.51122534275055L188.34000651041666,165.68329326063395L188.58069661458333,160.04273975640535L188.82138671875,165.96793219819665L189.06207682291665,156.46406147629023L189.30276692708333,152.39196525514126L189.54345703125,151.69932992756367L189.78414713541667,163.64359813928604L190.02483723958335,168.28535005822778L190.26552734375,161.45229128748178L190.50621744791667,156.77211157232523L190.74690755208334,159.93608562648296L190.98759765625,164.42305091768503L191.22828776041666,166.29444417357445L191.46897786458334,150.00186038017273L191.70966796874998,154.23246936500072L191.95035807291666,169.3363702967763L192.19104817708333,156.53663639724255L192.43173828125,164.0691662505269L192.67242838541668,144.04438157379627L192.91311848958335,164.23140976577997L193.15380859375,164.89658997952938L193.39449869791665,166.4711682535708L193.63518880208332,157.46676063537598L193.87587890625,163.66456367075443L194.11656901041667,155.62515932321548L194.35725911458334,159.97879607230425L194.59794921875,150.05426761507988L194.83863932291666,137.8022948205471L195.07932942708334,161.425796225667L195.32001953125,162.41293937712908L195.56070963541669,171.19176246598363L195.80139973958333,162.58432976156473L196.04208984374998,119.61065956950188L196.28277994791665,164.1084822267294L196.52347005208333,158.798234090209L196.76416015625,154.61045292019844L197.00485026041667,112.35786750912666L197.24554036458332,162.0402651205659L197.48623046875,153.2945275604725L197.72692057291667,138.4763225466013L197.96761067708334,165.96078192070127L198.20830078125002,161.8853683769703L198.4489908854167,166.6356793642044L198.6896809895833,166.41450144723058L198.93037109374998,151.29334397614002L199.17106119791666,168.65234642475843L199.41175130208333,149.5843696296215L199.65244140625,149.638660043478L199.89313151041668,169.20609994232655L200.13382161458333,143.7587924748659L200.37451171875,153.45333968102932L200.61520182291667,156.45132100582123L200.85589192708335,164.21583925187588L201.09658203125002,160.22547800838947L201.33727213541667,167.1209929101169L201.57796223958331,161.47667238861322L201.81865234375,164.76619961857796L202.05934244791666,167.48020401969552L202.30003255208334,128.02433913946152L202.54072265625,171.608655821532L202.78141276041666,161.480950422585L203.02210286458333,163.39906049519777L203.26279296875,161.05197333544493L203.50348307291668,156.3919665813446L203.74417317708335,166.81505677476525L203.98486328125,163.94171538949013L204.22555338541665,169.82237684726715L204.46624348958332,169.86291003227234L204.70693359375,160.38967195898294L204.94762369791667,164.57320410758257L205.18831380208334,164.73482517153025L205.42900390625002,170.75771015882492L205.66969401041666,170.5403909124434L205.91038411458334,154.14643920958042L206.15107421875,162.34395805746317L206.39176432291666,154.28884868323803L206.63245442708333,129.16348832845688L206.87314453125,167.87394601106644L207.11383463541665,165.60868614166975L207.35452473958333,146.73292283713818L207.59521484375,168.98400747030973L207.83590494791667,136.64196646213531L208.07659505208335,157.76577727496624L208.31728515625,156.6413334980607L208.55797526041667,146.39511904120445L208.79866536458334,162.62175464630127L209.03935546875,166.29602206125855L209.28004557291666,161.7128346338868L209.52073567708334,154.49951416254044L209.76142578124998,170.29452330619097L210.00211588541666,158.3721608966589L210.24280598958333,160.20637323707342L210.48349609375,146.27443206310272L210.72418619791668,116.33773675560951L210.96487630208335,161.24262542277575L211.20556640625,160.05772606283426L211.44625651041665,147.65599966049194L211.68694661458332,162.2030097618699L211.92763671875,154.6648567467928L212.16832682291667,164.9976789727807L212.40901692708334,148.6555351316929L212.64970703125,158.89588509500027L212.89039713541666,150.97572501003742L213.13108723958334,154.3596709817648L213.37177734375,169.7669819779694L213.61246744791669,148.78621298074722L213.85315755208333,156.4485687687993L214.09384765624998,166.99582744762301L214.33453776041665,162.3732501938939L214.57522786458333,162.59286209195852L214.81591796875,159.24103961884975L215.05660807291667,170.08689425513148L215.29729817708332,169.67448465898633L215.53798828125,163.99756061285734L215.77867838541667,162.93557164818048L216.01936848958334,161.7837175950408L216.26005859375002,155.40011020749807L216.5007486979167,165.34116923063993L216.7414388020833,167.32015622779727L216.98212890624998,166.66190342232585L217.22281901041666,157.75779486447573L217.46350911458333,135.60502061247826L217.70419921875,162.31181214004755L217.94488932291668,156.7875673547387L218.18557942708333,160.7928041294217L218.42626953125,158.3242097273469L218.66695963541667,164.62608741223812L218.90764973958335,165.99117521569133L219.14833984375002,146.38217416405678L219.38902994791667,167.55291279405355L219.62972005208331,162.8055215254426L219.87041015625,167.91410137340426L220.11110026041666,161.30388808250427L220.35179036458334,164.9843556135893L220.59248046875,128.22404050827026L220.83317057291666,121.11340999603271L221.07386067708333,166.8717644624412L221.31455078125,167.2483092583716L221.55524088541668,144.37164326012135L221.79593098958335,142.44882787764072L222.03662109375,161.15002524107695L222.27731119791665,160.20994705706835L222.51800130208332,122.9393339753151L222.75869140625,140.72514943778515L222.99938151041667,142.32249400019646L223.24007161458334,167.68811594322324L223.48076171875002,137.83186389505863L223.72145182291666,164.93526636064053L223.96214192708334,155.17067228257656L224.20283203125,158.39712488651276L224.44352213541666,154.7130729854107L224.68421223958333,167.63445721194148L224.92490234375,169.00115521252155L225.16559244791665,163.5165415853262L225.40628255208333,159.01878230273724L225.64697265625,162.16346564143896L225.88766276041667,161.5680144801736L226.12835286458335,167.54889982938766L226.36904296875,171.10817727819085L226.60973307291667,168.43666177242994L226.85042317708334,173.8272387664765L227.09111328125,150.99213029444218L227.33180338541666,159.450028963387L227.57249348958334,143.57711581885815L227.81318359374998,169.58179809898138L228.05387369791666,160.04017873853445L228.29456380208333,153.1037515103817L228.53525390625,167.2777945920825L228.77594401041668,170.36607355624437L229.01663411458335,172.74226954579353L229.25732421875,164.1360705345869L229.49801432291665,153.88216115534306L229.73870442708332,170.06305516138673L229.97939453125,163.79585605859756L230.22008463541667,149.4671034961939L230.46077473958334,172.0322187691927L230.70146484375,167.56106598302722L230.94215494791666,170.755641695112L231.18284505208334,153.18176628649235L231.42353515625,164.00401986390352L231.66422526041669,172.91856964677572L231.90491536458333,156.68891937285662L232.14560546874998,165.40604922920465L232.38629557291665,160.82707719504833L232.62698567708333,168.01823734492064L232.86767578125,156.86844382435083L233.10836588541667,144.005610242486L233.34905598958332,158.49687534570694L233.58974609375,160.89970222860575L233.83043619791667,168.2950831130147L234.07112630208334,139.77208153903484L234.31181640625002,164.77008070796728L234.5525065104167,173.99083828926086L234.7931966145833,170.6861869432032L235.03388671874998,159.52785120159388L235.27457682291666,170.4749761596322L235.51526692708333,166.18069449439645L235.75595703125,163.3690285384655L235.99664713541668,164.30427481234074L236.23733723958333,171.8829507920891L236.47802734375,170.27994053810835L236.71871744791667,164.73174588382244L236.95940755208335,168.26986394450068L237.20009765625002,139.17290358245373L237.44078776041667,166.01576863601804L237.68147786458331,173.46784566901624L237.92216796875,164.51081523299217L238.16285807291666,157.6649533510208L238.40354817708334,164.41455287486315L238.64423828125,160.49438356608152L238.88492838541666,162.9808417931199L239.12561848958333,138.90994955599308L239.36630859375,159.03374223411083L239.60699869791668,162.02517990767956L239.84768880208335,168.36065941303968L240.08837890625,173.32927409559488L240.32906901041665,144.6379917562008L240.56975911458332,160.8229587301612L240.81044921875,173.53747680410743L241.05113932291667,158.66850442439318L241.29182942708334,165.4949423968792L241.53251953125002,168.37375924363732L241.77320963541666,164.7446063607931L242.01389973958334,173.27061234600842L242.25458984375,156.40076134353876L242.49527994791666,170.75765411183238L242.73597005208333,162.16277989000082L242.97666015625,162.34173991531134L243.21735026041665,170.89232316613197L243.45804036458333,153.64503885805607L243.69873046875,166.42835626378655L243.93942057291667,167.84663398191333L244.18011067708335,171.5917108375579L244.42080078125,172.38119075261056L244.66149088541667,154.01827754080296L244.90218098958334,166.67359152808785L245.14287109375,165.264078900218L245.38356119791666,159.03097812831402L245.62425130208334,166.36928405240178L245.86494140624998,158.22241783887148L246.10563151041666,158.2966016381979L246.34632161458333,138.08984622359276L246.58701171875,165.49897250533104L246.82770182291668,169.60363598540425L247.06839192708335,162.12685442715883L247.30908203125,167.55622022598982L247.54977213541665,149.90563890337944L247.79046223958332,144.052739828825L248.03115234375,171.40383769199252L248.27184244791667,170.46883406862617L248.51253255208334,146.7786149829626L248.75322265625,163.3126755952835L248.99391276041666,168.55458464473486L249.23460286458334,167.24197133257985L249.47529296875,163.76597443968058L249.71598307291669,163.38990307599306L249.95667317708333,147.50615242123604L250.19736328124998,140.79649659991264L250.43805338541665,160.89967585355043L250.67874348958333,167.5906944014132L250.91943359375,170.23907238990068L251.16012369791667,159.7025068178773L251.40081380208332,156.58224414288998L251.64150390625,122.47042241692543L251.88219401041667,167.88132245466113L252.12288411458334,124.78350949287415L252.36357421875002,142.02375957369804L252.6042643229167,169.81796825677156L252.8449544270833,167.6284509524703L253.08564453124998,167.59939619153738L253.32633463541666,136.9496182948351L253.56702473958333,143.87553638219833L253.80771484375,162.73021019250154L254.04840494791668,143.66916212439537L254.28909505208333,161.75732803344727L254.52978515625,165.58685682713985L254.77047526041667,167.607366733253L255.01116536458335,166.58204107359052L255.25185546875002,153.36937469244003L255.49254557291667,167.96906039491296L255.73323567708331,148.91285808384418L255.97392578125,152.9943556934595L256.21461588541666,166.97879575565457L256.45530598958334,153.02101296186447L256.69599609375,164.96021584421396L256.93668619791663,173.07670623622835L257.1773763020833,167.75594203546643L257.41806640625,151.69370412826538L257.65875651041665,139.52524003386497L257.8994466145833,166.61256492510438L258.14013671875,167.71391470357776L258.3808268229167,162.15824469923973L258.62151692708335,139.21067793667316L258.86220703125,169.83033749833703L259.1028971354167,155.99946355819702L259.3435872395833,162.3597303405404L259.58427734375,167.8266878463328L259.82496744791666,170.26817990094423L260.06565755208334,164.5740823969245L260.30634765625,170.82748800516129L260.5470377604167,161.74871262162924L260.78772786458336,159.00122706592083L261.02841796875003,167.24528931453824L261.26910807291665,170.9051513336599L261.5097981770833,167.43186118081212L261.75048828125,156.21337316930294L261.9911783854167,167.16883528232574L262.23186848958335,169.04758256301284L262.47255859374997,164.70341248065233L262.71324869791664,165.3596396818757L262.9539388020833,164.13400273025036L263.19462890625,156.4614318832755L263.43531901041666,156.29994928836823L263.67600911458334,163.03670547902584L263.91669921875,141.76496489346027L264.1573893229167,166.4812626466155L264.3980794270833,163.10887686163187L264.63876953125,172.44303959794343" style="fill: none;" fill="none"></path></g></g></g></g></g></g><g transform="translate(41, 177)" clip-path="url(#clip_1)"><clipPath id="clip_1"><rect width="288" height="23"></rect></clipPath><g><g><line x1="0" y1="0" x2="0" y2="5" style="visibility: inherit;" fill="rgb(0, 0, 0)" stroke="rgb(204, 204, 204)" stroke-width="1px"></line><line x1="24.069010416666664" y1="0" x2="24.069010416666664" y2="5" style="visibility: inherit;" fill="rgb(0, 0, 0)" stroke="rgb(204, 204, 204)" stroke-width="1px"></line><line x1="48.13802083333333" y1="0" x2="48.13802083333333" y2="5" style="visibility: inherit;" fill="rgb(0, 0, 0)" stroke="rgb(204, 204, 204)" stroke-width="1px"></line><line x1="72.20703125" y1="0" x2="72.20703125" y2="5" style="visibility: inherit;" fill="rgb(0, 0, 0)" stroke="rgb(204, 204, 204)" stroke-width="1px"></line><line x1="96.27604166666666" y1="0" x2="96.27604166666666" y2="5" style="visibility: inherit;" fill="rgb(0, 0, 0)" stroke="rgb(204, 204, 204)" stroke-width="1px"></line><line x1="120.34505208333334" y1="0" x2="120.34505208333334" y2="5" style="visibility: inherit;" fill="rgb(0, 0, 0)" stroke="rgb(204, 204, 204)" stroke-width="1px"></line><line x1="144.4140625" y1="0" x2="144.4140625" y2="5" style="visibility: inherit;" fill="rgb(0, 0, 0)" stroke="rgb(204, 204, 204)" stroke-width="1px"></line><line x1="168.48307291666669" y1="0" x2="168.48307291666669" y2="5" style="visibility: inherit;" fill="rgb(0, 0, 0)" stroke="rgb(204, 204, 204)" stroke-width="1px"></line><line x1="192.55208333333331" y1="0" x2="192.55208333333331" y2="5" style="visibility: inherit;" fill="rgb(0, 0, 0)" stroke="rgb(204, 204, 204)" stroke-width="1px"></line><line x1="216.62109375" y1="0" x2="216.62109375" y2="5" style="visibility: inherit;" fill="rgb(0, 0, 0)" stroke="rgb(204, 204, 204)" stroke-width="1px"></line><line x1="240.69010416666669" y1="0" x2="240.69010416666669" y2="5" style="visibility: inherit;" fill="rgb(0, 0, 0)" stroke="rgb(204, 204, 204)" stroke-width="1px"></line><line x1="264.7591145833333" y1="0" x2="264.7591145833333" y2="5" style="visibility: inherit;" fill="rgb(0, 0, 0)" stroke="rgb(204, 204, 204)" stroke-width="1px"></line><line x1="288.828125" y1="0" x2="288.828125" y2="5" style="visibility: inherit;" fill="rgb(0, 0, 0)" stroke="rgb(204, 204, 204)" stroke-width="1px"></line></g><g transform="translate(0, 8)"><text x="0" y="0" dx="0em" dy="0.95em" style="text-anchor: middle; visibility: hidden; font-family: Roboto, sans-serif; font-size: 12px; font-weight: 200;" fill="rgb(33, 33, 33)" stroke="none" stroke-width="1px">39.8k</text><text x="24.069010416666664" y="0" dx="0em" dy="0.95em" style="text-anchor: middle; visibility: inherit; font-family: Roboto, sans-serif; font-size: 12px; font-weight: 200;" fill="rgb(33, 33, 33)" stroke="none" stroke-width="1px">40k</text><text x="48.13802083333333" y="0" dx="0em" dy="0.95em" style="text-anchor: middle; visibility: hidden; font-family: Roboto, sans-serif; font-size: 12px; font-weight: 200;" fill="rgb(33, 33, 33)" stroke="none" stroke-width="1px">40.2k</text><text x="72.20703125" y="0" dx="0em" dy="0.95em" style="text-anchor: middle; visibility: inherit; font-family: Roboto, sans-serif; font-size: 12px; font-weight: 200;" fill="rgb(33, 33, 33)" stroke="none" stroke-width="1px">40.4k</text><text x="96.27604166666666" y="0" dx="0em" dy="0.95em" style="text-anchor: middle; visibility: hidden; font-family: Roboto, sans-serif; font-size: 12px; font-weight: 200;" fill="rgb(33, 33, 33)" stroke="none" stroke-width="1px">40.6k</text><text x="120.34505208333334" y="0" dx="0em" dy="0.95em" style="text-anchor: middle; visibility: inherit; font-family: Roboto, sans-serif; font-size: 12px; font-weight: 200;" fill="rgb(33, 33, 33)" stroke="none" stroke-width="1px">40.8k</text><text x="144.4140625" y="0" dx="0em" dy="0.95em" style="text-anchor: middle; visibility: hidden; font-family: Roboto, sans-serif; font-size: 12px; font-weight: 200;" fill="rgb(33, 33, 33)" stroke="none" stroke-width="1px">41k</text><text x="168.48307291666669" y="0" dx="0em" dy="0.95em" style="text-anchor: middle; visibility: inherit; font-family: Roboto, sans-serif; font-size: 12px; font-weight: 200;" fill="rgb(33, 33, 33)" stroke="none" stroke-width="1px">41.2k</text><text x="192.55208333333331" y="0" dx="0em" dy="0.95em" style="text-anchor: middle; visibility: hidden; font-family: Roboto, sans-serif; font-size: 12px; font-weight: 200;" fill="rgb(33, 33, 33)" stroke="none" stroke-width="1px">41.4k</text><text x="216.62109375" y="0" dx="0em" dy="0.95em" style="text-anchor: middle; visibility: inherit; font-family: Roboto, sans-serif; font-size: 12px; font-weight: 200;" fill="rgb(33, 33, 33)" stroke="none" stroke-width="1px">41.6k</text><text x="240.69010416666669" y="0" dx="0em" dy="0.95em" style="text-anchor: middle; visibility: hidden; font-family: Roboto, sans-serif; font-size: 12px; font-weight: 200;" fill="rgb(33, 33, 33)" stroke="none" stroke-width="1px">41.8k</text><text x="264.7591145833333" y="0" dx="0em" dy="0.95em" style="text-anchor: middle; visibility: inherit; font-family: Roboto, sans-serif; font-size: 12px; font-weight: 200;" fill="rgb(33, 33, 33)" stroke="none" stroke-width="1px">42k</text><text x="288.828125" y="0" dx="0em" dy="0.95em" style="text-anchor: middle; visibility: hidden; font-family: Roboto, sans-serif; font-size: 12px; font-weight: 200;" fill="rgb(33, 33, 33)" stroke="none" stroke-width="1px">42.2k</text></g><line x1="0" y1="0" x2="288.828125" y2="0" fill="rgb(0, 0, 0)" stroke="rgb(204, 204, 204)" stroke-width="1px"></line></g></g></g></g></svg>